SplineFontDB: 3.0
FontName: CMUSerif-BoldNonextended
FullName: CMU Serif Roman Bold Nonextended
FamilyName: CMU Serif Extra
Weight: Bold
Copyright: Converted by Andrey V. Panov from TeX fonts. Some glyphs are copied from Blue Sky fonts released by AMS.
UComments: "2009-6-18: Created." 
Version: 0.7.0
ItalicAngle: 0
UnderlinePosition: -100
UnderlineWidth: 50
Ascent: 800
Descent: 200
LayerCount: 2
Layer: 0 0 "+BBcEMAQ0BD0EOAQ5 +BD8EOwQwBD0A"  1
Layer: 1 0 "+BB8ENQRABDUENAQ9BDgEOQAA +BD8EOwQwBD0A"  0
NeedsXUIDChange: 1
XUID: [1067 686727]
FSType: 0
OS2Version: 0
OS2_WeightWidthSlopeOnly: 0
OS2_UseTypoMetrics: 1
CreationTime: 1245311034
ModificationTime: 1245311462
PfmFamily: 17
TTFWeight: 700
TTFWidth: 5
LineGap: 200
VLineGap: 90
OS2TypoAscent: 0
OS2TypoAOffset: 1
OS2TypoDescent: 0
OS2TypoDOffset: 1
OS2TypoLinegap: 200
OS2WinAscent: 925
OS2WinAOffset: 0
OS2WinDescent: 308
OS2WinDOffset: 0
HheadAscent: 925
HheadAOffset: 0
HheadDescent: -308
HheadDOffset: 0
Lookup: 1 0 0 "Case substitutions"  {"Case substitutions subtable"  } ['case' ('cyrl' <'dflt' > 'grek' <'dflt' > 'latn' <'dflt' > ) ]
Lookup: 4 0 1 "Latin Dutch ligatures"  {"Latin Dutch ligatures subtable"  } ['liga' ('latn' <'NLD ' > ) ]
Lookup: 4 0 1 "Latin ligatures excepting Turkic"  {"Latin ligatures excepting Turkic subtable"  } ['liga' ('latn' <'dflt' 'NLD ' 'VIT ' > ) ]
Lookup: 4 0 1 "Latin ligatures"  {"Latin ligatures subtable"  } ['liga' ('latn' <'dflt' 'NLD ' 'VIT ' 'TRK ' 'AZE ' > ) ]
Lookup: 4 0 1 "Cyrillic ligatures"  {"Cyrillic ligatures subtable"  } ['liga' ('cyrl' <'dflt' 'MKD ' 'SRB ' > ) ]
Lookup: 3 0 0 "Latin alternatives"  {"Latin alternatives subtable"  } ['salt' ('latn' <'dflt' > ) ]
Lookup: 3 0 0 "Stilistic set 01"  {"Stilistic set 01 subtable"  } ['ss01' ('latn' <'dflt' > 'grek' <'dflt' > 'cyrl' <'dflt' > ) ]
Lookup: 1 0 0 "Latin Vietnamese substitutions"  {"Latin Vietnamese substitutions subtable"  } ['locl' ('latn' <'VIT ' > ) ]

StartChar: .notdef
Encoding: 0 0 0
Width: 760
Flags: HW
HStem: 10 60<105 655> 705 60<105 655>
VStem: 10 60<112 663> 690 60<112 663>
DStem2: 105 705 70 663 0.702289 -0.711892<5.31938 389.612 448.699 832.991> 70 112 105 70 0.702289 0.711892<0 384.292 443.379 827.672>
LayerCount: 2
Fore
SplineSet
10 10 m 1
 10 765 l 1
 750 765 l 1
 750 10 l 1
 10 10 l 1
70 112 m 1
 346 388 l 1
 70 663 l 1
 70 112 l 1
105 70 m 1
 655 70 l 1
 380 346 l 1
 105 70 l 1
105 705 m 1
 380 429 l 1
 655 705 l 1
 105 705 l 1
414 388 m 1
 690 112 l 1
 690 663 l 1
 414 388 l 1
EndSplineSet
EndChar

StartChar: uni262D
Encoding: 9773 9773 1
Width: 700
Flags: HW
TeX: 117 0
HStem: -1 21G<56 93 593.5 601> 39 76<321.786 462.78> 102 51<140.549 177.987>
VStem: 129 54<101.776 137.734> 556 82<197.341 366.709>
DStem2: 123 357 178 301 0.707107 0.707107<0 86.9741 130.108 182.434>
LayerCount: 2
Fore
SplineSet
40 18 m 0
 40 64 129 102 129 128 c 0
 129 148 134 153 148 153 c 0xb8
 162 153 164 157 182 180 c 1
 229 156 307 115 390 115 c 0
 438 115 463 128 463 129 c 0
 463 135 406 186 240 363 c 1
 178 301 l 1
 123 357 l 1
 252 486 l 1
 347 470 l 1
 271 393 l 1
 484 190 l 1
 513 165 l 1
 519 165 556 218 556 295 c 0
 556 473 346 588 346 593 c 1
 394 593 638 478 638 267 c 0
 638 167 592 118 580 100 c 1
 636 44 637 42 637 38 c 0xd8
 637 17 605 -1 597 -1 c 2
 596 -1 l 2
 591 -1 590 1 529 62 c 1
 500 51 474 39 428 39 c 0xd8
 297 39 201 138 188 138 c 0
 183 138 182 134 182 130 c 0
 182 126 183 123 183 118 c 0
 183 108 178 102 168 102 c 0
 131 102 122 0 64 -0 c 0
 48 0 40 7 40 18 c 0
EndSplineSet
EndChar

StartChar: circumflex.cap
Encoding: 65536 -1 2
Width: 500
Flags: HW
HStem: 737 163
VStem: 110 280
AnchorPoint: "above" 250 697 mark 0
LayerCount: 2
Fore
SplineSet
110 774 m 1
 249 900 l 1
 250 900 l 1
 390 774 l 1
 360 737 l 1
 250 817 l 1
 249 817 l 1
 140 737 l 1
 110 774 l 1
EndSplineSet
EndChar

StartChar: dieresis.cap
Encoding: 65537 -1 3
Width: 500
Flags: HW
HStem: 738 156<100.601 205.875 294.601 400.15>
VStem: 76 155<763.189 869.605> 270 155<762.792 869.208>
AnchorPoint: "above" 250 697 mark 0
LayerCount: 2
Fore
SplineSet
76 816 m 0
 76 855 108 894 152 894 c 0
 194 894 231 862 231 816 c 0
 231 772 194 738 154 738 c 0
 112 738 76 771 76 816 c 0
270 816 m 0
 270 859 304 894 348 894 c 0
 388 894 425 861 425 816 c 0
 425 769 386 738 348 738 c 0
 306 738 270 771 270 816 c 0
EndSplineSet
EndChar

StartChar: dotaccent.cap
Encoding: 65538 -1 4
Width: 500
Flags: HW
HStem: 747 155<196.792 303.012>
VStem: 172 156<771.988 877.208>
AnchorPoint: "above" 250 697 mark 0
LayerCount: 2
Fore
SplineSet
172 825 m 0
 172 864 204 902 250 902 c 0
 291 902 328 869 328 824 c 0
 328 786 296 747 250 747 c 0
 205 747 172 784 172 825 c 0
EndSplineSet
EndChar

StartChar: caron.cap
Encoding: 65539 -1 5
Width: 500
Flags: HW
HStem: 759 92<216.36 282.838>
VStem: 104 291
AnchorPoint: "above" 250 697 mark 0
LayerCount: 2
Fore
SplineSet
104 868 m 1
 118 893 l 1
 236 854 244 851 250 851 c 0
 262 851 276 859 382 893 c 1
 395 868 l 1
 270 772 260 759 250 759 c 0
 238 759 220 779 104 868 c 1
EndSplineSet
EndChar

StartChar: ring.cap
Encoding: 65540 -1 6
Width: 500
Flags: HW
HStem: 719 36<199.056 301.258> 866 36<198.988 300.672>
VStem: 143 48<760.811 859.606> 309 48<760.948 859.407>
AnchorPoint: "above" 250 697 mark 0
LayerCount: 2
Fore
SplineSet
143 810 m 0
 143 865 186 902 250 902 c 0
 314 902 357 865 357 810 c 0
 357 756 315 719 250 719 c 0
 186 719 143 755 143 810 c 0
191 809 m 0
 191 771 203 755 248 755 c 0
 289 755 309 762 309 810 c 0
 309 844 302 866 250 866 c 0
 198 866 191 846 191 809 c 0
EndSplineSet
EndChar

StartChar: breve.cap
Encoding: 65541 -1 7
Width: 500
Flags: HW
HStem: 755 63<167.06 333.893>
VStem: 93 36<855.18 894> 370 37<853.845 894>
AnchorPoint: "above" 250 697 mark 0
LayerCount: 2
Fore
SplineSet
93 894 m 1
 129 894 l 1
 136 824 219 818 250 818 c 0
 279 818 363 824 370 894 c 1
 407 894 l 1
 403 801 322 755 250 755 c 0
 173 755 97 805 93 894 c 1
EndSplineSet
EndChar

StartChar: macron.cap
Encoding: 63184 63184 8
Width: 500
Flags: HW
HStem: 789 52<56 444>
AnchorPoint: "above" 250 697 mark 0
LayerCount: 2
Fore
SplineSet
56 789 m 1
 56 841 l 1
 444 841 l 1
 444 789 l 1
 56 789 l 1
EndSplineSet
EndChar

StartChar: grave
Encoding: 96 96 9
Width: 500
Flags: HW
TeX: 648 0
HStem: 495 170
VStem: 97 194
LayerCount: 2
Fore
SplineSet
97 601 m 0
 97 630 122 665 157 665 c 0
 188 665 197 648 291 534 c 1
 263 495 l 1
 124 554 97 559 97 601 c 0
EndSplineSet
EndChar

StartChar: acute
Encoding: 180 180 10
Width: 500
Flags: HW
TeX: 648 0
HStem: 495 170
VStem: 207 194
LayerCount: 2
Fore
SplineSet
207 534 m 1
 292 638 308 665 341 665 c 0
 374 665 401 632 401 601 c 0
 401 559 373 554 235 495 c 1
 207 534 l 1
EndSplineSet
EndChar

StartChar: circumflex
Encoding: 710 710 11
Width: 500
Flags: HW
TeX: 648 0
HStem: 475 183
VStem: 108 284
LayerCount: 2
Fore
SplineSet
108 510 m 1
 249 658 l 1
 250 658 l 1
 392 509 l 1
 358 475 l 1
 250 576 l 1
 249 576 l 1
 142 475 l 1
 108 510 l 1
EndSplineSet
EndChar

StartChar: tilde
Encoding: 732 732 12
Width: 500
Flags: HW
TeX: 648 0
HStem: 587 76<238.008 364.282> 618 76<134.718 260.992>
LayerCount: 2
Fore
SplineSet
83 609 m 1
 126 664 143 694 188 694 c 0x40
 236 694 277 663 325 663 c 0x80
 354 663 368 674 388 694 c 1x40
 416 672 l 1
 373 617 356 587 311 587 c 0x80
 263 587 222 618 174 618 c 0x40
 145 618 131 607 111 587 c 1x80
 83 609 l 1
EndSplineSet
EndChar

StartChar: dieresis
Encoding: 168 168 13
Width: 500
Flags: HW
TeX: 690 0
HStem: 530 156<99.3739 205.012 293.464 399.012>
VStem: 74 156<555.36 661.012> 269 155<554.395 661.208>
LayerCount: 2
Fore
SplineSet
74 608 m 0
 74 649 107 686 152 686 c 0
 193 686 230 654 230 608 c 0
 230 561 191 530 152 530 c 0
 112 530 74 563 74 608 c 0
269 608 m 0
 269 647 300 686 346 686 c 0
 387 686 424 653 424 608 c 0
 424 565 389 530 346 530 c 0
 305 530 269 562 269 608 c 0
EndSplineSet
EndChar

StartChar: ring
Encoding: 730 730 15
Width: 755
Flags: HW
TeX: 648 0
HStem: 487 35<326.05 427.462> 626 35<326.432 428.274>
VStem: 270 48<528.595 620.075> 436 48<527.955 619.723>
LayerCount: 2
Fore
SplineSet
270 574 m 0
 270 624 310 661 377 661 c 0
 441 661 484 626 484 574 c 0
 484 524 444 487 377 487 c 0
 313 487 270 522 270 574 c 0
318 575 m 0
 318 545 324 522 375 522 c 0
 423 522 436 536 436 574 c 0
 436 606 430 626 379 626 c 0
 335 626 318 616 318 575 c 0
EndSplineSet
EndChar

StartChar: caron
Encoding: 711 711 16
Width: 500
Flags: HW
TeX: 648 0
HStem: 470 193
VStem: 101 296
LayerCount: 2
Fore
SplineSet
101 643 m 1
 120 663 l 1
 121 663 l 1
 249 575 l 1
 250 575 l 1
 377 663 l 1
 379 663 l 1
 397 643 l 1
 250 470 l 1
 249 470 l 1
 101 643 l 1
EndSplineSet
EndChar

StartChar: breve
Encoding: 728 728 17
Width: 500
Flags: HW
TeX: 648 0
HStem: 494 62<173.547 325.48> 633 20G<92 131 367.5 406>
VStem: 92 36<605.162 653> 370 36<605.162 653>
LayerCount: 2
Fore
SplineSet
92 653 m 1
 128 653 l 1
 134 573 213 556 249 556 c 0
 302 556 365 585 370 653 c 1
 406 653 l 1
 404 553 326 494 249 494 c 0
 169 494 95 553 92 653 c 1
EndSplineSet
EndChar

StartChar: macron
Encoding: 175 175 18
Width: 500
Flags: HW
TeX: 690 0
HStem: 645 52<69 429>
LayerCount: 2
Fore
SplineSet
69 645 m 1
 69 697 l 1
 429 697 l 1
 429 645 l 1
 69 645 l 1
EndSplineSet
EndChar

StartChar: dotaccent
Encoding: 729 729 19
Width: 278
Flags: HW
TeX: 690 0
HStem: 539 155<98.395 205.012>
VStem: 74 156<563.375 669.208>
LayerCount: 2
Fore
SplineSet
74 617 m 0
 74 656 106 694 152 694 c 0
 193 694 230 661 230 616 c 0
 230 577 198 539 152 539 c 0
 105 539 74 578 74 617 c 0
EndSplineSet
EndChar

StartChar: cedilla
Encoding: 184 184 20
Width: 444
Flags: HW
TeX: 0 170
HStem: -199 36<81 224.619> -60 60<164 233.888>
VStem: 247 114<-143.8 -75.7506>
LayerCount: 2
Fore
SplineSet
81 -163 m 1
 91 -163 l 2
 186 -163 247 -154 247 -112 c 0
 247 -91 231 -62 164 -60 c 1
 164 0 l 1
 278 0 l 1
 278 -32 l 1
 289 -34 361 -48 361 -111 c 0
 361 -182 273 -199 81 -199 c 1
 81 -163 l 1
EndSplineSet
EndChar

StartChar: ogonek
Encoding: 731 731 21
Width: 278
Flags: HW
TeX: 0 194
HStem: -207 72<57.5 163.243>
VStem: -13 118<-132.784 -71.7131>
LayerCount: 2
Fore
SplineSet
-13 -125 m 0
 -13 -37 114 -29 178 28 c 1
 195 0 l 1
 147 -50 105 -86 105 -110 c 0
 105 -120 116 -135 137 -135 c 0
 149 -135 174 -130 199 -92 c 1
 229 -113 l 1
 207 -155 159 -207 90 -207 c 0
 25 -207 -13 -162 -13 -125 c 0
EndSplineSet
EndChar

StartChar: guilsinglleft
Encoding: 8249 8249 23
Width: 444
Flags: HW
TeX: 472 0
HStem: 1 21G<307.5 317.5>
VStem: 291 40<1.25461 54.298 418.336 471.745>
LayerCount: 2
Fore
SplineSet
112 236 m 0
 112 258 212 295 291 453 c 0
 296 462 301 472 314 472 c 2
 315 472 l 2
 319 472 331 471 331 456 c 0
 331 438 294 327 227 236 c 1
 288 156 331 37 331 17 c 0
 331 4 321 1 314 1 c 0
 301 1 295 11 291 20 c 0
 213 176 112 215 112 236 c 0
EndSplineSet
EndChar

StartChar: guilsinglright
Encoding: 8250 8250 24
Width: 444
Flags: HW
TeX: 472 0
HStem: 1 21G<124.5 134.5>
VStem: 112 218
LayerCount: 2
Fore
SplineSet
112 17 m 0
 112 35 148 145 215 236 c 1
 154 316 112 435 112 456 c 0
 112 469 121 472 128 472 c 0
 141 472 147 462 151 453 c 0
 229 297 330 258 330 236 c 0
 330 212 239 189 151 20 c 0
 147 11 141 1 128 1 c 0
 121 1 112 4 112 17 c 0
EndSplineSet
EndChar

StartChar: quotedblleft
Encoding: 8220 8220 25
Width: 378
Flags: HW
TeX: 690 0
HStem: 344 155<8.96484 117.5 263.965 372.5> 672 20G<76.5 89.5 331.5 344.5>
VStem: -30 170<385.992 475.157> 225 170<385.992 475.157>
LayerCount: 2
Fore
SplineSet
-30 469 m 0
 -30 601 67 692 86 692 c 0
 93 692 105 685 105 674 c 0
 105 654 14 611 7 478 c 1
 24 492 40 499 62 499 c 0
 106 499 140 467 140 422 c 0
 140 380 110 344 63 344 c 0
 7 344 -30 397 -30 469 c 0
225 469 m 0
 225 601 322 692 341 692 c 0
 348 692 360 685 360 674 c 0
 360 654 269 611 262 478 c 1
 279 492 295 499 317 499 c 0
 361 499 395 467 395 422 c 0
 395 380 365 344 318 344 c 0
 262 344 225 397 225 469 c 0
EndSplineSet
EndChar

StartChar: quotedblright
Encoding: 8221 8221 26
Width: 378
Flags: HW
TeX: 690 0
HStem: 538 156<7.82852 114.596 262.829 369.596>
VStem: -16 170<561.843 651.032> 239 170<561.843 651.032>
LayerCount: 2
Fore
SplineSet
-16 616 m 0
 -16 658 14 694 61 694 c 0
 116 694 154 639 154 568 c 0
 154 436 57 346 38 346 c 0
 31 346 19 353 19 364 c 0
 19 384 110 427 117 560 c 1
 100 546 84 538 62 538 c 0
 18 538 -16 571 -16 616 c 0
239 616 m 0
 239 658 269 694 316 694 c 0
 371 694 409 639 409 568 c 0
 409 436 312 346 293 346 c 0
 286 346 274 353 274 364 c 0
 274 384 365 427 372 560 c 1
 355 546 339 538 317 538 c 0
 273 538 239 571 239 616 c 0
EndSplineSet
EndChar

StartChar: endash
Encoding: 8211 8211 30
Width: 500
Flags: HW
TeX: 444 0
ItalicCorrection: 27
HStem: 256 36<0 499 0 499>
VStem: 0 499<256 292 256 292>
LayerCount: 2
Fore
SplineSet
0 256 m 1
 0 292 l 1
 499 292 l 1
 499 256 l 1
 0 256 l 1
EndSplineSet
EndChar

StartChar: emdash
Encoding: 8212 8212 31
Width: 1000
Flags: HW
TeX: 444 0
ItalicCorrection: 27
HStem: 256 36<0 999 0 999>
VStem: 0 999<256 292 256 292>
LayerCount: 2
Fore
SplineSet
0 256 m 1
 0 292 l 1
 999 292 l 1
 999 256 l 1
 0 256 l 1
EndSplineSet
Substitution2: "Cyrillic substitutions subtable" emdash.cyr
AlternateSubs2: "Cyrillic alternatives subtable" emdash.cyr
EndChar

StartChar: dotlessi
Encoding: 305 305 33
Width: 277
Flags: HW
TeX: 444 0
HStem: 0 47<26 95> 395 55
VStem: 95 108<47 356 356 375.5>
AnchorPoint: "below" 149 0 basechar 0
AnchorPoint: "above" 149 453 basechar 0
LayerCount: 2
Fore
SplineSet
26 0 m 1
 26 47 l 1
 95 47 l 1
 95 356 l 2
 95 395 88 395 29 395 c 1
 29 442 l 1
 203 450 l 1
 203 47 l 1
 265 47 l 1
 265 0 l 1
 229 1 178 3 148 3 c 0
 106 3 57 1 26 0 c 1
EndSplineSet
EndChar

StartChar: dotlessj
Encoding: 567 567 34
Width: 305
Flags: HW
TeX: 444 194
HStem: -200 36<62 97.5 62 112.5> 395 55
VStem: -62 125<-112.5 -91> 134 108<-44 -42 -42 355 355 365.5>
AnchorPoint: "below" 104 -194 basechar 0
AnchorPoint: "above" 188 453 basechar 0
LayerCount: 2
Fore
SplineSet
-62 -109 m 0
 -62 -73 -37 -46 1 -46 c 0
 37 -46 63 -73 63 -108 c 0
 63 -117 61 -143 37 -159 c 1
 43 -161 55 -164 69 -164 c 0
 126 -164 134 -85 134 -44 c 2
 134 355 l 2
 134 376 134 389 112 393 c 0
 97 395 75 395 58 395 c 1
 58 442 l 1
 242 450 l 1
 242 -42 l 2
 242 -145 154 -200 71 -200 c 0
 1 -200 -62 -168 -62 -109 c 0
EndSplineSet
EndChar

StartChar: ff
Encoding: 64256 64256 35
Width: 583
Flags: HW
TeX: 690 0
ItalicCorrection: 111
HStem: 3 45<15 85 193 263 292 362 470 557> 397 48<27 85 193 362 470 564> 663 36<245.063 368.779 503.141 564.258>
VStem: 85 108<48 397 445 615.426> 362 108<48 397 445 580.585> 542 122<564.853 660.809>
LayerCount: 2
Fore
SplineSet
15 0 m 1
 15 48 l 1
 85 48 l 1
 85 397 l 1
 27 397 l 1
 27 445 l 1
 85 445 l 1
 85 525 l 2
 85 531 84 535 84 541 c 0
 84 604 127 699 328 699 c 0
 396 699 416 671 430 671 c 0
 443 671 476 699 557 699 c 0
 636 699 664 648 664 613 c 0
 664 575 635 551 603 551 c 0
 569 551 542 575 542 612 c 0
 542 638 554 652 566 663 c 1
 559 663 l 2
 521 663 465 647 465 541 c 2
 465 445 l 1
 564 445 l 1
 564 397 l 1
 470 397 l 1
 470 48 l 1
 557 48 l 1
 557 0 l 1
 510 2 464 3 417 3 c 0
 367 3 329 2 292 0 c 1
 292 48 l 1
 362 48 l 1
 362 397 l 1
 193 397 l 1
 193 48 l 1
 263 48 l 1
 263 0 l 1
 227 1 191 3 143 3 c 0
 100 3 58 2 15 0 c 1
188 445 m 1
 362 445 l 1
 362 530 l 2
 362 567 338 559 338 600 c 0
 338 633 361 648 370 655 c 1
 351 661 341 663 321 663 c 0
 252 663 208 630 194 588 c 0
 188 571 188 554 188 536 c 2
 188 445 l 1
EndSplineSet
Ligature2: "Latin ligatures subtable" f f
EndChar

StartChar: fi
Encoding: 64257 64257 36
Width: 555
Flags: HW
TeX: 690 0
HStem: 0 48<15 85 193 263 292 362 470 540> 397 48<27 85 193 361.526> 434 20G<292 470> 663 37<243.561 380.016>
VStem: 85 108<48 397 445 615.901> 335 131<534.603 631.731> 362 108<48 396.782>
LayerCount: 2
Fore
SplineSet
15 0 m 1
 15 48 l 1
 85 48 l 1
 85 397 l 1
 27 397 l 1
 27 445 l 1
 85 445 l 1
 85 521 l 2
 85 528 84 535 84 542 c 0
 84 668 228 700 331 700 c 0
 426 700 466 631 466 584 c 0
 466 546 441 518 401 518 c 0
 363 518 335 546 335 583 c 0
 335 606 345 633 382 646 c 1
 367 656 350 663 322 663 c 0xdc
 264 663 188 638 188 541 c 2
 188 445 l 1
 292 445 l 1xdc
 292 449 l 1
 470 454 l 1
 470 48 l 1
 540 48 l 1
 540 0 l 1
 497 2 454 3 411 3 c 0
 363 3 328 1 292 0 c 1
 292 48 l 1
 362 48 l 1
 362 365 l 2xba
 362 389 356 397 335 397 c 2
 193 397 l 1
 193 48 l 1
 263 48 l 1
 263 0 l 1
 227 1 192 3 144 3 c 0
 101 3 58 2 15 0 c 1
EndSplineSet
Ligature2: "Latin ligatures excepting Turkic subtable" f i
EndChar

StartChar: fl
Encoding: 64258 64258 37
Width: 555
Flags: HW
TeX: 690 0
HStem: 0 48<15 85 193 263 292 362 470 540> 397 48<27 85 193 362> 663 37<243.268 357.156> 674 20G<446 470>
VStem: 85 108<48 397 445 616.573> 338 132<558.27 659.298> 362 108<48 397 445 593.273>
LayerCount: 2
Fore
SplineSet
15 0 m 1
 15 48 l 1
 85 48 l 1
 85 397 l 1
 27 397 l 1
 27 445 l 1
 85 445 l 1
 85 538 l 2
 85 554 85 570 90 585 c 0
 114 657 201 700 327 700 c 0
 374 700 390 689 406 689 c 0
 412 689 422 690 470 694 c 1
 470 48 l 1
 540 48 l 1
 540 0 l 1
 497 2 454 3 411 3 c 0
 363 3 328 1 292 0 c 1
 292 48 l 1
 362 48 l 1
 362 397 l 1xda
 193 397 l 1
 193 48 l 1
 263 48 l 1
 263 0 l 1
 227 1 192 3 144 3 c 0
 101 3 58 2 15 0 c 1
188 445 m 1
 362 445 l 1
 362 540 l 2xea
 362 581 338 570 338 612 c 0xec
 338 632 345 645 358 660 c 1
 345 662 332 663 320 663 c 0
 260 663 188 639 188 541 c 2
 188 445 l 1
EndSplineSet
Ligature2: "Latin ligatures subtable" f l
EndChar

StartChar: ffi
Encoding: 64259 64259 38
Width: 833
Flags: HW
TeX: 690 0
HStem: 0 48<15 85 193 263 293 362 471 540 570 640 748 818> 397 48<27 85 193 362 471 639.526> 434 20G<570 748> 663 37<243.69 377.262 522.674 659.365>
VStem: 85 108<48 397 445 615.489> 362 109<48 397 445 545.494> 613 131<533.903 630.176> 640 108<48 396.782>
LayerCount: 2
Fore
SplineSet
15 0 m 1
 15 48 l 1
 85 48 l 1
 85 397 l 1
 27 397 l 1
 27 445 l 1
 85 445 l 1
 85 521 l 2
 85 528 84 535 84 542 c 0
 84 667 224 700 326 700 c 0
 373 700 403 686 430 659 c 1
 431 659 l 1
 449 670 502 700 609 700 c 0
 702 700 744 633 744 584 c 0
 744 544 715 518 679 518 c 0
 643 518 613 544 613 583 c 0xde
 613 605 623 634 660 646 c 1
 645 656 628 663 600 663 c 0
 543 663 465 638 465 541 c 2
 465 445 l 1
 570 445 l 1xde
 570 449 l 1
 748 454 l 1
 748 48 l 1
 818 48 l 1
 818 0 l 1
 782 1 747 3 699 3 c 0
 656 3 613 2 570 0 c 1
 570 48 l 1
 640 48 l 1
 640 365 l 2xbd
 640 389 634 397 613 397 c 2
 471 397 l 1
 471 48 l 1
 540 48 l 1
 540 0 l 1
 504 1 469 3 421 3 c 0
 378 3 336 2 293 0 c 1
 293 48 l 1
 362 48 l 1
 362 397 l 1
 193 397 l 1
 193 48 l 1
 263 48 l 1
 263 0 l 1
 227 1 192 3 144 3 c 0
 101 3 58 2 15 0 c 1
188 445 m 1
 362 445 l 1
 362 509 l 2xdc
 362 540 330 534 330 582 c 0
 330 621 356 638 378 647 c 1
 358 658 343 663 320 663 c 0
 262 663 188 639 188 542 c 2
 188 445 l 1
EndSplineSet
Ligature2: "Latin ligatures excepting Turkic subtable" ff i
Ligature2: "Latin ligatures excepting Turkic subtable" f f i
EndChar

StartChar: ffl
Encoding: 64260 64260 39
Width: 833
Flags: HW
TeX: 690 0
HStem: 0 48<15 85 193 263 293 362 471 540 570 640 748 818> 397 48<27 85 193 362 471 640> 663 37<241.803 369.503 519.287 634.938> 674 20G<725 748>
VStem: 85 108<48 397 445 615.901> 362 109<48 397 445 581.4> 616 132<558.27 659.298> 640 108<48 397 445 593.273>
LayerCount: 2
Fore
SplineSet
15 0 m 1
 15 48 l 1
 85 48 l 1
 85 397 l 1
 27 397 l 1
 27 445 l 1
 85 445 l 1
 85 521 l 2
 85 528 84 535 84 542 c 0
 84 668 226 700 328 700 c 0
 392 700 422 674 435 662 c 1
 450 670 502 700 605 700 c 0
 651 700 668 690 683 690 c 0
 690 690 702 691 748 694 c 1
 748 48 l 1
 818 48 l 1
 818 0 l 1
 782 1 747 3 699 3 c 0
 656 3 613 2 570 0 c 1
 570 48 l 1
 640 48 l 1
 640 397 l 1xdd
 471 397 l 1
 471 48 l 1
 540 48 l 1
 540 0 l 1
 504 1 469 3 421 3 c 0
 378 3 336 2 293 0 c 1
 293 48 l 1
 362 48 l 1
 362 397 l 1
 193 397 l 1
 193 48 l 1
 263 48 l 1
 263 0 l 1
 227 1 192 3 144 3 c 0
 101 3 58 2 15 0 c 1
188 445 m 1
 362 445 l 1
 362 530 l 2
 362 566 338 559 338 600 c 0
 338 633 361 648 370 655 c 1
 351 661 340 663 321 663 c 0
 258 663 210 636 194 588 c 0
 188 571 188 554 188 536 c 2
 188 445 l 1
465 445 m 1
 640 445 l 1
 640 540 l 2xed
 640 581 616 570 616 612 c 0xee
 616 632 623 645 636 660 c 1
 623 662 610 663 598 663 c 0
 538 663 465 639 465 541 c 2
 465 445 l 1
EndSplineSet
Ligature2: "Latin ligatures subtable" ff l
Ligature2: "Latin ligatures subtable" f f l
EndChar

StartChar: uni2423
Encoding: 9251 9251 40
Width: 500
Flags: HW
TeX: 444 97
HStem: -97 112<122.716 374.647>
VStem: 41 48<88.0164 112> 409 48<88.0164 112>
LayerCount: 2
Fore
SplineSet
41 112 m 1
 89 112 l 1
 104 62 113 15 187 15 c 2
 306 15 l 2
 379 15 389 49 409 112 c 1
 457 112 l 1
 396 -97 l 1
 102 -97 l 1
 41 112 l 1
EndSplineSet
EndChar

StartChar: exclam
Encoding: 33 33 41
Width: 305
Flags: HW
TeX: 690 0
HStem: 0 155<98.395 205.012>
VStem: 74 156<24.375 130.208> 74 157<476.375 681.566> 125 54<225.296 306.167>
LayerCount: 2
Fore
SplineSet
74 634 m 0
 74 679 116 705 152 705 c 0xa0
 188 705 231 679 231 633 c 0xa0
 231 622 229 611 227 600 c 2
 179 256 l 2
 176 233 174 225 152 225 c 0
 129 225 129 236 125 265 c 2x90
 78 599 l 2
 76 610 74 623 74 634 c 0
EndSplineSet
Refer: 19 729 S 1 0 0 1 0 -539 2
EndChar

StartChar: quotedbl
Encoding: 34 34 42
Width: 500
Flags: HW
TeX: 690 0
VStem: 102 127<506.296 695.416> 270 127<506.682 695.766>
LayerCount: 2
Fore
SplineSet
102 650 m 0
 102 688 133 710 166 710 c 0
 201 710 229 686 229 650 c 0
 229 637 184 359 184 359 c 1
 147 359 l 1
 106 616 l 2
 104 627 102 639 102 650 c 0
270 650 m 0
 270 686 298 710 333 710 c 0
 368 710 397 687 397 650 c 0
 397 639 395 627 393 616 c 2
 352 359 l 1
 315 359 l 1
 315 359 270 638 270 650 c 0
EndSplineSet
EndChar

StartChar: numbersign
Encoding: 35 35 43
Width: 833
Flags: HW
TeX: 690 194
HStem: 120 37<56.016 246 294 478 525 774.988> 343 36<56.0131 306 354 538 586 774.986> 673 20G<408 421 640 653>
VStem: 167 41<-192.59 -132.938>
DStem2: 246 120 208 -159 0.261348 0.965245<-200.326 0 48.2588 230.93 278.224 597.307> 478 120 439 -159 0.26243 0.964951<-200.327 0 48.0374 230.93 278.265 597.321>
LayerCount: 2
Fore
SplineSet
56 139 m 0
 56 157 78 157 93 157 c 2
 256 157 l 1
 306 343 l 1
 84 343 l 2
 74 343 56 344 56 361 c 0
 56 379 74 379 87 379 c 2
 317 379 l 1
 320 392 324 404 327 417 c 2
 392 659 l 2
 396 674 400 693 416 693 c 0
 426 693 434 684 433 672 c 0
 432 665 357 390 354 379 c 1
 549 379 l 1
 552 392 556 404 559 417 c 2
 624 659 l 2
 628 673 632 693 648 693 c 0
 658 693 666 684 665 672 c 0
 664 665 589 390 586 379 c 1
 750 379 l 1
 772 378 775 368 775 361 c 0
 775 344 756 343 744 343 c 2
 575 343 l 1
 525 157 l 1
 748 157 l 2
 758 157 775 156 775 139 c 0
 775 121 758 120 744 120 c 2
 515 120 l 1
 512 107 508 96 505 83 c 2
 439 -159 l 2
 435 -173 432 -193 416 -193 c 0
 406 -193 398 -184 399 -172 c 0
 399 -165 475 109 478 120 c 1
 283 120 l 1
 280 107 276 96 273 83 c 2
 208 -159 l 2
 204 -173 200 -193 184 -193 c 0
 174 -193 166 -184 167 -172 c 0
 167 -165 243 109 246 120 c 1
 82 120 l 2
 75 120 56 122 56 139 c 0
294 157 m 1
 488 157 l 1
 538 343 l 1
 344 343 l 1
 294 157 l 1
EndSplineSet
EndChar

StartChar: dollar
Encoding: 36 36 44
Width: 500
Flags: HW
TeX: 749 55
HStem: -5 49<164.514 225 273 318.243> 127 125<114.799 164.931> 456 125<333.103 382.044> 650 48<175.656 225 273 338.875>
VStem: 55 125<141.878 236.707> 55 81<481.464 597.74> 225 48<-55 -2.08265 45 281 440 650 696.006 750> 318 125<470.594 565.111> 363 81<101.926 232.331>
LayerCount: 2
Fore
SplineSet
55 185 m 0
 55 239 94 252 117 252 c 0
 153 252 180 224 180 189 c 0xfa80
 180 170 172 130 114 127 c 1
 141 61 195 49 225 44 c 1
 225 294 l 1
 205 299 127 311 81 394 c 0
 61 430 55 467 55 498 c 0
 55 547 72 680 225 698 c 1
 225 750 l 1
 273 750 l 1
 273 699 l 1
 423 682 443 571 443 523 c 0
 443 470 403 456 381 456 c 0
 348 456 318 479 318 518 c 0xf7
 318 538 329 578 383 581 c 1
 359 624 326 643 273 650 c 1
 273 428 l 1
 290 424 308 419 324 412 c 0
 395 380 444 303 444 210 c 0xf280
 444 74 363 7 273 -4 c 1
 273 -55 l 1
 225 -55 l 1
 225 -5 l 1
 73 13 55 137 55 185 c 0
136 547 m 0xf6
 136 497 168 453 225 440 c 1
 225 650 l 1
 141 633 136 567 136 547 c 0xf6
273 45 m 1
 338 59 363 110 363 162 c 0xf280
 363 222 326 268 274 281 c 1
 273 245 l 1
 273 45 l 1
EndSplineSet
EndChar

StartChar: percent
Encoding: 37 37 45
Width: 833
Flags: HW
TeX: 749 55
HStem: -56 36<627 668 627 681> 311 72 611 35<435 487.5> 714 36<184 221.5 173.5 225.5>
VStem: 56 106 286 47<486 555.5 473.5 610> 499 108 729 47<83 207>
LayerCount: 2
Fore
SplineSet
56 549 m 0
 56 697 140 750 207 750 c 0
 236 750 257 740 279 721 c 0
 330 675 394 646 462 646 c 0
 526 646 588 669 635 733 c 0
 642 743 650 750 663 750 c 0
 677 750 693 739 693 719 c 0
 693 715 693 709 684 696 c 2
 198 -37 l 2
 191 -47 186 -56 170 -56 c 0
 153 -56 139 -42 139 -25 c 0
 139 -16 143 -11 150 0 c 2
 568 632 l 1
 548 623 512 611 463 611 c 0
 407 611 358 628 321 647 c 1
 333 605 333 562 333 549 c 0
 333 398 266 347 207 347 c 0
 145 347 56 394 56 549 c 0
159 548 m 0
 159 476 159 383 209 383 c 0
 241 383 286 423 286 549 c 0
 286 671 242 714 209 714 c 0
 159 714 159 622 159 548 c 0
499 146 m 0
 499 294 583 347 650 347 c 0
 709 347 776 296 776 145 c 0
 776 0 712 -56 650 -56 c 0
 588 -56 499 -9 499 146 c 0
602 145 m 0
 602 73 602 -20 652 -20 c 0
 684 -20 729 20 729 146 c 0
 729 268 685 311 652 311 c 0
 602 311 602 219 602 145 c 0
EndSplineSet
EndChar

StartChar: ampersand
Encoding: 38 38 46
Width: 777
Flags: HW
TeX: 690 0
HStem: -11 47<218.5 258.5 218.5 260 559 596> 397 47<506 511> 669 36<298.5 335>
VStem: 143 104<541.5 585.5> 361 47<559 579.5>
LayerCount: 2
Fore
SplineSet
42 137 m 0
 42 153 44 181 67 213 c 0
 72 221 103 252 122 271 c 0
 133 282 180 329 184 332 c 1
 168 371 143 448 143 528 c 0
 143 643 233 705 309 705 c 0
 383 705 408 625 408 574 c 0
 408 500 302 399 286 383 c 1
 321 297 401 195 436 153 c 1
 470 193 499 239 516 269 c 0
 524 283 583 380 583 385 c 0
 583 397 516 397 506 397 c 1
 506 444 l 1
 533 442 617 441 628 441 c 0
 655 441 695 442 727 444 c 1
 727 397 l 1
 716 397 684 397 662 394 c 0
 641 391 640 390 626 366 c 0
 620 357 606 333 603 326 c 0
 558 249 518 180 465 118 c 1
 470 112 533 36 585 36 c 0
 607 36 670 50 674 118 c 1
 721 118 l 1
 719 42 658 -11 579 -11 c 0
 510 -11 443 19 398 53 c 1
 357 21 297 -11 223 -11 c 0
 123 -11 42 53 42 137 c 0
170 174 m 0
 170 49 204 36 233 36 c 0
 284 36 328 57 362 81 c 1
 295 142 240 215 200 297 c 1
 170 258 170 197 170 174 c 0
247 565 m 0
 247 518 257 464 272 421 c 1
 347 500 361 543 361 575 c 0
 361 584 359 669 311 669 c 0
 286 669 247 647 247 565 c 0
EndSplineSet
EndChar

StartChar: quoteright
Encoding: 8217 8217 47
Width: 278
Flags: HW
TeX: 690 0
HStem: 538 156<83.8285 190.596>
VStem: 60 170<561.843 651.032>
LayerCount: 2
Fore
SplineSet
60 616 m 0
 60 658 90 694 137 694 c 0
 192 694 230 639 230 568 c 0
 230 436 133 346 114 346 c 0
 105 346 95 353 95 363 c 0
 95 384 186 426 193 560 c 1
 176 546 160 538 138 538 c 0
 94 538 60 571 60 616 c 0
EndSplineSet
EndChar

StartChar: parenleft
Encoding: 40 40 48
Width: 388
Flags: HW
TeX: 749 249
HStem: -249 21<301.5 318> 730 20<305 318>
VStem: 92 97<215 317.5>
LayerCount: 2
Fore
SplineSet
92 250 m 0
 92 385 122 561 248 699 c 0
 250 701 296 750 314 750 c 0
 322 750 332 747 332 736 c 0
 332 733 332 730 325 723 c 0
 216 594 189 419 189 250 c 0
 189 40 232 -113 322 -218 c 0
 330 -227 332 -229 332 -235 c 0
 332 -246 322 -249 314 -249 c 0
 289 -249 209 -163 168 -85 c 1
 99 50 92 180 92 250 c 0
EndSplineSet
EndChar

StartChar: parenright
Encoding: 41 41 49
Width: 388
Flags: HW
TeX: 749 249
HStem: -249 21<70 83> 730 20<70 85.5>
VStem: 199 97<187 305.5 187 374>
LayerCount: 2
Fore
SplineSet
56 -235 m 0
 56 -231 56 -229 69 -214 c 0
 174 -85 199 85 199 251 c 0
 199 497 140 632 66 719 c 0
 59 727 56 730 56 736 c 0
 56 747 66 750 74 750 c 0
 97 750 178 670 229 568 c 1
 274 475 296 361 296 250 c 0
 296 124 269 -57 140 -198 c 0
 138 -200 92 -249 74 -249 c 0
 66 -249 56 -246 56 -235 c 0
EndSplineSet
EndChar

StartChar: asterisk
Encoding: 42 42 50
Width: 500
Flags: HW
TeX: 749 0
HStem: 306 21<239 260.5> 730 20<238.5 260>
VStem: 205 89<333.5 346 710 722.5>
LayerCount: 2
Fore
SplineSet
62 443 m 0
 62 469 77 475 91 480 c 2
 212 528 l 1
 91 576 l 2
 77 581 62 587 62 613 c 0
 62 643 87 662 107 662 c 0
 119 662 124 658 135 648 c 2
 229 564 l 1
 208 691 l 2
 206 704 205 708 205 711 c 0
 205 734 227 750 250 750 c 0
 270 750 294 736 294 711 c 0
 294 709 293 706 292 698 c 2
 270 564 l 1
 364 649 l 2
 372 656 380 662 392 662 c 0
 412 662 437 643 437 613 c 0
 437 587 422 581 408 576 c 2
 287 528 l 1
 408 480 l 2
 422 475 437 469 437 443 c 0
 437 413 412 394 392 394 c 0
 380 394 375 398 364 408 c 2
 270 492 l 1
 291 365 l 2
 293 352 294 348 294 345 c 0
 294 322 272 306 249 306 c 0
 229 306 205 320 205 345 c 0
 205 347 206 350 207 358 c 2
 229 492 l 1
 135 407 l 2
 127 400 119 394 107 394 c 0
 87 394 62 413 62 443 c 0
EndSplineSet
EndChar

StartChar: plus
Encoding: 43 43 51
Width: 778
Flags: HW
TeX: 584 83
HStem: 232 36<56.0145 370 406 719.985>
VStem: 370 36<-81.9833 232 268 581.983>
LayerCount: 2
Fore
SplineSet
56 250 m 0
 56 267 76 268 88 268 c 2
 370 268 l 1
 370 544 l 2
 370 559 369 582 388 582 c 0
 404 582 406 565 406 545 c 2
 406 268 l 1
 688 268 l 2
 700 268 720 267 720 250 c 0
 720 234 702 232 690 232 c 2
 406 232 l 1
 406 -45 l 2
 406 -59 407 -82 388 -82 c 0
 371 -82 370 -63 370 -51 c 2
 370 232 l 1
 86 232 l 2
 74 232 56 234 56 250 c 0
EndSplineSet
EndChar

StartChar: comma
Encoding: 44 44 52
Width: 277
Flags: HW
TeX: 155 194
HStem: -194 21<110 121.5> 0 156<115 151.5>
VStem: 61 167<58 65 -37 99.5>
LayerCount: 2
Fore
SplineSet
61 78 m 0
 61 121 92 156 138 156 c 0
 196 156 228 99 228 31 c 0
 228 -105 129 -194 114 -194 c 0
 106 -194 95 -183 95 -174 c 0
 95 -168 97 -166 107 -157 c 0
 132 -135 186 -77 191 18 c 1
 183 10 164 0 139 0 c 0
 88 0 61 38 61 78 c 0
EndSplineSet
EndChar

StartChar: hyphen
Encoding: 45 45 53
Width: 333
Flags: HW
TeX: 444 0
HStem: 174 97<10 276>
VStem: 10 266<174 271>
LayerCount: 2
Fore
SplineSet
10 174 m 1
 10 271 l 1
 276 271 l 1
 276 174 l 1
 10 174 l 1
EndSplineSet
EndChar

StartChar: period
Encoding: 46 46 54
Width: 278
Flags: HW
TeX: 155 0
HStem: 0 156<84.9875 191.012>
VStem: 60 156<24.7918 130.64>
LayerCount: 2
Fore
SplineSet
60 78 m 0
 60 125 100 156 138 156 c 0
 179 156 216 123 216 78 c 0
 216 39 184 0 138 0 c 0
 97 0 60 33 60 78 c 0
EndSplineSet
EndChar

StartChar: slash
Encoding: 47 47 55
Width: 500
Flags: HW
TeX: 749 249
DStem2: 66 -199 97 -221 0.343124 0.93929<-32.2843 1003.1>
LayerCount: 2
Fore
SplineSet
56 -230 m 0
 56 -224 59 -218 66 -199 c 2
 402 722 l 2
 406 732 412 749 426 749 c 0
 436 749 442 739 442 732 c 0
 442 723 439 715 436 707 c 2
 97 -221 l 2
 93 -232 87 -249 73 -249 c 0
 64 -249 56 -240 56 -230 c 0
EndSplineSet
EndChar

StartChar: zero
Encoding: 48 48 56
Width: 500
Flags: HW
TeX: 648 0
HStem: -11 36<240.5 260 240.5 354.5> 619 36<244 262>
VStem: 39 128<313.5 352 313.5 367.5> 332 128<298 348.5>
LayerCount: 2
Fore
SplineSet
39 319 m 0
 39 416 39 655 250 655 c 0
 460 655 460 414 460 319 c 0
 460 222 460 -11 249 -11 c 0
 39 -11 39 223 39 319 c 0
167 330 m 0
 167 297 167 182 171 131 c 0
 177 36 231 25 250 25 c 0
 270 25 321 39 328 126 c 0
 332 174 332 265 332 331 c 0
 332 366 332 476 328 521 c 0
 322 602 275 619 249 619 c 0
 239 619 178 616 170 520 c 0
 167 477 167 374 167 330 c 0
EndSplineSet
Substitution2: "LGC old numerals subtable" zerooldstyle
EndChar

StartChar: one
Encoding: 49 49 57
Width: 500
Flags: HW
TeX: 648 0
HStem: 0 47<83 195> 544 47<69 82> 635 20<275 292>
VStem: 195 119<47 561 561 561>
LayerCount: 2
Fore
SplineSet
69 544 m 1
 69 591 l 1
 104 591 209 591 275 655 c 1
 309 655 314 655 314 623 c 2
 314 47 l 1
 430 47 l 1
 430 0 l 1
 392 3 298 3 255 3 c 0
 212 3 121 3 83 0 c 1
 83 47 l 1
 195 47 l 1
 195 561 l 1
 142 544 95 544 69 544 c 1
EndSplineSet
Substitution2: "LGC old numerals subtable" oneoldstyle
EndChar

StartChar: two
Encoding: 50 50 58
Width: 500
Flags: HW
TeX: 648 0
HStem: 0 125<169 289 289 289.5 169 418 50 289> 429 143 608 47<206.5 257.5>
VStem: 50 144<476 521.5 476 545> 311 138<440.5 486.5>
LayerCount: 2
Fore
SplineSet
50 0 m 1
 50 18 l 2
 50 37 50 39 60 51 c 2
 218 249 l 2
 292 341 311 410 311 466 c 0
 311 507 300 608 215 608 c 0
 198 608 160 603 133 573 c 1
 168 567 194 542 194 501 c 0
 194 451 154 429 122 429 c 0
 98 429 50 444 50 503 c 0
 50 587 131 655 237 655 c 0
 359 655 449 576 449 466 c 0
 449 415 428 368 379 318 c 0
 359 299 307 255 287 236 c 0
 260 212 196 149 169 125 c 1
 289 125 l 2
 290 125 375 125 380 133 c 0
 392 149 399 198 402 222 c 1
 449 222 l 1
 418 0 l 1
 50 0 l 1
EndSplineSet
Substitution2: "LGC old numerals subtable" twooldstyle
EndChar

StartChar: three
Encoding: 51 51 59
Width: 500
Flags: HW
TeX: 648 0
HStem: -11 43<212.5 266.5 212.5 306> 64 153 330 38 441 139 616 39<222 261>
VStem: 42 153<117.5 163.5 117.5 164.5> 304 153<154 209.5 128 218.5>
LayerCount: 2
Fore
SplineSet
42 139 m 0
 42 190 77 217 119 217 c 0
 163 217 195 186 195 141 c 0
 195 94 162 71 132 65 c 1
 157 45 196 32 229 32 c 0
 304 32 304 127 304 181 c 0
 304 256 300 330 221 330 c 2
 195 330 l 2
 177 330 167 330 167 348 c 0
 167 365 174 366 199 368 c 0
 236 370 260 372 278 417 c 1
 293 458 293 513 293 520 c 0
 293 554 292 616 230 616 c 0
 214 616 175 612 144 579 c 1
 199 573 208 531 208 510 c 0
 208 473 183 441 138 441 c 0
 102 441 69 465 69 512 c 0
 69 582 131 655 236 655 c 0
 356 655 430 597 430 516 c 0
 430 425 355 371 304 351 c 1
 427 323 457 239 457 180 c 0
 457 76 378 -11 234 -11 c 0
 121 -11 42 58 42 139 c 0
EndSplineSet
Substitution2: "LGC old numerals subtable" threeoldstyle
EndChar

StartChar: four
Encoding: 52 52 60
Width: 500
Flags: HW
TeX: 648 0
HStem: 0 47<173 270> 156 47<77 270 28 28 395 471> 636 20<358 380>
VStem: 281 114<203 493 493 493>
LayerCount: 2
Fore
SplineSet
28 156 m 1
 28 203 l 1
 335 641 l 2
 345 656 350 656 366 656 c 0
 394 656 395 649 395 624 c 2
 395 203 l 1
 471 203 l 1
 471 156 l 1
 395 156 l 1
 395 47 l 1
 471 47 l 1
 471 0 l 1
 432 3 370 3 329 3 c 0
 290 3 208 3 173 0 c 1
 173 47 l 1
 270 47 l 1
 270 156 l 1
 28 156 l 1
77 203 m 1
 281 203 l 1
 281 493 l 1
 77 203 l 1
EndSplineSet
Substitution2: "LGC old numerals subtable" fouroldstyle
EndChar

StartChar: five
Encoding: 53 53 61
Width: 500
Flags: HW
TeX: 648 0
HStem: -11 43<198.5 231.5 198.5 285> 96 133 373 36<238.5 275.5> 499 124<219.5 263> 635 20<97.5 106.5 394.5 402>
VStem: 90 53<378 504 378 626> 307 142<184.5 254>
LayerCount: 2
Fore
SplineSet
50 159 m 0
 50 220 102 229 117 229 c 0
 141 229 184 214 184 161 c 0
 184 126 162 96 115 94 c 1
 139 51 181 32 216 32 c 0
 247 32 283 48 296 87 c 0
 307 117 307 161 307 208 c 0
 307 300 307 373 244 373 c 0
 175 373 144 331 133 315 c 0
 128 308 124 305 113 305 c 0
 90 305 90 318 90 338 c 2
 90 626 l 2
 90 642 90 655 105 655 c 0
 108 655 111 653 117 651 c 0
 145 639 189 623 250 623 c 0
 291 623 337 631 383 650 c 1
 391 655 393 655 396 655 c 0
 408 655 410 644 410 637 c 0
 410 611 331 499 195 499 c 0
 165 499 159 500 143 504 c 1
 143 378 l 1
 187 408 229 409 248 409 c 0
 367 409 449 327 449 202 c 0
 449 68 350 -11 220 -11 c 0
 111 -11 50 80 50 159 c 0
EndSplineSet
Substitution2: "LGC old numerals subtable" fiveoldstyle
EndChar

StartChar: six
Encoding: 54 54 62
Width: 500
Flags: HW
TeX: 648 0
HStem: -11 43<234.5 269.5 234.5 307.5> 382 36<256.5 274.5> 466 125 616 39<293 315.5>
VStem: 42 137<187 457> 318 139
LayerCount: 2
Fore
SplineSet
42 316 m 0
 42 598 214 655 303 655 c 0
 400 655 432 585 432 531 c 0
 432 489 405 466 369 466 c 0
 330 466 307 494 307 528 c 0
 307 569 338 588 365 591 c 1
 350 609 326 616 305 616 c 0
 281 616 203 605 185 483 c 0
 178 435 178 374 178 369 c 1
 205 418 250 418 263 418 c 0
 363 418 457 352 457 205 c 0
 457 60 362 -11 253 -11 c 0
 42 -11 42 250 42 316 c 0
179 204 m 0
 179 170 179 109 187 88 c 0
 197 60 218 32 251 32 c 0
 288 32 313 55 318 92 c 1
 321 122 321 171 321 209 c 0
 321 232 321 298 318 324 c 0
 314 355 293 382 256 382 c 0
 179 382 179 263 179 204 c 0
EndSplineSet
Substitution2: "LGC old numerals subtable" sixoldstyle
EndChar

StartChar: seven
Encoding: 55 55 63
Width: 500
Flags: HW
TeX: 648 0
HStem: -11 21<218.5 230> 519 125<216 485 267 357> 656 20<91 138 138 138>
VStem: 160 125<27 60 60 113 27 157.5>
LayerCount: 2
Fore
SplineSet
56 422 m 1
 91 676 l 1
 138 676 l 1
 141 661 143 653 187 648 c 0
 213 645 256 644 267 644 c 2
 485 644 l 1
 485 617 l 2
 485 611 485 609 476 598 c 2
 340 413 l 2
 291 347 285 188 285 113 c 2
 285 60 l 2
 285 -6 238 -11 222 -11 c 0
 215 -11 160 -11 160 60 c 0
 160 255 285 423 288 427 c 2
 357 519 l 1
 223 519 l 2
 209 519 131 519 126 511 c 1
 113 495 108 456 103 422 c 1
 56 422 l 1
EndSplineSet
Substitution2: "LGC old numerals subtable" sevenoldstyle
EndChar

StartChar: eight
Encoding: 56 56 64
Width: 500
Flags: HW
TeX: 648 0
HStem: -11 43<210 284.5 210 317> 616 39<220.5 286>
VStem: 42 86<126 204 126 207.5> 371 86<134.5 159>
LayerCount: 2
Fore
SplineSet
42 162 m 0
 42 253 102 297 151 327 c 1
 93 365 69 422 69 478 c 0
 69 573 130 655 251 655 c 0
 353 655 430 602 430 507 c 0
 430 448 400 409 344 371 c 1
 379 349 457 300 457 189 c 0
 457 80 386 -11 248 -11 c 0
 133 -11 42 49 42 162 c 0
128 163 m 0
 128 89 169 32 251 32 c 0
 318 32 371 67 371 133 c 0
 371 185 337 207 299 232 c 0
 252 262 250 262 193 299 c 1
 176 285 128 245 128 163 c 0
144 538 m 0
 144 500 174 481 185 474 c 2
 303 398 l 1
 322 413 355 449 355 507 c 0
 355 562 324 616 248 616 c 0
 193 616 144 591 144 538 c 0
EndSplineSet
Substitution2: "LGC old numerals subtable" eightoldstyle
EndChar

StartChar: nine
Encoding: 57 57 65
Width: 500
Flags: HW
TeX: 648 0
HStem: -11 43<201.5 230 201.5 252> 55 123 227 36<223.5 244> 616 39<230 271>
VStem: 42 136<427 459 427 473> 321 136<188.5 491.5>
LayerCount: 2
Fore
SplineSet
42 440 m 0
 42 506 56 552 101 596 c 0
 133 628 172 655 251 655 c 0
 457 655 457 396 457 330 c 0
 457 47 296 -11 208 -11 c 0
 112 -11 67 48 67 113 c 0
 67 155 94 178 130 178 c 0
 169 178 192 150 192 116 c 0
 192 81 169 59 140 54 c 1
 163 33 197 32 206 32 c 0
 254 32 282 67 293 85 c 0
 308 112 314 138 318 198 c 0
 320 224 320 250 321 276 c 1
 296 228 252 227 236 227 c 0
 134 227 42 296 42 440 c 0
178 435 m 0
 178 419 178 346 181 320 c 0
 185 292 204 263 243 263 c 0
 311 263 321 353 321 446 c 0
 321 537 315 554 314 557 c 0
 306 582 289 616 253 616 c 0
 207 616 188 583 184 562 c 0
 178 535 178 483 178 435 c 0
EndSplineSet
Substitution2: "LGC old numerals subtable" nineoldstyle
EndChar

StartChar: colon
Encoding: 58 58 66
Width: 277
Flags: HW
TeX: 444 0
HStem: 0 156<117.5 160.5> 288 156<117.5 160.5>
VStem: 61 156<56.5 99.5 344.5 387.5>
LayerCount: 2
Fore
SplineSet
61 78 m 0
 61 121 96 156 139 156 c 0
 182 156 217 121 217 78 c 0
 217 35 182 0 139 0 c 0
 96 0 61 35 61 78 c 0
61 366 m 0
 61 409 96 444 139 444 c 0
 182 444 217 409 217 366 c 0
 217 323 182 288 139 288 c 0
 96 288 61 323 61 366 c 0
EndSplineSet
EndChar

StartChar: less
Encoding: 60 60 68
Width: 778
Flags: HW
TeX: 584 85
DStem2: 140 250 104 227 0.882801 -0.469747<0 623.652> 110 275 140 250 0.882801 0.469747<14.7403 638.006>
LayerCount: 2
Fore
SplineSet
84 250 m 0
 84 264 100 269 110 275 c 2
 655 565 l 2
 661 568 668 572 675 572 c 0
 683 572 692 565 692 555 c 0
 692 547 686 541 675 535 c 2
 140 250 l 1
 166 237 191 223 217 209 c 2
 658 -26 l 2
 681 -38 692 -43 692 -55 c 0
 692 -65 684 -73 675 -73 c 0
 666 -73 657 -67 649 -63 c 2
 104 227 l 2
 95 232 84 239 84 250 c 0
EndSplineSet
EndChar

StartChar: equal
Encoding: 61 61 69
Width: 778
Flags: HW
TeX: 391 -108
HStem: 120 37<56.0122 719.988> 343 36<56.0116 719.985>
LayerCount: 2
Fore
SplineSet
56 139 m 0
 56 154 69 157 85 157 c 2
 691 157 l 2
 705 157 720 155 720 139 c 0
 720 123 704 120 695 120 c 2
 84 120 l 2
 60 120 56 132 56 139 c 0
56 361 m 0
 56 377 72 379 85 379 c 2
 691 379 l 2
 699 379 720 379 720 361 c 0
 720 346 707 343 695 343 c 2
 84 343 l 2
 60 343 56 354 56 361 c 0
EndSplineSet
EndChar

StartChar: greater
Encoding: 62 62 70
Width: 778
Flags: HW
TeX: 584 85
DStem2: 128 562 118 526 0.882801 -0.469747<-27.2758 595.907> 118 -26 122 -66 0.882801 0.469747<-35.9119 587.824>
LayerCount: 2
Fore
SplineSet
85 -55 m 0
 85 -43 95 -38 118 -26 c 2
 637 250 l 1
 611 263 585 276 560 290 c 2
 118 526 l 2
 93 539 85 543 85 555 c 0
 85 565 93 572 102 572 c 0
 111 572 120 566 128 562 c 2
 673 272 l 2
 682 267 692 261 692 250 c 0
 692 236 677 230 667 224 c 2
 122 -66 l 2
 116 -69 109 -73 102 -73 c 0
 94 -73 85 -65 85 -55 c 0
EndSplineSet
EndChar

StartChar: question
Encoding: 63 63 71
Width: 472
Flags: HW
TeX: 690 0
HStem: 0 156<200.5 243.5> 226 21<210.5 234> 509 122 664 36<215 244 171 254.5>
VStem: 56 125<551.5 588.5 551.5 604.5> 199 47<253 256 256 285 244 294 244 310.5> 287 128<557.5 606.5>
LayerCount: 2
Fore
SplineSet
56 573 m 0
 56 636 114 700 228 700 c 0
 260 700 415 700 415 571 c 0
 415 544 406 503 363 474 c 0
 281 418 246 353 246 285 c 2
 246 256 l 2
 246 232 246 226 222 226 c 0
 199 226 199 231 199 253 c 2
 199 294 l 2
 199 327 205 405 265 494 c 0
 280 515 287 526 287 579 c 0
 287 634 287 664 222 664 c 0
 208 664 166 662 133 633 c 1
 160 626 181 605 181 572 c 0
 181 531 150 509 118 509 c 0
 93 509 56 525 56 573 c 0
144 78 m 0
 144 121 179 156 222 156 c 0
 265 156 300 121 300 78 c 0
 300 35 265 0 222 0 c 0
 179 0 144 35 144 78 c 0
EndSplineSet
EndChar

StartChar: at
Encoding: 64 64 72
Width: 777
Flags: HW
TeX: 690 0
HStem: -6 36<304 413> 128 36<367.5 407 367.5 407.5 601 642> 530 36<367.5 404.5> 664 36<310 421>
VStem: 56 47<249 452 249 459> 189 114<284 410 284 420.5> 474 114<214 221 221 453> 674 47<292 356>
LayerCount: 2
Fore
SplineSet
56 347 m 0
 56 571 199 700 388 700 c 0
 568 700 721 583 721 343 c 0
 721 209 691 128 605 128 c 0
 586 128 526 129 491 168 c 1
 463 143 428 128 387 128 c 0
 284 128 189 199 189 347 c 0
 189 494 283 566 387 566 c 0
 434 566 491 545 524 482 c 1
 558 482 l 2
 587 482 588 480 588 453 c 2
 588 221 l 2
 588 207 588 164 614 164 c 0
 670 164 674 252 674 332 c 0
 674 380 674 487 600 573 c 0
 540 643 454 664 388 664 c 0
 232 664 103 557 103 347 c 0
 103 151 217 30 391 30 c 0
 462 30 546 44 638 86 c 0
 651 93 653 93 669 93 c 2
 693 93 l 2
 708 93 721 93 721 79 c 0
 721 74 718 70 718 69 c 0
 665 40 606 23 546 11 c 0
 485 -2 434 -6 392 -6 c 0
 182 -6 56 139 56 347 c 0
303 347 m 0
 303 221 345 164 390 164 c 0
 424 164 453 184 474 211 c 1
 474 453 l 2
 474 468 474 471 477 478 c 1
 453 514 419 530 390 530 c 0
 345 530 303 473 303 347 c 0
EndSplineSet
EndChar

StartChar: A
Encoding: 65 65 73
Width: 755
Flags: HW
TeX: 690 0
HStem: 0 47<35 42.5> 182 47<240 426 240 443 224 426> 678 20<369 387>
AnchorPoint: "ogonek" 555 0 basechar 0
AnchorPoint: "below" 378 0 basechar 0
AnchorPoint: "above" 378 697 basechar 0
LayerCount: 2
Fore
SplineSet
35 0 m 1
 35 47 l 1
 50 47 73 47 93 49 c 0
 122 52 123 55 128 70 c 2
 340 672 l 2
 349 698 360 698 378 698 c 0
 396 698 406 697 415 672 c 2
 635 47 l 1
 720 47 l 1
 720 0 l 1
 684 3 609 3 570 3 c 0
 530 3 443 3 407 0 c 1
 407 47 l 1
 490 47 l 1
 443 182 l 1
 224 182 l 1
 185 71 l 2
 182 62 181 60 181 59 c 0
 181 47 251 47 259 47 c 1
 259 0 l 1
 235 1 183 3 141 3 c 0
 104 3 64 1 35 0 c 1
240 229 m 1
 426 229 l 1
 333 493 l 1
 240 229 l 1
EndSplineSet
EndChar

StartChar: B
Encoding: 66 66 74
Width: 711
Flags: HW
TeX: 690 0
HStem: 0 47<34 128 259 401 401 409.5 34 128> 339 36<259 376 376 411 259 376> 639 47<34 128 34 412 259 259 259 399>
VStem: 128 131<47 339 375 639> 485 142<477 558.5 477 576.5>
AnchorPoint: "below" 322 0 basechar 0
AnchorPoint: "above" 322 697 basechar 0
LayerCount: 2
Fore
SplineSet
34 0 m 1
 34 47 l 1
 128 47 l 1
 128 639 l 1
 34 639 l 1
 34 686 l 1
 412 686 l 2
 557 686 627 603 627 514 c 0
 627 440 575 378 479 359 c 1
 597 344 654 270 654 186 c 0
 654 89 585 0 438 0 c 2
 34 0 l 1
259 47 m 1
 401 47 l 2
 418 47 458 47 485 92 c 0
 498 114 507 145 507 188 c 0
 507 197 507 252 486 292 c 1
 463 339 431 339 411 339 c 2
 259 339 l 1
 259 47 l 1
259 375 m 1
 376 375 l 2
 457 375 485 440 485 514 c 0
 485 639 417 639 399 639 c 2
 259 639 l 1
 259 375 l 1
EndSplineSet
EndChar

StartChar: C
Encoding: 67 67 75
Width: 722
Flags: HW
TeX: 690 0
HStem: -11 47<392.5 471 392.5 489.5> 650 47<404.5 440 309 466.5>
VStem: 56 153<297.5 375 297.5 456>
AnchorPoint: "below" 408 0 basechar 0
AnchorPoint: "above" 407 697 basechar 0
LayerCount: 2
Fore
SplineSet
56 343 m 0
 56 569 211 697 407 697 c 0
 473 697 524 675 570 635 c 1
 628 688 l 2
 636 695 638 697 647 697 c 0
 665 697 665 688 665 669 c 2
 665 454 l 2
 665 428 664 426 638 426 c 0
 621 426 614 426 612 442 c 0
 591 588 507 650 426 650 c 0
 383 650 306 637 256 568 c 0
 209 503 209 407 209 343 c 0
 209 252 215 187 250 128 c 0
 287 67 357 36 428 36 c 0
 514 36 611 99 618 231 c 0
 619 248 628 248 641 248 c 0
 658 248 665 247 665 227 c 0
 665 120 571 -11 408 -11 c 0
 207 -11 56 120 56 343 c 0
EndSplineSet
EndChar

StartChar: D
Encoding: 68 68 76
Width: 766
Flags: HW
TeX: 690 0
HStem: 0 47<34 128 264 365 365 401 34 128> 639 47<34 128 34 406 264 264 264 364>
VStem: 128 136<47 639> 563 147<284.5 392.5>
AnchorPoint: "below" 350 0 basechar 0
AnchorPoint: "above" 350 697 basechar 0
LayerCount: 2
Fore
SplineSet
34 0 m 1
 34 47 l 1
 128 47 l 1
 128 639 l 1
 34 639 l 1
 34 686 l 1
 406 686 l 2
 570 686 710 569 710 337 c 0
 710 115 573 0 406 0 c 2
 34 0 l 1
264 47 m 1
 365 47 l 2
 437 47 499 76 531 132 c 0
 555 176 563 232 563 337 c 0
 563 448 555 506 531 549 c 0
 498 610 435 639 364 639 c 2
 264 639 l 1
 264 47 l 1
EndSplineSet
EndChar

StartChar: E
Encoding: 69 69 77
Width: 655
Flags: HW
TeX: 690 0
HStem: 0 47<34 128 270 373 373 456 34 128> 329 47<270 292 270 292> 633 53
VStem: 128 142<47 329 376 633> 387 47<212 248.5 456.5 493>
AnchorPoint: "ogonek" 330 0 basechar 0
AnchorPoint: "below" 330 0 basechar 0
AnchorPoint: "above" 330 697 basechar 0
LayerCount: 2
Fore
SplineSet
34 0 m 1
 34 47 l 1
 128 47 l 1
 128 633 l 1
 34 633 l 1
 34 680 l 1
 568 680 l 1
 599 439 l 1
 552 439 l 1
 537 551 524 633 369 633 c 2
 270 633 l 1
 270 376 l 1
 292 376 l 2
 383 376 387 420 387 493 c 1
 434 493 l 1
 434 212 l 1
 387 212 l 1
 387 285 383 329 292 329 c 2
 270 329 l 1
 270 47 l 1
 373 47 l 2
 539 47 559 144 580 274 c 1
 627 274 l 1
 581 0 l 1
 34 0 l 1
EndSplineSet
EndChar

StartChar: F
Encoding: 70 70 78
Width: 627
Flags: HW
TeX: 690 0
HStem: 0 47<34 128> 317 47<270 287 270 287> 633 53
VStem: 128 142<47 317 364 633> 381 47<200 238 443 481>
AnchorPoint: "below" 310 0 basechar 0
AnchorPoint: "above" 310 697 basechar 0
LayerCount: 2
Fore
SplineSet
34 0 m 1
 34 47 l 1
 128 47 l 1
 128 633 l 1
 34 633 l 1
 34 680 l 1
 554 680 l 1
 585 439 l 1
 538 439 l 1
 524 549 512 633 360 633 c 2
 270 633 l 1
 270 364 l 1
 287 364 l 2
 376 364 381 405 381 481 c 1
 428 481 l 1
 428 200 l 1
 381 200 l 1
 381 276 376 317 287 317 c 2
 270 317 l 1
 270 47 l 1
 388 47 l 1
 388 0 l 1
 347 3 249 3 203 3 c 0
 163 3 69 3 34 0 c 1
EndSplineSet
EndChar

StartChar: G
Encoding: 71 71 79
Width: 786
Flags: HW
TeX: 690 0
HStem: -11 47<405 443.5 405 451.5> 229 47<399 524 399 399> 650 47<405.5 434 308 466>
VStem: 56 153<309 370 309 455> 524 142<128 229>
AnchorPoint: "below" 408 0 basechar 0
AnchorPoint: "above" 407 697 basechar 0
LayerCount: 2
Fore
SplineSet
56 343 m 0
 56 567 208 697 408 697 c 0
 460 697 517 683 571 635 c 1
 629 688 l 2
 637 695 639 697 648 697 c 0
 666 697 666 688 666 669 c 2
 666 454 l 2
 666 428 665 426 639 426 c 0
 622 426 615 426 613 442 c 0
 591 591 505 650 427 650 c 0
 384 650 302 639 249 557 c 0
 209 495 209 397 209 343 c 0
 209 275 211 191 250 128 c 1
 298 53 381 36 429 36 c 0
 458 36 524 49 524 128 c 2
 524 229 l 1
 399 229 l 1
 399 276 l 1
 443 273 538 273 586 273 c 0
 626 273 698 273 735 276 c 1
 735 229 l 1
 666 229 l 1
 666 28 l 2
 666 13 666 0 652 0 c 0
 645 0 584 27 555 52 c 1
 540 31 495 -11 408 -11 c 0
 211 -11 56 117 56 343 c 0
EndSplineSet
EndChar

StartChar: H
Encoding: 72 72 80
Width: 783
Flags: HW
TeX: 690 0
HStem: 0 47<34 128> 333 47<270 512 270 512> 639 47<34 128 34 34>
VStem: 128 142<47 333 47 380 380 639> 512 142<47 333 333 333 380 639 47 639>
AnchorPoint: "below" 391 0 basechar 0
AnchorPoint: "above" 391 697 basechar 0
LayerCount: 2
Fore
SplineSet
34 0 m 1
 34 47 l 1
 128 47 l 1
 128 639 l 1
 34 639 l 1
 34 686 l 1
 69 683 159 683 199 683 c 0
 239 683 329 683 364 686 c 1
 364 639 l 1
 270 639 l 1
 270 380 l 1
 512 380 l 1
 512 639 l 1
 418 639 l 1
 418 686 l 1
 453 683 543 683 583 683 c 0
 623 683 713 683 748 686 c 1
 748 639 l 1
 654 639 l 1
 654 47 l 1
 748 47 l 1
 748 0 l 1
 713 3 623 3 583 3 c 0
 543 3 453 3 418 0 c 1
 418 47 l 1
 512 47 l 1
 512 333 l 1
 270 333 l 1
 270 47 l 1
 364 47 l 1
 364 0 l 1
 329 3 239 3 199 3 c 0
 159 3 69 3 34 0 c 1
EndSplineSet
EndChar

StartChar: I
Encoding: 73 73 81
Width: 397
Flags: HW
TeX: 690 0
HStem: 0 47<28 127> 639 47<28 127 28 28>
VStem: 127 142<47 639 47 639>
AnchorPoint: "ogonek" 198 0 basechar 0
AnchorPoint: "below" 198 0 basechar 0
AnchorPoint: "above" 198 697 basechar 0
LayerCount: 2
Fore
SplineSet
28 0 m 1
 28 47 l 1
 127 47 l 1
 127 639 l 1
 28 639 l 1
 28 686 l 1
 64 683 157 683 198 683 c 0
 239 683 332 683 368 686 c 1
 368 639 l 1
 269 639 l 1
 269 47 l 1
 368 47 l 1
 368 0 l 1
 332 3 239 3 198 3 c 0
 157 3 64 3 28 0 c 1
EndSplineSet
EndChar

StartChar: J
Encoding: 74 74 82
Width: 516
Flags: HW
TeX: 690 0
HStem: -11 36<168 192 168 237> 42 149 639 47<129 252 129 129>
VStem: 0 153<89.5 140> 252 136<147 149 149 639>
AnchorPoint: "below" 230 0 basechar 0
AnchorPoint: "above" 320 697 basechar 0
LayerCount: 2
Fore
SplineSet
0 114 m 0
 0 166 40 191 77 191 c 0
 110 191 153 168 153 114 c 0
 153 65 114 45 103 41 c 1
 132 26 165 25 171 25 c 0
 213 25 252 57 252 147 c 2
 252 639 l 1
 129 639 l 1
 129 686 l 1
 170 683 267 683 312 683 c 0
 352 683 422 683 459 686 c 1
 459 639 l 1
 388 639 l 1
 388 149 l 2
 388 46 298 -11 176 -11 c 0
 73 -11 0 41 0 114 c 0
EndSplineSet
EndChar

StartChar: K
Encoding: 75 75 83
Width: 783
Flags: HW
TeX: 690 0
HStem: 0 47<34 128> 639 47<34 128 34 34>
VStem: 128 142<47 266 47 332 332 639>
AnchorPoint: "below" 388 0 basechar 0
AnchorPoint: "above" 388 697 basechar 0
LayerCount: 2
Fore
SplineSet
34 0 m 1
 34 47 l 1
 128 47 l 1
 128 639 l 1
 34 639 l 1
 34 686 l 1
 69 683 159 683 199 683 c 0
 239 683 329 683 364 686 c 1
 364 639 l 1
 270 639 l 1
 270 332 l 1
 560 618 l 2
 566 623 566 625 569 629 c 1
 544 639 522 639 505 639 c 1
 505 686 l 1
 542 683 597 683 635 683 c 0
 665 683 697 684 727 686 c 1
 727 639 l 1
 648 639 645 635 617 608 c 2
 429 423 l 1
 657 66 l 2
 666 52 669 47 718 47 c 2
 741 47 l 1
 741 0 l 1
 698 3 650 3 607 3 c 0
 568 3 483 3 448 0 c 1
 448 47 l 1
 469 47 512 47 512 58 c 0
 512 59 512 61 506 69 c 2
 338 333 l 1
 270 266 l 1
 270 47 l 1
 364 47 l 1
 364 0 l 1
 329 3 239 3 199 3 c 0
 159 3 69 3 34 0 c 1
EndSplineSet
EndChar

StartChar: L
Encoding: 76 76 84
Width: 600
Flags: HW
TeX: 690 0
HStem: 0 47<34 128 270 336 336 411 34 128> 254 20<510 557 557 557> 639 47<34 128 34 34>
VStem: 128 142<47 639 47 639>
AnchorPoint: "below" 296 0 basechar 0
AnchorPoint: "above" 296 697 basechar 0
LayerCount: 2
Fore
SplineSet
34 0 m 1
 34 47 l 1
 128 47 l 1
 128 639 l 1
 34 639 l 1
 34 686 l 1
 69 683 163 683 203 683 c 0
 248 683 347 683 388 686 c 1
 388 639 l 1
 270 639 l 1
 270 47 l 1
 336 47 l 2
 486 47 503 202 510 274 c 1
 557 274 l 1
 526 0 l 1
 34 0 l 1
EndSplineSet
EndChar

StartChar: M
Encoding: 77 77 85
Width: 950
Flags: HW
TeX: 690 0
HStem: 0 47<34 54> 639 47<34 128 34 243 821 915 821 821>
VStem: 128 53<76 613> 696 125<47 629 629 629>
AnchorPoint: "below" 474 0 basechar 0
AnchorPoint: "above" 474 697 basechar 0
LayerCount: 2
Fore
SplineSet
34 0 m 1
 34 47 l 1
 54 47 l 2
 61 47 82 47 104 50 c 0
 128 53 128 54 128 76 c 2
 128 639 l 1
 34 639 l 1
 34 686 l 1
 243 686 l 2
 270 686 275 683 284 660 c 2
 475 158 l 1
 666 661 l 2
 675 686 686 686 707 686 c 2
 915 686 l 1
 915 639 l 1
 821 639 l 1
 821 47 l 1
 915 47 l 1
 915 0 l 1
 880 3 797 3 758 3 c 0
 719 3 637 3 602 0 c 1
 602 47 l 1
 696 47 l 1
 696 629 l 1
 695 629 l 1
 465 25 l 2
 460 13 456 0 436 0 c 0
 415 0 411 12 406 25 c 2
 182 613 l 1
 181 613 l 1
 181 76 l 2
 181 54 181 53 206 50 c 0
 213 49 234 47 255 47 c 2
 275 47 l 1
 275 0 l 1
 239 1 191 3 154 3 c 0
 118 3 71 1 34 0 c 1
EndSplineSet
EndChar

StartChar: N
Encoding: 78 78 86
Width: 783
Flags: HW
TeX: 690 0
HStem: 0 47<34 54> 639 47<34 128 34 242>
VStem: 128 53<76 589> 601 53<225 610>
AnchorPoint: "below" 391 0 basechar 0
AnchorPoint: "above" 391 697 basechar 0
LayerCount: 2
Fore
SplineSet
34 0 m 1
 34 47 l 1
 54 47 l 2
 61 47 82 47 104 50 c 0
 128 53 128 54 128 76 c 2
 128 639 l 1
 34 639 l 1
 34 686 l 1
 242 686 l 2
 263 686 266 686 277 671 c 2
 601 225 l 1
 601 610 l 2
 601 632 601 633 576 636 c 0
 569 637 548 639 527 639 c 2
 507 639 l 1
 507 686 l 1
 543 685 591 683 628 683 c 0
 664 683 711 685 748 686 c 1
 748 639 l 1
 728 639 l 2
 721 639 700 639 678 636 c 0
 654 633 654 632 654 610 c 2
 654 32 l 2
 654 9 654 0 627 0 c 0
 614 0 609 0 600 13 c 2
 181 589 l 1
 181 76 l 2
 181 54 181 53 206 50 c 0
 213 49 234 47 255 47 c 2
 275 47 l 1
 275 0 l 1
 239 1 191 3 154 3 c 0
 118 3 71 1 34 0 c 1
EndSplineSet
EndChar

StartChar: O
Encoding: 79 79 87
Width: 750
Flags: HW
TeX: 690 0
HStem: -11 42<345 403 345 465> 657 40<350.5 402.5>
VStem: 56 153<316 385 316 454.5> 540 153<313.5 389.5>
AnchorPoint: "ogonek" 374 0 basechar 0
AnchorPoint: "below" 374 0 basechar 0
AnchorPoint: "above" 375 697 basechar 0
LayerCount: 2
Fore
SplineSet
56 339 m 0
 56 570 195 697 375 697 c 0
 548 697 693 576 693 339 c 0
 693 115 556 -11 374 -11 c 0
 200 -11 56 108 56 339 c 0
209 353 m 0
 209 279 210 200 241 130 c 0
 267 72 315 31 375 31 c 0
 431 31 484 71 510 134 c 0
 539 206 540 274 540 353 c 0
 540 426 539 490 513 553 c 0
 485 621 431 657 374 657 c 0
 327 657 270 631 237 557 c 0
 209 492 209 417 209 353 c 0
EndSplineSet
EndChar

StartChar: P
Encoding: 80 80 88
Width: 683
Flags: HW
TeX: 690 0
HStem: 0 47<34 128> 302 41<270 270 270 352 352 402> 639 47<34 128 34 393 264 352 264 264>
VStem: 128 142<47 302 47 639> 473 153<448 534.5>
AnchorPoint: "below" 308 0 basechar 0
AnchorPoint: "above" 308 697 basechar 0
LayerCount: 2
Fore
SplineSet
34 0 m 1
 34 47 l 1
 128 47 l 1
 128 639 l 1
 34 639 l 1
 34 686 l 1
 393 686 l 2
 542 686 626 600 626 491 c 0
 626 372 525 302 402 302 c 2
 270 302 l 1
 270 47 l 1
 364 47 l 1
 364 0 l 1
 329 3 239 3 199 3 c 0
 159 3 69 3 34 0 c 1
264 343 m 1
 352 343 l 2
 473 343 473 405 473 491 c 0
 473 578 473 639 352 639 c 2
 264 639 l 1
 264 343 l 1
EndSplineSet
EndChar

StartChar: Q
Encoding: 81 81 89
Width: 750
Flags: HW
TeX: 690 194
HStem: -194 153<582.5 601.5 582.5 633> -11 40<351 387.5 351 395.5> 119 36<359.5 395.5> 657 40<353.5 401>
VStem: 56 147<288 366.5 288 454.5> 287 36<72 84.5 68.5 95.5> 546 147<303.5 377>
AnchorPoint: "below" 374 -194 basechar 0
AnchorPoint: "above" 375 697 basechar 0
LayerCount: 2
Fore
SplineSet
56 339 m 0
 56 570 195 697 375 697 c 0
 548 697 693 576 693 339 c 0
 693 241 665 88 514 18 c 1
 546 -41 573 -41 592 -41 c 0
 611 -41 658 -36 663 -3 c 0
 664 5 666 18 681 18 c 0
 699 18 699 0 699 -10 c 0
 699 -46 688 -194 578 -194 c 0
 483 -194 470 -105 456 -2 c 1
 453 -3 416 -11 375 -11 c 0
 195 -11 56 112 56 339 c 0
203 340 m 0
 203 236 208 123 288 60 c 1
 287 64 287 71 287 73 c 0
 287 118 325 155 375 155 c 0
 426 155 458 119 481 78 c 1
 546 146 546 267 546 340 c 0
 546 414 544 480 520 542 c 0
 488 624 428 657 374 657 c 0
 333 657 263 636 226 534 c 0
 203 469 203 393 203 340 c 0
323 73 m 0
 323 64 327 29 375 29 c 0
 400 29 427 37 446 49 c 1
 436 94 415 119 376 119 c 0
 343 119 323 96 323 73 c 0
EndSplineSet
EndChar

StartChar: R
Encoding: 82 82 90
Width: 759
Flags: HW
TeX: 690 0
HStem: -11 36<633.5 671 633.5 699> 0 47<34 128> 325 36<264 344 344 350 264 344> 639 47<34 128 34 367 264 264 264 346>
VStem: 128 136<47 325 47 361 361 639> 481 153<465.5 535.5>
AnchorPoint: "below" 308 0 basechar 0
AnchorPoint: "above" 308 697 basechar 0
LayerCount: 2
Fore
SplineSet
34 0 m 1
 34 47 l 1
 128 47 l 1
 128 639 l 1
 34 639 l 1
 34 686 l 1
 367 686 l 2
 537 686 634 603 634 500 c 0
 634 429 579 364 482 339 c 1x7c
 535 316 574 280 585 219 c 0
 586 216 592 168 595 145 c 0
 603 82 610 25 657 25 c 0
 685 25 705 50 709 94 c 0
 710 110 714 117 732 117 c 0
 742 117 756 117 756 94 c 0
 756 83 748 -11 650 -11 c 0
 591 -11 480 -1 451 80 c 0
 444 102 444 106 444 169 c 0
 444 231 444 255 424 287 c 0
 400 325 370 325 350 325 c 2xb8
 264 325 l 1
 264 47 l 1
 358 47 l 1
 358 0 l 1
 323 3 236 3 196 3 c 0
 156 3 69 3 34 0 c 1
264 361 m 1
 344 361 l 2
 481 361 481 431 481 500 c 0
 481 571 481 639 346 639 c 2
 264 639 l 1
 264 361 l 1
EndSplineSet
EndChar

StartChar: S
Encoding: 83 83 91
Width: 555
Flags: HW
TeX: 690 0
HStem: -11 47<282.5 341.5 265.5 367> 654 43<214.5 280 188.5 325.5>
VStem: 56 97<524.5 553> 402 97<144 173.5>
AnchorPoint: "below" 302 0 basechar 0
AnchorPoint: "above" 251 697 basechar 0
LayerCount: 2
Fore
SplineSet
56 17 m 2
 56 199 l 2
 56 222 56 228 80 228 c 0
 102 228 102 223 103 205 c 0
 110 65 230 36 301 36 c 0
 382 36 402 104 402 153 c 0
 402 194 385 244 336 266 c 0
 330 268 291 278 268 283 c 0
 180 305 144 313 104 361 c 0
 77 394 56 438 56 497 c 0
 56 609 126 697 251 697 c 0
 309 697 355 680 394 647 c 1
 421 674 l 2
 444 696 445 697 454 697 c 0
 472 697 472 688 472 669 c 2
 472 486 l 2
 472 463 472 458 448 458 c 0
 432 458 427 460 424 475 c 1
 419 513 399 654 252 654 c 0
 177 654 153 597 153 549 c 0
 153 500 182 462 216 449 c 0
 227 445 261 437 289 430 c 0
 374 409 413 400 455 343 c 0
 480 309 499 263 499 203 c 0
 499 85 432 -11 302 -11 c 0
 263 -11 193 -4 135 40 c 1
 107 12 l 2
 84 -10 83 -11 74 -11 c 0
 56 -11 56 -2 56 17 c 2
EndSplineSet
EndChar

StartChar: T
Encoding: 84 84 92
Width: 694
Flags: HW
TeX: 690 0
HStem: 0 47<142 276> 434 21<36 83 36 36 610 657 610 610> 628 58
VStem: 276 142<47 628 47 628>
CounterMasks: 1 38
AnchorPoint: "below" 347 0 basechar 0
AnchorPoint: "above" 347 697 basechar 0
LayerCount: 2
Fore
SplineSet
36 434 m 1
 57 675 l 1
 636 675 l 1
 657 434 l 1
 610 434 l 1
 601 545 594 628 466 628 c 2
 418 628 l 1
 418 47 l 1
 552 47 l 1
 552 0 l 1
 504 3 400 3 347 3 c 0
 294 3 190 3 142 0 c 1
 142 47 l 1
 276 47 l 1
 276 628 l 1
 227 628 l 2
 99 628 92 544 83 434 c 1
 36 434 l 1
EndSplineSet
EndChar

StartChar: U
Encoding: 85 85 93
Width: 769
Flags: HW
TeX: 690 0
HStem: -11 47<339 449 339 481> 639 47<34 128 34 34>
VStem: 128 142<229 639> 587 53<230 610>
AnchorPoint: "ogonek" 404 0 basechar 0
AnchorPoint: "below" 404 0 basechar 0
AnchorPoint: "above" 384 697 basechar 0
LayerCount: 2
Fore
SplineSet
34 639 m 1
 34 686 l 1
 69 683 159 683 199 683 c 0
 239 683 329 683 364 686 c 1
 364 639 l 1
 270 639 l 1
 270 210 l 2
 270 165 270 36 408 36 c 0
 490 36 587 79 587 230 c 2
 587 610 l 2
 587 632 587 633 562 636 c 0
 555 637 534 639 513 639 c 2
 493 639 l 1
 493 686 l 1
 529 685 577 683 614 683 c 0
 650 683 697 685 734 686 c 1
 734 639 l 1
 714 639 l 2
 707 639 686 639 664 636 c 0
 640 633 640 632 640 610 c 2
 640 227 l 2
 640 96 558 -11 404 -11 c 0
 230 -11 128 93 128 229 c 2
 128 639 l 1
 34 639 l 1
EndSplineSet
EndChar

StartChar: V
Encoding: 86 86 94
Width: 755
Flags: HW
TeX: 690 0
ItalicCorrection: 13
HStem: -8 21<363.5 391> 639 47<22 103 22 22>
AnchorPoint: "below" 377 0 basechar 0
AnchorPoint: "above" 377 697 basechar 0
LayerCount: 2
Fore
SplineSet
22 639 m 1
 22 686 l 1
 58 683 130 683 169 683 c 0
 209 683 295 683 331 686 c 1
 331 639 l 1
 249 639 l 1
 422 184 l 1
 591 629 l 1
 566 639 532 639 514 639 c 1
 514 686 l 1
 542 685 593 683 631 683 c 0
 667 683 710 685 733 686 c 1
 733 639 l 1
 653 639 651 633 644 616 c 2
 415 17 l 2
 408 0 405 -8 377 -8 c 0
 350 -8 346 0 340 17 c 2
 103 639 l 1
 22 639 l 1
EndSplineSet
EndChar

StartChar: W
Encoding: 87 87 95
Width: 1033
Flags: HW
TeX: 690 0
ItalicCorrection: 13
HStem: -8 21<327.5 346 681 704> 639 47<21 96 21 21>
AnchorPoint: "below" 515 0 basechar 0
AnchorPoint: "above" 515 697 basechar 0
LayerCount: 2
Fore
SplineSet
21 639 m 1
 21 686 l 1
 60 683 122 683 163 683 c 0
 203 683 288 683 324 686 c 1
 324 639 l 1
 240 639 l 1
 387 205 l 1
 491 515 l 1
 449 639 l 1
 374 639 l 1
 374 686 l 1
 413 683 475 683 516 683 c 0
 556 683 641 683 677 686 c 1
 677 639 l 1
 593 639 l 1
 740 205 l 1
 882 628 l 1
 854 639 820 639 793 639 c 1
 793 686 l 1
 820 684 904 683 915 683 c 0
 938 683 978 684 1011 686 c 1
 1011 639 l 1
 936 639 934 632 928 616 c 2
 726 17 l 2
 721 1 715 -8 693 -8 c 0
 669 -8 665 1 659 18 c 2
 516 441 l 1
 373 17 l 2
 365 -6 353 -8 339 -8 c 0
 316 -8 311 1 306 17 c 2
 96 639 l 1
 21 639 l 1
EndSplineSet
EndChar

StartChar: X
Encoding: 88 88 96
Width: 755
Flags: HW
TeX: 690 0
HStem: 0 47<29 53> 639 47<42 127 42 42>
AnchorPoint: "below" 378 0 basechar 0
AnchorPoint: "above" 378 697 basechar 0
LayerCount: 2
Fore
SplineSet
29 0 m 1
 29 47 l 1
 53 47 l 2
 57 47 116 47 141 57 c 1
 316 329 l 1
 127 639 l 1
 42 639 l 1
 42 686 l 1
 78 683 151 683 190 683 c 0
 231 683 318 683 354 686 c 1
 354 639 l 1
 281 639 l 1
 395 451 l 1
 501 616 l 1
 508 628 l 1
 477 639 439 639 424 639 c 1
 424 686 l 1
 460 683 524 683 562 683 c 0
 600 683 645 685 684 686 c 1
 684 639 l 1
 660 639 l 2
 633 639 630 639 606 636 c 0
 576 633 575 632 565 617 c 2
 426 401 l 1
 642 47 l 1
 727 47 l 1
 727 0 l 1
 690 3 619 3 579 3 c 0
 538 3 451 3 415 0 c 1
 415 47 l 1
 488 47 l 1
 347 279 l 1
 205 58 l 1
 235 47 271 47 289 47 c 1
 289 0 l 1
 252 3 190 3 151 3 c 0
 113 3 68 1 29 0 c 1
EndSplineSet
EndChar

StartChar: Y
Encoding: 89 89 97
Width: 755
Flags: HW
TeX: 690 0
ItalicCorrection: 24
HStem: 0 47<215 309> 639 47<16 101 16 16>
VStem: 309 136<47 274 47 274>
AnchorPoint: "below" 376 0 basechar 0
AnchorPoint: "above" 376 697 basechar 0
LayerCount: 2
Fore
SplineSet
16 639 m 1
 16 686 l 1
 52 683 127 683 166 683 c 0
 207 683 297 683 333 686 c 1
 333 639 l 1
 258 639 l 1
 425 346 l 1
 587 629 l 1
 563 639 540 639 518 639 c 1
 518 686 l 1
 552 684 617 683 637 683 c 0
 673 683 716 685 739 686 c 1
 739 639 l 1
 654 639 650 632 642 618 c 2
 445 274 l 1
 445 47 l 1
 540 47 l 1
 540 0 l 1
 505 3 417 3 377 3 c 0
 337 3 250 3 215 0 c 1
 215 47 l 1
 309 47 l 1
 309 274 l 1
 101 639 l 1
 16 639 l 1
EndSplineSet
EndChar

StartChar: Z
Encoding: 90 90 98
Width: 611
Flags: HW
TeX: 690 0
HStem: 0 51<214 314 314 407> 639 47<216.5 303 303 397>
VStem: 56 504<13 284>
AnchorPoint: "below" 308 0 basechar 0
AnchorPoint: "above" 308 697 basechar 0
LayerCount: 2
Fore
SplineSet
56 26 m 0
 56 35 56 40 63 52 c 2
 397 639 l 1
 303 639 l 2
 130 639 120 511 116 445 c 1
 69 445 l 1
 81 686 l 1
 522 686 l 2
 543 686 554 686 554 661 c 0
 554 654 554 649 547 637 c 2
 214 51 l 1
 314 51 l 2
 500 51 507 184 513 284 c 1
 560 284 l 1
 542 0 l 1
 88 0 l 2
 66 0 56 0 56 26 c 0
EndSplineSet
EndChar

StartChar: bracketleft
Encoding: 91 91 99
Width: 280
Flags: HW
TeX: 749 249
HStem: -250 36<193 258> 714 36<193 258>
VStem: 84 109<-214 714>
LayerCount: 2
Fore
SplineSet
84 -250 m 1
 84 750 l 1
 258 750 l 1
 258 714 l 1
 193 714 l 1
 193 -214 l 1
 258 -214 l 1
 258 -250 l 1
 84 -250 l 1
EndSplineSet
EndChar

StartChar: backslash
Encoding: 92 92 100
Width: 500
Flags: HW
TeX: 749 249
DStem2: 101 710 60 715 0.342786 -0.939414<-34.889 1001.38>
LayerCount: 2
Fore
SplineSet
56 731 m 0
 56 741 65 748 73 748 c 0
 90 748 95 726 101 710 c 2
 435 -204 l 2
 438 -213 442 -222 442 -232 c 0
 442 -242 434 -249 426 -249 c 0
 413 -249 406 -234 403 -225 c 2
 60 715 l 2
 58 720 56 725 56 731 c 0
EndSplineSet
EndChar

StartChar: bracketright
Encoding: 93 93 101
Width: 280
Flags: HW
TeX: 749 249
HStem: -250 36<21 86> 714 36<21 86>
VStem: 86 109<-214 714>
LayerCount: 2
Fore
SplineSet
21 -214 m 1
 86 -214 l 1
 86 714 l 1
 21 714 l 1
 21 750 l 1
 195 750 l 1
 195 -250 l 1
 21 -250 l 1
 21 -214 l 1
EndSplineSet
EndChar

StartChar: asciicircum
Encoding: 94 94 102
Width: 611
Flags: HW
TeX: 690 0
HStem: 461 171
LayerCount: 2
Fore
SplineSet
112 502 m 1
 304 632 l 1
 497 502 l 1
 472 461 l 1
 304 550 l 1
 137 461 l 1
 112 502 l 1
EndSplineSet
EndChar

StartChar: underscore
Encoding: 95 95 103
Width: 778
Flags: HW
TeX: 0 307
HStem: -308 61<85.5499 691.473>
LayerCount: 2
Fore
SplineSet
84 -278 m 0
 84 -270 88 -247 123 -247 c 2
 656 -247 l 1
 689 -248 693 -270 693 -278 c 0
 693 -288 688 -308 653 -308 c 2
 122 -308 l 2
 112 -308 84 -307 84 -278 c 0
EndSplineSet
EndChar

StartChar: a
Encoding: 97 97 105
Width: 486
Flags: HW
TeX: 444 0
HStem: -6 36<188.5 223.5 188.5 227.5> 233 31 417 36<203.5 247>
VStem: 28 117<90 161.5> 303 114<138 233 233 233 265 300>
AnchorPoint: "ogonek" 363 0 basechar 0
AnchorPoint: "affricate-below" 486 -194 basechar 0
AnchorPoint: "affricate-above" 486 694 basechar 0
AnchorPoint: "below" 220 0 basechar 0
AnchorPoint: "above" 220 453 basechar 0
LayerCount: 2
Fore
SplineSet
28 109 m 0
 28 214 159 262 303 265 c 1
 303 301 l 2
 303 369 277 417 217 417 c 0
 187 417 179 415 158 411 c 1
 159 410 181 393 181 361 c 0
 181 319 149 298 118 298 c 0
 91 298 56 317 56 361 c 0
 56 451 187 453 220 453 c 0
 343 453 417 395 417 300 c 2
 417 84 l 2
 417 63 417 50 464 47 c 0
 475 46 485 44 485 24 c 0
 485 0 473 0 453 0 c 2
 411 0 l 2
 320 0 320 53 320 74 c 1
 299 29 258 -6 197 -6 c 0
 122 -6 28 26 28 109 c 0
145 109 m 0
 145 71 168 30 209 30 c 0
 238 30 303 52 303 138 c 2
 303 233 l 1
 277 231 145 219 145 109 c 0
EndSplineSet
EndChar

StartChar: b
Encoding: 98 98 106
Width: 555
Flags: HW
TeX: 690 0
HStem: -6 36<275.5 312.5 275.5 362.5> 414 36<290 322> 639 55
VStem: 85 114<89 357 89 600> 394 128<199 243>
AnchorPoint: "affricate-below" 555 -194 basechar 0
AnchorPoint: "affricate-above" 555 694 basechar 0
AnchorPoint: "below" 304 0 basechar 0
AnchorPoint: "above" 304 694 basechar 0
LayerCount: 2
Fore
SplineSet
16 639 m 1
 16 686 l 1
 193 694 l 1
 193 408 l 1
 227 435 266 450 314 450 c 0
 423 450 522 375 522 222 c 0
 522 75 423 -6 302 -6 c 0
 243 -6 203 23 181 47 c 1
 160 27 159 26 133 0 c 1
 85 0 l 1
 85 600 l 2
 85 639 78 639 16 639 c 1
199 89 m 1
 225 50 257 30 294 30 c 0
 331 30 364 54 379 88 c 1
 394 126 394 175 394 223 c 0
 394 263 394 319 382 352 c 1
 370 390 340 414 304 414 c 0
 271 414 232 400 199 357 c 1
 199 89 l 1
EndSplineSet
EndChar

StartChar: c
Encoding: 99 99 107
Width: 444
Flags: HW
TeX: 444 0
HStem: -6 40<247 302 247 316> 413 40<207.5 263>
VStem: 33 128<203 258 203 292> 279 125<340 372.5>
AnchorPoint: "affricate-below" 444 -194 basechar 0
AnchorPoint: "affricate-above" 444 694 basechar 0
AnchorPoint: "below" 248 0 basechar 0
AnchorPoint: "above" 250 453 basechar 0
LayerCount: 2
Fore
SplineSet
33 222 m 0
 33 362 119 453 251 453 c 0
 330 453 404 427 404 361 c 0
 404 319 372 298 341 298 c 0
 314 298 279 317 279 361 c 0
 279 384 290 400 299 408 c 1
 283 411 272 413 254 413 c 0
 161 413 161 289 161 227 c 0
 161 179 162 134 180 95 c 0
 198 56 229 34 265 34 c 0
 339 34 361 98 368 118 c 0
 372 130 376 131 391 131 c 0
 401 131 415 131 415 117 c 0
 415 106 384 -6 248 -6 c 0
 130 -6 33 74 33 222 c 0
EndSplineSet
EndChar

StartChar: d
Encoding: 100 100 108
Width: 555
Flags: HW
TeX: 690 0
HStem: -6 36<232.5 262.5> 414 36<241.5 264 192.5 277.5> 639 55
VStem: 33 128<203.5 241 203.5 296> 356 114<-6 86 35 86 94 361 361 361>
AnchorPoint: "affricate-below" 555 -194 basechar 0
AnchorPoint: "affricate-above" 555 694 basechar 0
AnchorPoint: "below" 286 0 basechar 0
AnchorPoint: "above" 252 694 basechar 0
LayerCount: 2
Fore
SplineSet
33 222 m 0
 33 370 133 450 252 450 c 0
 276 450 317 447 362 412 c 1
 362 600 l 2
 362 639 355 639 293 639 c 1
 293 686 l 1
 470 694 l 1
 470 86 l 2
 470 47 477 47 539 47 c 1
 539 0 l 1
 356 -6 l 1
 356 35 l 1
 322 7 283 -6 242 -6 c 0
 131 -6 33 70 33 222 c 0
161 221 m 0
 161 186 161 127 172 93 c 0
 185 55 214 30 251 30 c 0
 296 30 333 58 356 94 c 1
 356 361 l 1
 329 399 293 414 262 414 c 0
 221 414 188 389 173 349 c 1
 161 314 161 261 161 221 c 0
EndSplineSet
EndChar

StartChar: e
Encoding: 101 101 109
Width: 466
Flags: HW
TeX: 444 0
HStem: -6 40<212 288 212 326> 218 33<156 343 156 406 156 343> 417 36<204 295.5>
VStem: 28 128<188.5 218 188.5 251 188.5 295> 343 95<251 262.5>
AnchorPoint: "ogonek" 259 0 basechar 0
AnchorPoint: "affricate-below" 466 -194 basechar 0
AnchorPoint: "affricate-above" 466 694 basechar 0
AnchorPoint: "below" 259 0 basechar 0
AnchorPoint: "above" 246 453 basechar 0
LayerCount: 2
Fore
SplineSet
28 225 m 0
 28 365 118 453 247 453 c 0
 402 453 438 336 438 247 c 0
 438 219 431 218 406 218 c 2
 156 218 l 1
 156 159 156 34 268 34 c 0
 308 34 366 55 390 116 c 0
 395 130 397 135 414 135 c 0
 419 135 438 135 438 117 c 0
 438 96 393 -6 259 -6 c 0
 128 -6 28 80 28 225 c 0
156 251 m 1
 343 251 l 1
 343 274 343 417 248 417 c 0
 160 417 157 302 156 251 c 1
EndSplineSet
EndChar

StartChar: f
Encoding: 102 102 110
Width: 305
Flags: HW
TeX: 690 0
ItalicCorrection: 111
HStem: 0 47<27 96> 397 47<38 96 38 96 204 297 204 204> 664 36<282.5 289.5>
VStem: 96 108<47 397 47 397 47 545> 272 126
AnchorPoint: "affricate-below" 305 -194 basechar 0
AnchorPoint: "affricate-above" 305 694 basechar 0
AnchorPoint: "above" 291 694 basechar 0
AnchorPoint: "below" 150 0 basechar 0
LayerCount: 2
Fore
SplineSet
27 0 m 1
 27 47 l 1
 96 47 l 1
 96 397 l 1
 38 397 l 1
 38 444 l 1
 96 444 l 1
 96 545 l 2
 96 659 199 700 291 700 c 0
 363 700 398 655 398 613 c 0
 398 572 366 551 336 551 c 0
 310 551 275 570 275 613 c 0
 275 639 289 656 299 663 c 1
 295 664 291 664 288 664 c 0
 277 664 198 663 198 546 c 2
 198 444 l 1
 297 444 l 1
 297 397 l 1
 204 397 l 1
 204 47 l 1
 291 47 l 1
 291 0 l 1
 255 3 191 3 153 3 c 0
 107 3 62 1 27 0 c 1
EndSplineSet
EndChar

StartChar: g
Encoding: 103 103 111
Width: 500
Flags: HW
TeX: 444 194
ItalicCorrection: 13
HStem: -201 36<200 302 200 327.5> -13 96<164.5 173 173 215 215 267> 154 36<192.5 256.5 187.5 283> 414 41
VStem: 26 127 291 111<276.5 327>
AnchorPoint: "affricate-below" 500 -194 basechar 0
AnchorPoint: "affricate-above" 500 694 basechar 0
AnchorPoint: "below" 249 -194 basechar 0
AnchorPoint: "above" 222 453 basechar 0
LayerCount: 2
Fore
SplineSet
26 -75 m 0
 26 -18 81 5 97 11 c 1
 58 43 56 93 56 104 c 0
 56 119 59 156 90 196 c 1
 61 219 42 259 42 302 c 0
 42 380 101 450 222 450 c 0
 250 450 300 446 340 418 c 1
 378 452 414 455 429 455 c 0
 470 455 485 420 485 397 c 0
 485 373 468 354 442 354 c 0
 416 354 399 372 399 397 c 0
 399 407 401 412 402 415 c 1
 388 411 377 407 365 399 c 1
 375 388 402 353 402 302 c 0
 402 225 344 154 222 154 c 0
 163 154 127 172 114 179 c 1
 113 178 105 167 105 144 c 0
 105 107 131 85 157 83 c 1
 215 83 l 2
 331 83 473 83 473 -71 c 0
 473 -140 406 -201 249 -201 c 0
 72 -201 26 -124 26 -75 c 0
112 -73 m 0
 112 -119 150 -165 250 -165 c 0
 354 -165 387 -114 387 -75 c 0
 387 -30 344 -13 267 -13 c 2
 173 -13 l 2
 156 -13 112 -13 112 -73 c 0
153 302 m 0
 153 252 153 190 222 190 c 0
 291 190 291 251 291 302 c 0
 291 352 291 414 222 414 c 0
 153 414 153 353 153 302 c 0
EndSplineSet
EndChar

StartChar: h
Encoding: 104 104 112
Width: 555
Flags: HW
TeX: 690 0
HStem: 0 47<24 93> 414 36<313.5 342> 639 55
VStem: 93 114<47 256 47 600> 370 114<47 309 47 321 47 365>
AnchorPoint: "affricate-below" 555 -194 basechar 0
AnchorPoint: "affricate-above" 555 694 basechar 0
AnchorPoint: "below" 288 0 basechar 0
AnchorPoint: "above" 288 694 basechar 0
LayerCount: 2
Fore
SplineSet
24 0 m 1
 24 47 l 1
 93 47 l 1
 93 600 l 2
 93 639 86 639 24 639 c 1
 24 686 l 1
 201 694 l 1
 201 359 l 1
 202 359 l 1
 230 410 278 450 349 450 c 0
 460 450 484 384 484 309 c 2
 484 47 l 1
 553 47 l 1
 553 0 l 1
 533 1 473 3 428 3 c 0
 389 3 341 1 305 0 c 1
 305 47 l 1
 370 47 l 1
 370 321 l 2
 370 409 350 414 334 414 c 0
 284 414 207 367 207 256 c 2
 207 47 l 1
 276 47 l 1
 276 0 l 1
 248 1 189 3 150 3 c 0
 112 3 52 1 24 0 c 1
EndSplineSet
EndChar

StartChar: i
Encoding: 105 105 113
Width: 277
Flags: HW
TeX: 690 0
HStem: 0 47<26 95> 395 55 539 156<113.5 156>
VStem: 95 108<47 356 356 375.5>
AnchorPoint: "above" 149 675 basechar 0
AnchorPoint: "ogonek" 146 0 basechar 0
AnchorPoint: "affricate-below" 277 -194 basechar 0
AnchorPoint: "affricate-above" 277 694 basechar 0
AnchorPoint: "below" 149 0 basechar 0
LayerCount: 2
Fore
SplineSet
57 617 m 0
 57 660 92 695 135 695 c 0
 177 695 213 661 213 617 c 0
 213 573 177 539 135 539 c 0
 92 539 57 574 57 617 c 0
EndSplineSet
Refer: 33 305 S 1 0 0 1 0 0 3
EndChar

StartChar: j
Encoding: 106 106 114
Width: 305
Flags: HW
TeX: 690 194
HStem: -200 36<62 97.5 62 112.5> 395 55 539 156<142.5 185.5>
VStem: -62 125<-112.5 -91> 134 108<-44 -42 -42 355 355 365.5>
AnchorPoint: "affricate-below" 305 -194 basechar 0
AnchorPoint: "affricate-above" 305 694 basechar 0
AnchorPoint: "below" 104 -194 basechar 0
LayerCount: 2
Fore
SplineSet
86 617 m 0
 86 660 121 695 164 695 c 0
 207 695 242 660 242 617 c 0
 242 574 207 539 164 539 c 0
 121 539 86 574 86 617 c 0
EndSplineSet
Refer: 34 567 S 1 0 0 1 0 0 3
EndChar

StartChar: k
Encoding: 107 107 115
Width: 527
Flags: HW
TeX: 690 0
HStem: 0 47<16 85> 397 47<297 306> 639 55
VStem: 85 108<248 600 600 619.5>
AnchorPoint: "affricate-below" 527 -194 basechar 0
AnchorPoint: "affricate-above" 527 694 basechar 0
AnchorPoint: "below" 264 0 basechar 0
AnchorPoint: "above" 264 694 basechar 0
LayerCount: 2
Fore
SplineSet
16 0 m 1
 16 47 l 1
 85 47 l 1
 85 600 l 2
 85 639 78 639 16 639 c 1
 16 686 l 1
 193 694 l 1
 193 248 l 1
 332 376 l 2
 334 377 340 383 340 386 c 0
 340 393 315 397 297 397 c 1
 297 444 l 1
 310 443 373 441 411 441 c 0
 435 441 465 441 488 444 c 1
 488 397 l 1
 424 397 416 390 403 378 c 2
 296 279 l 1
 441 66 l 2
 450 53 452 50 467 48 c 0
 478 47 493 47 511 47 c 1
 511 0 l 1
 489 1 450 3 410 3 c 0
 386 3 321 1 290 0 c 1
 290 47 l 1
 304 47 327 47 327 57 c 0
 327 63 237 194 224 212 c 1
 188 179 l 1
 188 47 l 1
 257 47 l 1
 257 0 l 1
 221 1 173 3 136 3 c 0
 100 3 53 1 16 0 c 1
EndSplineSet
EndChar

StartChar: l
Encoding: 108 108 116
Width: 277
Flags: HW
TeX: 690 0
HStem: 0 47<26 95> 639 55
VStem: 95 108<47 600 600 619.5>
AnchorPoint: "affricate-below" 277 -194 basechar 0
AnchorPoint: "affricate-above" 277 694 basechar 0
AnchorPoint: "below" 149 0 basechar 0
AnchorPoint: "above" 149 694 basechar 0
LayerCount: 2
Fore
SplineSet
26 0 m 1
 26 47 l 1
 95 47 l 1
 95 600 l 2
 95 639 88 639 26 639 c 1
 26 686 l 1
 203 694 l 1
 203 47 l 1
 272 47 l 1
 272 0 l 1
 238 1 192 3 149 3 c 0
 106 3 58 1 26 0 c 1
EndSplineSet
EndChar

StartChar: m
Encoding: 109 109 117
Width: 833
Flags: HW
TeX: 444 0
HStem: 0 47<24 93> 410 40
VStem: 93 114<47 256 47 356 47 375.5> 370 114<47 256 47 321 47 365> 647 114<47 309 47 321 47 365>
AnchorPoint: "affricate-below" 833 -194 basechar 0
AnchorPoint: "affricate-above" 833 694 basechar 0
AnchorPoint: "below" 427 0 basechar 0
AnchorPoint: "above" 427 453 basechar 0
LayerCount: 2
Fore
SplineSet
24 0 m 1
 24 47 l 1
 93 47 l 1
 93 356 l 2
 93 395 86 395 24 395 c 1
 24 442 l 1
 196 450 l 1
 196 349 l 1
 197 349 l 1
 226 409 277 450 349 450 c 0
 381 450 461 447 480 359 c 1
 507 411 555 450 626 450 c 0
 737 450 761 384 761 309 c 2
 761 47 l 1
 830 47 l 1
 830 0 l 1
 810 1 750 3 705 3 c 0
 666 3 618 1 582 0 c 1
 582 47 l 1
 647 47 l 1
 647 321 l 2
 647 409 627 414 611 414 c 0
 561 414 484 367 484 256 c 2
 484 47 l 1
 553 47 l 1
 553 0 l 1
 533 1 473 3 428 3 c 0
 389 3 341 1 305 0 c 1
 305 47 l 1
 370 47 l 1
 370 321 l 2
 370 409 350 414 334 414 c 0
 284 414 207 367 207 256 c 2
 207 47 l 1
 276 47 l 1
 276 0 l 1
 248 1 189 3 150 3 c 0
 112 3 52 1 24 0 c 1
EndSplineSet
EndChar

StartChar: n
Encoding: 110 110 118
Width: 555
Flags: HW
TeX: 444 0
HStem: 0 47<24 93> 414 36<313 342>
VStem: 93 114<47 256 47 356 47 375.5> 370 114<47 309 47 321 47 365>
AnchorPoint: "affricate-below" 555 -194 basechar 0
AnchorPoint: "affricate-above" 555 694 basechar 0
AnchorPoint: "below" 288 0 basechar 0
AnchorPoint: "above" 288 453 basechar 0
LayerCount: 2
Fore
SplineSet
24 0 m 1
 24 47 l 1
 93 47 l 1
 93 356 l 2
 93 395 86 395 24 395 c 1
 24 442 l 1
 196 450 l 1
 196 349 l 1
 197 349 l 1
 226 409 277 450 349 450 c 0
 460 450 484 384 484 309 c 2
 484 47 l 1
 553 47 l 1
 553 0 l 1
 533 1 473 3 428 3 c 0
 389 3 341 1 305 0 c 1
 305 47 l 1
 370 47 l 1
 370 321 l 2
 370 409 350 414 334 414 c 0
 284 414 207 367 207 256 c 2
 207 47 l 1
 276 47 l 1
 276 0 l 1
 248 1 189 3 150 3 c 0
 112 3 52 1 24 0 c 1
EndSplineSet
EndChar

StartChar: o
Encoding: 111 111 119
Width: 500
Flags: HW
TeX: 444 0
HStem: -6 40<231.5 268 231.5 315> 417 36<230.5 270.5>
VStem: 28 128<211.5 252.5 211.5 291.5> 343 128<205.5 252>
AnchorPoint: "ogonek" 249 0 basechar 0
AnchorPoint: "affricate-below" 500 -194 basechar 0
AnchorPoint: "affricate-above" 500 694 basechar 0
AnchorPoint: "below" 249 0 basechar 0
AnchorPoint: "above" 248 453 basechar 0
LayerCount: 2
Fore
SplineSet
28 219 m 0
 28 364 120 453 249 453 c 0
 383 453 471 360 471 219 c 0
 471 79 381 -6 249 -6 c 0
 122 -6 28 75 28 219 c 0
156 229 m 0
 156 194 156 133 164 100 c 0
 175 56 213 34 250 34 c 0
 286 34 323 57 333 96 c 1
 343 130 343 182 343 229 c 0
 343 275 343 323 334 356 c 0
 325 388 292 417 249 417 c 0
 212 417 175 394 165 356 c 0
 156 324 156 276 156 229 c 0
EndSplineSet
EndChar

StartChar: p
Encoding: 112 112 120
Width: 555
Flags: HW
TeX: 444 194
HStem: -194 47<16 85> -6 36<283 317.5> 410 40<294.5 328.5>
VStem: 85 114<-147 30 -147 89 89 354> 394 128<153 284.5>
AnchorPoint: "affricate-below" 555 -194 basechar 0
AnchorPoint: "affricate-above" 555 694 basechar 0
AnchorPoint: "below" 303 -194 basechar 0
AnchorPoint: "above" 303 453 basechar 0
LayerCount: 2
Fore
SplineSet
16 -147 m 1
 85 -147 l 1
 85 362 l 2
 85 382 85 390 66 393 c 0
 55 395 35 395 16 395 c 1
 16 442 l 1
 193 450 l 1
 193 407 l 1
 230 436 272 450 317 450 c 0
 429 450 522 370 522 223 c 0
 522 72 420 -6 302 -6 c 0
 264 -6 229 6 199 30 c 1
 199 -147 l 1
 268 -147 l 1
 268 -194 l 1
 240 -193 181 -191 142 -191 c 0
 104 -191 44 -193 16 -194 c 1
 16 -147 l 1
199 89 m 1
 218 59 249 30 293 30 c 0
 342 30 394 83 394 223 c 0
 394 346 354 410 303 410 c 0
 258 410 224 385 199 354 c 1
 199 89 l 1
EndSplineSet
EndChar

StartChar: q
Encoding: 113 113 121
Width: 527
Flags: HW
TeX: 444 194
HStem: -194 47<287 356> -6 36<226 260.5 226 262.5> 410 40<238.5 279.5 193 293.5>
VStem: 33 128<159.5 291 159.5 297.5> 359 111
AnchorPoint: "affricate-below" 527 -194 basechar 0
AnchorPoint: "affricate-above" 527 694 basechar 0
AnchorPoint: "below" 252 -194 basechar 0
AnchorPoint: "above" 252 453 basechar 0
LayerCount: 2
Fore
SplineSet
33 222 m 0
 33 373 136 450 250 450 c 0
 309 450 350 420 377 380 c 1
 429 450 l 1
 470 450 l 1
 470 -147 l 1
 539 -147 l 1
 539 -194 l 1
 511 -193 452 -191 413 -191 c 0
 375 -191 315 -193 287 -194 c 1
 287 -147 l 1
 356 -147 l 1
 356 38 l 1
 320 6 283 -6 242 -6 c 0
 132 -6 33 70 33 222 c 0
161 221 m 0
 161 98 200 30 252 30 c 0
 269 30 301 36 329 64 c 1
 362 99 362 119 362 132 c 2
 362 290 l 2
 362 337 325 410 262 410 c 0
 215 410 161 361 161 221 c 0
EndSplineSet
EndChar

StartChar: r
Encoding: 114 114 122
Width: 427
Flags: HW
TeX: 444 0
HStem: 0 47<16 85> 414 36<270 297>
VStem: 85 108<47 226 47 356> 278 122<348 382.5>
AnchorPoint: "affricate-below" 427 -194 basechar 0
AnchorPoint: "affricate-above" 427 694 basechar 0
AnchorPoint: "below" 148 0 basechar 0
AnchorPoint: "above" 178 453 basechar 0
LayerCount: 2
Fore
SplineSet
16 0 m 1
 16 47 l 1
 85 47 l 1
 85 356 l 2
 85 395 78 395 16 395 c 1
 16 442 l 1
 182 450 l 1
 182 359 l 1
 183 359 l 1
 205 426 247 450 293 450 c 0
 341 450 400 424 400 368 c 0
 400 328 368 307 339 307 c 0
 310 307 278 327 278 368 c 0
 278 397 296 413 297 414 c 1
 208 414 193 301 193 226 c 2
 193 47 l 1
 280 47 l 1
 280 0 l 1
 244 3 180 3 142 3 c 0
 96 3 51 1 16 0 c 1
EndSplineSet
EndChar

StartChar: s
Encoding: 115 115 123
Width: 394
Flags: HW
TeX: 444 0
HStem: -6 36<191.5 221.5 163 260.5> 421 32<183.5 212 157 237>
VStem: 33 71<334.5 375> 289 71<101.5 135>
AnchorPoint: "affricate-below" 394 -194 basechar 0
AnchorPoint: "affricate-above" 394 694 basechar 0
AnchorPoint: "below" 199 0 basechar 0
AnchorPoint: "above" 193 453 basechar 0
LayerCount: 2
Fore
SplineSet
33 22 m 2
 33 131 l 2
 33 154 33 160 57 160 c 0
 76 160 77 157 81 143 c 0
 98 77 127 30 199 30 c 0
 244 30 289 45 289 104 c 0
 289 166 228 178 188 186 c 0
 142 195 104 203 72 235 c 0
 60 247 33 273 33 322 c 0
 33 428 121 453 193 453 c 0
 231 453 259 445 276 435 c 1
 289 442 309 453 317 453 c 0
 335 453 335 444 335 425 c 2
 335 345 l 2
 335 322 335 317 311 317 c 0
 291 317 289 321 288 336 c 0
 286 357 281 421 193 421 c 0
 174 421 104 420 104 359 c 0
 104 310 158 300 205 290 c 0
 246 282 282 275 315 242 c 0
 329 229 360 198 360 139 c 0
 360 64 322 -6 199 -6 c 0
 184 -6 142 -6 102 22 c 1
 97 19 83 10 78 6 c 0
 60 -6 58 -6 51 -6 c 0
 33 -6 33 3 33 22 c 2
EndSplineSet
EndChar

StartChar: t
Encoding: 116 116 124
Width: 390
Flags: HW
TeX: 634 0
HStem: -6 40<218.5 255.5 218.5 266> 157 20<286 333 333 333> 397 47<196 317 196 317> 615 20<149 196 196 196>
VStem: 82 114<123 397> 286 47<123 177>
AnchorPoint: "affricate-below" 390 -194 basechar 0
AnchorPoint: "affricate-above" 390 694 basechar 0
AnchorPoint: "below" 206 0 basechar 0
AnchorPoint: "above" 139 635 basechar 0
LayerCount: 2
Fore
SplineSet
19 397 m 1
 19 433 l 1
 120 437 148 551 149 635 c 1
 196 635 l 1
 196 444 l 1
 317 444 l 1
 317 397 l 1
 196 397 l 1
 196 118 l 2
 196 99 196 34 241 34 c 0
 270 34 286 69 286 123 c 2
 286 177 l 1
 333 177 l 1
 333 122 l 2
 333 62 304 -6 228 -6 c 0
 163 -6 82 15 82 123 c 2
 82 397 l 1
 19 397 l 1
EndSplineSet
EndChar

StartChar: u
Encoding: 117 117 125
Width: 555
Flags: HW
TeX: 444 0
HStem: -6 36<239.5 270> 395 55
VStem: 93 114<122 356 356 375.5> 370 114<163 356 356 375.5>
AnchorPoint: "ogonek" 430 0 basechar 0
AnchorPoint: "affricate-below" 555 -194 basechar 0
AnchorPoint: "affricate-above" 555 694 basechar 0
AnchorPoint: "below" 288 0 basechar 0
AnchorPoint: "above" 288 453 basechar 0
LayerCount: 2
Fore
SplineSet
24 395 m 1
 24 442 l 1
 207 450 l 1
 207 105 l 2
 207 52 208 30 271 30 c 0
 335 30 370 91 370 163 c 2
 370 356 l 2
 370 395 363 395 301 395 c 1
 301 442 l 1
 484 450 l 1
 484 86 l 2
 484 47 491 47 553 47 c 1
 553 0 l 1
 376 -6 l 1
 376 62 l 1
 375 62 l 1
 337 -6 283 -6 257 -6 c 0
 160 -6 93 22 93 122 c 2
 93 356 l 2
 93 395 86 395 24 395 c 1
EndSplineSet
EndChar

StartChar: v
Encoding: 118 118 126
Width: 527
Flags: HW
TeX: 444 0
ItalicCorrection: 13
HStem: -4 21<256 276.5> 397 47<22 84 22 22>
AnchorPoint: "affricate-below" 527 -194 basechar 0
AnchorPoint: "affricate-above" 527 694 basechar 0
AnchorPoint: "below" 264 0 basechar 0
AnchorPoint: "above" 264 453 basechar 0
LayerCount: 2
Fore
SplineSet
22 397 m 1
 22 444 l 1
 56 443 108 441 134 441 c 0
 164 441 228 443 257 444 c 1
 257 397 l 1
 200 397 l 1
 296 147 l 1
 383 373 l 2
 387 383 387 384 387 385 c 0
 387 396 343 397 336 397 c 1
 336 444 l 1
 350 443 394 441 426 441 c 0
 451 441 480 442 505 444 c 1
 505 397 l 1
 444 397 441 391 435 375 c 2
 299 23 l 2
 293 7 289 -4 264 -4 c 0
 248 -4 237 -2 227 24 c 2
 84 397 l 1
 22 397 l 1
EndSplineSet
EndChar

StartChar: w
Encoding: 119 119 127
Width: 722
Flags: HW
TeX: 444 0
ItalicCorrection: 13
HStem: -4 21<232 256.5 469 485> 397 47<21 79 21 21>
AnchorPoint: "affricate-below" 722 -194 basechar 0
AnchorPoint: "affricate-above" 722 694 basechar 0
AnchorPoint: "below" 360 0 basechar 0
AnchorPoint: "above" 360 453 basechar 0
LayerCount: 2
Fore
SplineSet
21 397 m 1
 21 444 l 1
 50 443 99 441 127 441 c 0
 150 441 208 443 236 444 c 1
 236 397 l 1
 194 397 l 1
 277 160 l 1
 331 315 l 2
 332 317 335 326 335 327 c 0
 335 329 328 349 311 397 c 1
 265 397 l 1
 265 444 l 1
 295 442 325 441 355 441 c 0
 383 441 437 443 467 444 c 1
 467 397 l 1
 408 397 l 1
 500 135 l 1
 584 372 l 1
 588 387 l 1
 566 397 545 397 527 397 c 1
 527 444 l 1
 551 443 594 441 623 441 c 0
 647 441 676 442 700 444 c 1
 700 397 l 1
 642 397 640 390 634 374 c 2
 511 22 l 2
 503 -1 493 -4 477 -4 c 0
 461 -4 450 -2 442 22 c 2
 360 256 l 1
 278 21 l 2
 273 6 269 -4 244 -4 c 0
 220 -4 216 6 210 23 c 2
 79 397 l 1
 21 397 l 1
EndSplineSet
EndChar

StartChar: x
Encoding: 120 120 128
Width: 527
Flags: HW
TeX: 444 0
HStem: 0 47<18 41.5> 397 47<22 90 22 22>
AnchorPoint: "affricate-below" 527 -194 basechar 0
AnchorPoint: "affricate-above" 527 694 basechar 0
AnchorPoint: "below" 264 0 basechar 0
AnchorPoint: "above" 264 453 basechar 0
LayerCount: 2
Fore
SplineSet
18 0 m 1
 18 47 l 1
 65 47 98 47 112 66 c 2
 218 211 l 1
 90 397 l 1
 22 397 l 1
 22 444 l 1
 58 442 91 441 129 441 c 0
 168 441 218 443 247 444 c 1
 247 397 l 1
 201 397 l 1
 276 289 l 1
 346 386 l 1
 330 396 319 397 299 397 c 1
 299 444 l 1
 327 443 377 441 402 441 c 0
 420 441 461 442 493 444 c 1
 493 397 l 1
 413 397 408 390 398 377 c 2
 304 249 l 1
 443 47 l 1
 511 47 l 1
 511 0 l 1
 477 1 433 3 404 3 c 0
 378 3 315 1 285 0 c 1
 285 47 l 1
 331 47 l 1
 246 170 l 1
 165 58 l 1
 178 50 182 48 211 47 c 1
 211 0 l 1
 190 1 133 3 109 3 c 0
 97 3 48 2 18 0 c 1
EndSplineSet
EndChar

StartChar: y
Encoding: 121 121 129
Width: 527
Flags: HW
TeX: 444 194
ItalicCorrection: 13
HStem: -200 36<108 121.5 108 150> 397 47<22 84 22 22>
VStem: 19 115<-124 -90.5 -124 -88.5>
AnchorPoint: "affricate-below" 527 -194 basechar 0
AnchorPoint: "affricate-above" 527 694 basechar 0
AnchorPoint: "below" 262 -194 basechar 0
AnchorPoint: "above" 262 453 basechar 0
LayerCount: 2
Fore
SplineSet
19 -108 m 0
 19 -69 48 -50 76 -50 c 0
 110 -50 134 -74 134 -107 c 0
 134 -141 112 -156 97 -162 c 1
 101 -163 103 -164 113 -164 c 0
 130 -164 166 -156 194 -108 c 0
 206 -87 230 -22 238 0 c 1
 84 397 l 1
 22 397 l 1
 22 444 l 1
 56 443 108 441 134 441 c 0
 164 441 228 443 257 444 c 1
 257 397 l 1
 201 397 l 1
 209 374 269 219 297 150 c 1
 382 372 l 2
 382 373 387 384 387 385 c 0
 387 397 336 397 335 397 c 1
 335 444 l 1
 348 443 394 441 426 441 c 0
 451 441 480 442 505 444 c 1
 505 397 l 1
 442 397 440 390 433 373 c 2
 256 -84 l 2
 238 -131 188 -200 112 -200 c 0
 57 -200 19 -155 19 -108 c 0
EndSplineSet
EndChar

StartChar: z
Encoding: 122 122 130
Width: 444
Flags: HW
TeX: 444 0
HStem: 0 40<159 214 214 275.5> 408 36<162 216 216 269>
VStem: 28 371
AnchorPoint: "affricate-below" 444 -194 basechar 0
AnchorPoint: "affricate-above" 444 694 basechar 0
AnchorPoint: "below" 214 0 basechar 0
AnchorPoint: "above" 214 453 basechar 0
LayerCount: 2
Fore
SplineSet
28 22 m 0
 28 31 28 33 36 44 c 2
 269 408 l 1
 216 408 l 2
 108 408 95 360 89 269 c 1
 42 269 l 1
 54 444 l 1
 367 444 l 2
 385 444 399 444 399 423 c 0
 399 417 399 414 391 402 c 2
 159 40 l 1
 214 40 l 2
 337 40 346 106 354 202 c 1
 401 202 l 1
 383 0 l 1
 60 0 l 2
 41 0 28 0 28 22 c 0
EndSplineSet
EndChar

StartChar: braceleft
Encoding: 123 123 131
Width: 500
Flags: HW
TeX: 749 249
HStem: -250 37<354.989 433.988> 230 43<66.0553 147.888> 706 44<339.417 433.583>
VStem: 193 114<-171.102 185.495 315.093 673.382>
LayerCount: 2
Fore
SplineSet
66 250 m 0
 66 272 85 266 110 273 c 0
 148 283 186 316 192 364 c 0
 193 373 193 382 193 391 c 2
 193 612 l 2
 193 723 321 750 410 750 c 0
 424 750 434 747 434 732 c 0
 434 709 411 717 378 706 c 0
 317 685 307 640 307 606 c 2
 307 386 l 2
 307 354 308 289 193 250 c 1
 306 211 307 150 307 114 c 2
 307 -105 l 2
 307 -191 379 -210 408 -213 c 0
 418 -214 434 -214 434 -232 c 0
 434 -243 427 -250 411 -250 c 2
 410 -250 l 2
 313 -250 205 -218 194 -131 c 0
 193 -123 193 -115 193 -107 c 2
 193 115 l 2
 193 207 119 227 95 230 c 0
 80 232 66 232 66 250 c 0
EndSplineSet
EndChar

StartChar: bar
Encoding: 124 124 132
Width: 278
Flags: HW
TeX: 749 249
VStem: 108 60<-247.925 748.031>
LayerCount: 2
Fore
SplineSet
108 -209 m 2
 108 705 l 2
 108 714 106 749 138 749 c 0
 150 749 168 744 168 710 c 2
 168 -205 l 2
 168 -220 168 -249 138 -249 c 0
 107 -249 108 -217 108 -209 c 2
EndSplineSet
EndChar

StartChar: braceright
Encoding: 125 125 133
Width: 500
Flags: HW
TeX: 749 249
HStem: -250 44<66.1502 157.304> 227 43<350.916 433.948> 713 37<66.0109 144.338>
VStem: 193 114<-169.721 184.094 312.703 670.177>
LayerCount: 2
Fore
SplineSet
66 -231 m 0
 66 -208 89 -217 121 -206 c 0
 154 -195 182 -169 190 -134 c 0
 192 -124 193 -114 193 -104 c 2
 193 114 l 2
 193 146 192 211 307 250 c 1
 194 289 193 350 193 386 c 2
 193 605 l 2
 193 691 120 710 91 713 c 0
 81 714 66 713 66 731 c 0
 66 746 77 750 88 750 c 2
 90 750 l 2
 174 750 293 725 306 631 c 0
 307 623 307 615 307 607 c 2
 307 384 l 2
 307 292 381 273 404 270 c 0
 419 268 434 268 434 250 c 0
 434 228 416 234 390 227 c 0
 352 217 314 184 308 136 c 0
 307 127 307 118 307 109 c 2
 307 -112 l 2
 307 -223 179 -250 91 -250 c 0
 79 -250 66 -248 66 -231 c 0
EndSplineSet
EndChar

StartChar: asciitilde
Encoding: 126 126 134
Width: 611
Flags: HW
TeX: 690 0
HStem: 587 75<283.838 474.712> 619 75<135.224 325.786>
LayerCount: 2
Fore
SplineSet
83 609 m 1
 123 660 137 694 205 694 c 0x40
 264 694 359 662 418 662 c 0x80
 462 662 480 676 499 694 c 1x40
 527 672 l 1
 487 621 473 587 405 587 c 0x80
 337 587 260 619 192 619 c 0x40
 144 619 125 601 111 587 c 1x80
 83 609 l 1
EndSplineSet
EndChar

StartChar: Abreve
Encoding: 258 258 136
Width: 755
Flags: HW
TeX: 894 0
HStem: 0 48<35 127.811 184.012 259 407 490 635 720> 181 48<240 426> 678 20<365.5 389.5> 755 63<293.637 461.893>
VStem: 221 36<853.511 894> 498 37<853.845 894>
DStem2: 130 75 224 181 0.33141 0.943487<5.95221 131.162 181.752 460.71> 417 667 333 492 0.332182 -0.943215<137.159 416.118 467.039 608.1>
AnchorPoint: "below" 378 0 basechar 0
AnchorPoint: "above" 378 873 basechar 0
LayerCount: 2
Fore
SplineSet
221 894 m 1
 257 894 l 1
 264 824 348 818 378 818 c 0
 407 818 491 824 498 894 c 1
 535 894 l 1
 531 801 450 755 378 755 c 0
 306 755 225 800 221 894 c 1
EndSplineSet
Refer: 73 65 S 1 0 0 1 0 0 3
AlternateSubs2: "Stilistic set 01 subtable" Abreve.vn
AlternateSubs2: "Latin alternatives subtable" Abreve.vn
Substitution2: "Latin Vietnamese substitutions subtable" Abreve.vn
EndChar

StartChar: Aogonek
Encoding: 260 260 137
Width: 755
Flags: HW
TeX: 690 194
HStem: -205 65<594.981 666.246> 0 48<35 127.811 184.013 259 407 490 635 720> 181 48<240 426> 678 20G<365.5 392>
VStem: 503 74<-122.368 -24.5186>
DStem2: 130 75 224 181 0.33141 0.943487<5.95221 131.162 181.752 460.71> 417 667 333 492 0.332182 -0.943215<137.159 416.118 467.039 608.1>
AnchorPoint: "above" 377 697 basechar 0
LayerCount: 2
Fore
SplineSet
35 0 m 1
 35 48 l 1
 119 48 122 53 130 75 c 2
 339 670 l 2
 347 691 354 698 377 698 c 0
 407 698 411 685 417 667 c 2
 635 48 l 1
 720 48 l 1
 720 0 l 1
 685 1 661 2 645 2 c 0
 613 2 609 -1 596 -16 c 0
 576 -38 577 -62 577 -67 c 0
 577 -108 608 -140 629 -140 c 0
 646 -140 653 -123 667 -123 c 0
 675 -123 693 -132 693 -146 c 0
 693 -165 654 -205 607 -205 c 0
 555 -205 503 -157 503 -94 c 0
 503 -54 519 -27 547 3 c 1
 407 0 l 1
 407 48 l 1
 490 48 l 1
 443 181 l 1
 224 181 l 1
 192 90 184 69 184 62 c 0
 184 53 201 48 259 48 c 1
 259 0 l 1
 219 2 179 3 139 3 c 0
 118 3 97 3 35 0 c 1
240 229 m 1
 426 229 l 1
 333 492 l 1
 240 229 l 1
EndSplineSet
Ligature2: "Latin ligatures subtable" A uni0328
EndChar

StartChar: Cacute
Encoding: 262 262 138
Width: 722
Flags: HW
TeX: 879 0
HStem: -11 48<332.628 516.183> 649 48<332.426 505.844>
VStem: 55 153<209.547 477.407> 598 68<429.85 552.222> 618 48<144.679 246.954>
AnchorPoint: "below" 408 0 basechar 0
AnchorPoint: "above" 407 859 basechar 0
LayerCount: 2
Fore
SplineSet
309 777 m 1
 422 866 431 879 457 879 c 0xe0
 491 879 515 844 515 814 c 0
 515 758 464 760 329 734 c 1
 309 777 l 1
EndSplineSet
Refer: 75 67 S 1 0 0 1 -0 -0 3
EndChar

StartChar: Ccaron
Encoding: 268 268 139
Width: 722
Flags: HW
TeX: 894 0
HStem: -11 48<332.628 516.183> 649 48<332.426 505.844> 769 92<395.72 461.602>
VStem: 55 153<209.547 477.407> 598 68<429.85 552.222> 618 48<144.679 246.954>
AnchorPoint: "below" 408 0 basechar 0
AnchorPoint: "above" 407 883 basechar 0
LayerCount: 2
Fore
SplineSet
283 878 m 1
 297 903 l 1
 415 864 423 861 429 861 c 2xf0
 430 861 l 2
 435 861 437 862 560 903 c 1
 574 878 l 1
 434 769 437 769 429 769 c 0
 420 769 423 769 283 878 c 1
EndSplineSet
Refer: 75 67 S 1 0 0 1 0 0 3
EndChar

StartChar: Dcaron
Encoding: 270 270 140
Width: 766
Flags: HW
TeX: 894 0
HStem: 0 48<33 128 264 463.697> 638 48<33 128 264 459.571> 769 92<300.72 366.602>
VStem: 128 136<48 638> 563 147<202.807 479.096>
AnchorPoint: "below" 350 0 basechar 0
AnchorPoint: "above" 350 894 basechar 0
LayerCount: 2
Fore
SplineSet
188 878 m 1
 202 903 l 1
 320 864 328 861 334 861 c 2
 335 861 l 2
 340 861 343 862 466 903 c 1
 479 878 l 1
 339 769 342 769 334 769 c 0
 325 769 328 769 188 878 c 1
EndSplineSet
Refer: 76 68 S 1 0 0 1 0 0 3
EndChar

StartChar: Ecaron
Encoding: 282 282 141
Width: 655
Flags: HW
TeX: 894 0
HStem: 0 48<33 128 270 477.437> 329 48<270 364.779> 633 47<33 128 270 474.754> 769 92<265.089 330.602>
VStem: 128 142<48 329 377 633> 387 47<212 307.868 399.676 494> 552 47<438 494.467>
AnchorPoint: "below" 330 0 basechar 0
AnchorPoint: "above" 330 900 basechar 0
LayerCount: 2
Fore
SplineSet
153 878 m 1
 166 903 l 1
 284 864 292 861 298 861 c 2
 299 861 l 2
 304 861 307 862 430 903 c 1
 443 878 l 1
 303 769 306 769 298 769 c 0
 289 769 293 769 153 878 c 1
EndSplineSet
Refer: 77 69 S 1 0 0 1 0 0 3
EndChar

StartChar: Eogonek
Encoding: 280 280 142
Width: 655
Flags: HW
TeX: 690 194
HStem: -205 65<492.143 562.544> -0 48<33 128 270 440.037> 329 48<270 364.779> 633 47<33 128 270 474.754>
VStem: 128 142<48 329 377 633> 387 47<212 307.868 399.676 494> 400 74<-122.544 -25.1949> 552 47<438 494.467> 579 48<233.152 275>
AnchorPoint: "above" 301 697 basechar 0
LayerCount: 2
Fore
SplineSet
33 -0 m 1
 33 48 l 1
 128 48 l 1
 128 633 l 1
 33 633 l 1
 33 680 l 1
 569 680 l 1
 599 438 l 1
 552 438 l 1xfb
 543 507 535 570 486 604 c 0
 447 632 397 633 351 633 c 2
 270 633 l 1
 270 377 l 1
 287 377 l 2
 384 377 387 422 387 494 c 1
 434 494 l 1
 434 212 l 1
 387 212 l 1
 387 289 381 329 287 329 c 2
 270 329 l 1
 270 48 l 1
 358 48 l 2
 530 48 553 121 579 275 c 1
 627 275 l 1
 581 -0 l 1xfc80
 528 -0 l 2
 492 0 474 -38 474 -66 c 0
 474 -107 505 -140 525 -140 c 0
 541 -140 551 -123 565 -123 c 0
 575 -123 590 -134 590 -146 c 0
 590 -160 554 -205 503 -205 c 0
 445 -205 400 -150 400 -93 c 0
 400 -51 422 -22 441 -0 c 1
 33 -0 l 1
EndSplineSet
EndChar

StartChar: Gbreve
Encoding: 286 286 143
Width: 786
Flags: HW
TeX: 894 0
HStem: -11 48<334.495 493.623> 228 45<399 524 666 735> 649 48<339.453 545.612> 755 63<327.605 494.893>
VStem: 55 153<211.397 477.027> 254 36<853.511 894> 524 142<67.127 228> 531 37<853.845 894>
LayerCount: 2
Fore
SplineSet
55 342 m 0
 55 552 192 697 412 697 c 0
 516 697 560 667 575 667 c 0
 590 667 628 696 648 696 c 0
 658 696 666 690 666 671 c 2
 666 565 l 2xfe
 666 542 661 536 639 536 c 0
 598 536 626 559 585 600 c 0
 546 639 483 649 440 649 c 0
 362 649 300 619 262 572 c 0
 213 512 208 422 208 357 c 2
 208 345 l 2
 208 284 209 199 247 135 c 0
 290 63 368 37 430 37 c 0
 465 37 524 55 524 128 c 2
 524 228 l 1
 399 228 l 1
 399 275 l 1
 462 273 524 273 587 273 c 0
 631 273 676 273 735 275 c 1
 735 228 l 1
 666 228 l 1
 666 22 l 1
 665 12 663 2 651 2 c 0
 643 2 589 24 555 52 c 1
 537 30 496 -11 408 -11 c 0
 205 -11 55 124 55 342 c 0
254 894 m 1
 290 894 l 1
 297 824 380 818 411 818 c 0xfd
 440 818 524 824 531 894 c 1
 568 894 l 1
 564 801 483 755 411 755 c 0
 339 755 258 800 254 894 c 1
EndSplineSet
EndChar

StartChar: Lcaron
Encoding: 317 317 145
Width: 600
Flags: HW
TeX: 894 0
HStem: 0 48<33 128 270 417.991> 638 47<33 128 270 328>
VStem: 128 142<48 638> 300 170<695.948 787.6> 510 48<212.903 275>
LayerCount: 2
Fore
SplineSet
33 0 m 1
 33 48 l 1
 128 48 l 1
 128 638 l 1
 33 638 l 1
 33 686 l 1
 90 684 147 683 204 683 c 0
 216 683 303 684 328 685 c 1
 310 704 300 719 300 745 c 0
 300 789 332 824 377 824 c 0
 424 824 470 785 470 721 c 0
 470 611 378 540 355 540 c 0
 345 540 335 549 335 558 c 0
 335 581 405 586 429 685 c 1
 417 677 409 672 388 669 c 1
 388 638 l 1
 270 638 l 1
 270 48 l 1
 332 48 l 2
 360 48 418 51 462 110 c 0
 497 157 504 218 510 275 c 1
 558 275 l 1
 527 0 l 1
 33 0 l 1
EndSplineSet
EndChar

StartChar: Lslash
Encoding: 321 321 146
Width: 600
Flags: HW
TeX: 690 0
HStem: 0 48<33 128 270 417.991> 638 48<33 128 270 388>
VStem: 128 142<48 265 310.158 401.996 448 638> 510 48<212.903 275>
DStem2: 43 256 73 220 0.763546 0.645754<0 70.0111 297.31 474.427>
LayerCount: 2
Fore
SplineSet
33 0 m 1
 33 48 l 1
 128 48 l 1
 128 265 l 1
 73 220 l 1
 43 256 l 1
 129 328 127 324 128 343 c 1
 128 638 l 1
 33 638 l 1
 33 686 l 1
 75 685 116 683 167 683 c 0
 189 683 212 683 388 686 c 1
 388 638 l 1
 270 638 l 1
 270 448 l 1
 406 563 l 1
 436 526 l 1
 290 402 l 2
 273 388 271 387 270 370 c 1
 270 48 l 1
 332 48 l 2
 360 48 418 51 462 110 c 0
 497 157 504 218 510 275 c 1
 558 275 l 1
 527 0 l 1
 33 0 l 1
EndSplineSet
EndChar

StartChar: Ncaron
Encoding: 327 327 148
Width: 783
Flags: HW
TeX: 894 0
HStem: 0 48<33 127.904 181.221 275> 638 48<33 128 507 601.459 655.111 749> 769 92<358.089 424.218>
VStem: 128 53<51.1869 589> 602 53<225 634.997>
DStem2: 279 668 181 589 0.588684 -0.808363<6.16969 548.25>
LayerCount: 2
Fore
SplineSet
246 878 m 1
 259 903 l 1
 377 864 385 861 391 861 c 2
 392 861 l 2
 397 861 400 862 523 903 c 1
 537 878 l 1
 397 769 399 769 391 769 c 0
 382 769 386 769 246 878 c 1
EndSplineSet
Refer: 86 78 S 1 0 0 1 0 0 3
EndChar

StartChar: Eng
Encoding: 330 330 149
Width: 794
Flags: HW
TeX: 690 0
HStem: -11 37<453.75 563.454> 0 48<33 128 270 310> 638 45<33 128> 653 53<338.982 496.122>
VStem: 128 142<48 605.971> 349 153<61.9844 167.944> 596 142<72.5312 547.333>
LayerCount: 2
Fore
SplineSet
33 0 m 1
 33 48 l 1
 128 48 l 1
 128 638 l 1
 33 638 l 1
 33 686 l 1
 217 683 l 1x6e
 270 686 l 1
 270 646 l 1
 317 679 374 706 456 706 c 0
 594 706 738 615 738 452 c 2
 738 154 l 2
 738 22 613 -11 524 -11 c 0
 424 -11 349 38 349 113 c 0
 349 159 383 191 425 191 c 0
 467 191 502 159 502 114 c 0x9e
 502 70 474 51 452 41 c 1
 474 31 495 26 514 26 c 0
 547 26 574 43 587 83 c 0
 596 108 596 134 596 160 c 2
 596 439 l 2
 596 455 596 470 594 486 c 0
 580 588 499 653 413 653 c 0x9e
 330 653 279 596 273 586 c 0
 268 577 270 566 270 556 c 2
 270 48 l 1
 310 48 l 1
 310 0 l 1
 270 2 229 3 188 3 c 0
 136 3 85 2 33 0 c 1
EndSplineSet
EndChar

StartChar: Ohungarumlaut
Encoding: 336 336 150
Width: 750
Flags: HW
TeX: 879 0
HStem: -11 43<304.184 442.931> 656 41<305.562 444.261> 734 145<341.143 382 422.839 430.375 507.802 540.533>
VStem: 55 153<201.756 478.666> 541 153<202.581 479.078>
AnchorPoint: "below" 374 0 basechar 0
AnchorPoint: "above" 375 859 basechar 0
LayerCount: 2
Fore
SplineSet
240 777 m 1
 353 866 363 879 388 879 c 0
 409 879 444 862 446 809 c 1
 526 872 532 879 555 879 c 0
 586 879 612 846 612 814 c 0
 612 759 561 760 426 734 c 1
 412 765 l 1
 397 760 382 758 260 734 c 1
 240 777 l 1
EndSplineSet
Refer: 87 79 S 1 0 0 1 -0 -0 3
EndChar

StartChar: Racute
Encoding: 340 340 151
Width: 759
Flags: HW
TeX: 879 0
HStem: -11 37<623.121 690.27> 0 48<33 128 264 359> 325 36<264 404.636> 638 48<33 128 264 439.988>
VStem: 128 136<48 325 361 638> 481 153<426.718 579.28> 707 49<37.9885 116.862>
AnchorPoint: "below" 308 0 basechar 0
AnchorPoint: "above" 308 870 basechar 0
LayerCount: 2
Fore
SplineSet
294 777 m 1
 407 866 417 879 443 879 c 0x3e
 477 879 500 844 500 814 c 0
 500 759 449 760 314 734 c 1
 294 777 l 1
EndSplineSet
Refer: 90 82 S 1 0 0 1 0 -0 3
EndChar

StartChar: Rcaron
Encoding: 344 344 152
Width: 759
Flags: HW
TeX: 894 0
HStem: -11 37<623.121 690.27> 0 48<33 128 264 359> 325 36<264 404.636> 638 48<33 128 264 439.988> 769 92<293.089 359.218>
VStem: 128 136<48 325 361 638> 481 153<426.718 579.28> 707 49<37.9885 116.862>
AnchorPoint: "below" 308 0 basechar 0
AnchorPoint: "above" 308 894 basechar 0
LayerCount: 2
Fore
SplineSet
181 878 m 1
 194 903 l 1
 312 864 320 861 326 861 c 2x3f
 327 861 l 2
 332 861 335 862 458 903 c 1
 472 878 l 1
 332 769 334 769 326 769 c 0
 317 769 321 769 181 878 c 1
EndSplineSet
Refer: 90 82 S 1 0 0 1 0 -0 3
EndChar

StartChar: Sacute
Encoding: 346 346 153
Width: 555
Flags: HW
TeX: 879 0
HStem: -11 48<198.536 363.473> 653 44<187.689 335.657>
VStem: 55 49<126.503 227.883> 55 98<482.362 594.602> 401 98<98.7428 228.435> 416 55<458.793 569.506>
AnchorPoint: "below" 302 0 basechar 0
AnchorPoint: "above" 251 859 basechar 0
LayerCount: 2
Fore
SplineSet
170 777 m 1
 283 866 293 879 319 879 c 0xc0
 353 879 376 844 376 814 c 0
 376 758 325 760 190 734 c 1
 170 777 l 1
EndSplineSet
Refer: 91 83 S 1 0 0 1 -0 -0 3
EndChar

StartChar: Scaron
Encoding: 352 352 154
Width: 555
Flags: HW
TeX: 894 0
HStem: -11 48<198.536 363.473> 653 44<187.689 335.657> 769 92<244.089 310.218>
VStem: 55 49<126.503 227.883> 55 98<482.362 594.602> 401 98<98.7428 228.435> 416 55<458.793 569.506>
AnchorPoint: "below" 302 0 basechar 0
AnchorPoint: "above" 251 883 basechar 0
LayerCount: 2
Fore
SplineSet
132 878 m 1
 145 903 l 1
 263 864 271 861 277 861 c 2xe0
 278 861 l 2
 283 861 286 862 409 903 c 1
 423 878 l 1
 283 769 285 769 277 769 c 0
 268 769 272 769 132 878 c 1
EndSplineSet
Refer: 91 83 S 1 0 0 1 0 0 3
EndChar

StartChar: Scedilla
Encoding: 350 350 155
Width: 555
Flags: HW
TeX: 690 170
HStem: -200 37<165 304.888> -60 97<248.008 316.081> -10 21G<65 79.5> 653 44<187.558 335.964>
VStem: 55 98<482.828 594.521> 55 49<126.503 227.883> 330 115<-144.146 -75.7506> 401 98<97.3497 227.153> 416 55<458.976 570.774>
DStem2: 218 449 190 303 0.951231 -0.30848<-55.0712 230.742>
LayerCount: 2
Fore
SplineSet
55 16 m 2
 55 202 l 2xb6
 55 221 60 228 79 228 c 0
 107 228 102 210 104 192 c 0
 119 54 252 37 301 37 c 0
 368 37 401 88 401 153 c 0xd5
 401 198 382 239 347 259 c 0
 323 273 232 289 190 303 c 0
 120 326 55 396 55 496 c 0
 55 611 128 697 251 697 c 0
 337 697 382 655 393 646 c 1
 394 646 l 1
 435 688 442 696 454 696 c 0
 470 696 471 682 471 670 c 2
 471 483 l 2
 471 468 469 458 447 458 c 0
 419 458 426 474 416 515 c 0xd880
 392 612 326 653 252 653 c 0
 173 653 153 589 153 550 c 0
 153 502 181 463 218 449 c 0
 232 444 351 415 365 410 c 0
 444 382 499 302 499 203 c 0xd9
 499 29 362 -3 362 -3 c 1
 362 -32 l 1
 373 -34 445 -48 445 -111 c 0
 445 -192 306 -200 218 -200 c 0
 196 -200 178 -199 165 -199 c 1
 165 -163 l 1
 175 -163 l 2
 261 -163 330 -156 330 -112 c 0
 330 -91 315 -62 248 -60 c 1xd2
 248 -6 l 1
 212 0 172 11 134 40 c 1
 133 40 l 1
 103 10 87 -10 72 -10 c 0
 58 -10 55 2 55 16 c 2
EndSplineSet
EndChar

StartChar: Tcaron
Encoding: 356 356 156
Width: 694
Flags: HW
TeX: 894 0
HStem: 3 45<142 275 417 550> 627 48<139.975 275 417 549.137> 769 92<313.336 379.218>
VStem: 35 48<433 513.667> 275 142<48 627> 609 48<433 510>
CounterMasks: 1 1c
AnchorPoint: "below" 347 0 basechar 0
AnchorPoint: "above" 347 905 basechar 0
LayerCount: 2
Fore
SplineSet
201 878 m 1
 215 903 l 1
 333 864 340 861 346 861 c 2
 347 861 l 2
 352 861 355 862 478 903 c 1
 492 878 l 1
 352 769 354 769 346 769 c 0
 337 769 341 769 201 878 c 1
EndSplineSet
Refer: 92 84 S 1 0 0 1 0 0 3
EndChar

StartChar: Tcommaaccent
Encoding: 354 354 157
Width: 694
Flags: HW
TeX: 690 170
HStem: -200 37<206 347.464> 3 45<142 275 417 550> 627 48<142.06 275 417 549.573>
VStem: 35 48<433 513.667> 275 142<48 627> 372 114<-144.008 -75.4657> 609 48<433 510>
LayerCount: 2
Fore
SplineSet
35 433 m 1
 56 675 l 1
 635 675 l 1
 657 433 l 1
 609 433 l 1
 600 528 598 627 466 627 c 2xfa
 417 627 l 1
 417 48 l 1xfa
 550 48 l 1
 550 0 l 1
 403 3 l 1
 403 -32 l 1
 414 -34 486 -48 486 -111 c 0
 486 -192 349 -200 261 -200 c 0
 238 -200 219 -199 206 -199 c 1
 206 -163 l 1
 216 -163 l 2
 311 -163 372 -153 372 -112 c 0xf6
 372 -92 358 -62 289 -60 c 1
 289 3 l 1
 142 0 l 1
 142 48 l 1
 275 48 l 1
 275 627 l 1
 237 627 l 2
 219 627 202 627 184 623 c 0
 101 603 93 543 83 433 c 1
 35 433 l 1
EndSplineSet
EndChar

StartChar: Uhungarumlaut
Encoding: 368 368 158
Width: 769
Flags: HW
TeX: 879 0
HStem: -11 48<329.054 498.874> 638 48<33 127 269 363 493 586.757 640.232 734> 734 145<350.143 391 431.839 439.533 516.802 552.738>
VStem: 127 142<128.236 638> 587 53<130.068 634.579>
AnchorPoint: "below" 404 0 basechar 0
AnchorPoint: "above" 384 870 basechar 0
LayerCount: 2
Fore
SplineSet
249 777 m 1
 362 866 372 879 397 879 c 0
 419 879 455 860 455 809 c 1
 535 872 541 879 564 879 c 0
 596 879 621 846 621 814 c 0
 621 758 569 760 435 734 c 1
 421 765 l 1
 406 760 391 758 269 734 c 1
 249 777 l 1
EndSplineSet
Refer: 93 85 S 1 0 0 1 0 0 3
EndChar

StartChar: Ydieresis
Encoding: 376 376 160
Width: 755
Flags: HW
TeX: 894 0
ItalicCorrection: 24
HStem: 3 45<214 308 445 539> 638 48<15 100 258 332 517 581.989 641.924 738> 738 156<227.374 333.002 421.374 526.15>
VStem: 202 155<762.792 869.625> 308 137<48 308.219> 396 155<762.395 869.208>
DStem2: 258 638 100 638 0.496679 -0.867934<0 336.188> 425 346 460 301 0.498838 0.866695<0 320.827>
AnchorPoint: "below" 376 0 basechar 0
AnchorPoint: "above" 376 885 basechar 0
LayerCount: 2
Fore
SplineSet
202 816 m 0
 202 859 236 894 279 894 c 0
 326 894 357 855 357 816 c 0xf0
 357 777 326 738 280 738 c 0
 240 738 202 771 202 816 c 0
396 816 m 0
 396 855 428 894 474 894 c 0
 514 894 551 861 551 816 c 0
 551 773 517 738 474 738 c 0xe4
 434 738 396 770 396 816 c 0
EndSplineSet
Refer: 97 89 S 1 0 0 1 0 -0 3
EndChar

StartChar: Zcaron
Encoding: 381 381 162
Width: 611
Flags: HW
TeX: 894 0
HStem: 0 52<214 419.057> 444 21<69 120.5> 638 48<205.089 396> 769 92<254.089 320.218>
VStem: 69 48<444 547.197> 512 48<174.167 285>
DStem2: 65 58 214 52 0.495655 0.868519<68.6415 667.803>
AnchorPoint: "below" 308 0 basechar 0
AnchorPoint: "above" 308 894 basechar 0
LayerCount: 2
Fore
SplineSet
142 878 m 1
 155 903 l 1
 273 864 281 861 287 861 c 2
 288 861 l 2
 293 861 296 862 419 903 c 1
 433 878 l 1
 293 769 295 769 287 769 c 0
 278 769 282 769 142 878 c 1
EndSplineSet
Refer: 98 90 S 1 0 0 1 0 0 3
EndChar

StartChar: IJ
Encoding: 306 306 164
Width: 897
Flags: HW
TeX: 690 0
HStem: -11 37<484.507 598.198> 0 48<28 127 269 368> 638 48<28 127 269 368 509 632 768 839>
VStem: 127 142<48 638> 379 153<59.9947 168.468> 632 136<71.5392 638>
LayerCount: 2
Fore
SplineSet
28 0 m 1
 28 48 l 1
 127 48 l 1
 127 638 l 1
 28 638 l 1
 28 686 l 1
 87 684 146 683 205 683 c 0
 260 683 314 684 368 686 c 1
 368 638 l 1
 269 638 l 1
 269 48 l 1
 368 48 l 1
 368 -0 l 1x7c
 309 2 252 3 193 3 c 0
 177 3 127 3 28 0 c 1
379 114 m 0
 379 160 414 191 456 191 c 0
 499 191 532 158 532 114 c 0
 532 70 505 52 483 42 c 1
 507 30 529 26 549 26 c 0
 598 26 632 63 632 157 c 2
 632 638 l 1
 509 638 l 1
 509 686 l 1
 571 684 632 683 694 683 c 0
 752 683 795 684 839 686 c 1
 839 638 l 1
 768 638 l 1
 768 175 l 2
 768 168 769 161 769 154 c 0xbc
 769 29 656 -11 555 -11 c 0
 454 -11 379 39 379 114 c 0
EndSplineSet
Ligature2: "Latin Dutch ligatures subtable" I J
EndChar

StartChar: dcroat
Encoding: 273 273 166
Width: 555
Flags: HW
TeX: 690 0
HStem: -5 36<203.135 310.184> -0 48<471.138 540> 413 37<207.509 321.999> 520 48<179 362 470 522> 638 48<292 360.701> 674 20G<292 470>
VStem: 33 128<111.606 326.992> 356 114<69.0063 385.202 412 520 568 636.525>
LayerCount: 2
Fore
SplineSet
33 222 m 0
 33 367 130 450 251 450 c 0
 293 450 326 438 362 412 c 1
 362 520 l 1
 179 520 l 1
 179 568 l 1
 362 568 l 1
 362 592 l 2
 362 631 361 638 301 638 c 2
 292 638 l 1
 292 686 l 1xbb
 470 694 l 1
 470 568 l 1
 522 568 l 1
 522 520 l 1
 470 520 l 1
 470 80 l 1
 471 52 483 48 529 48 c 2
 540 48 l 1
 540 -0 l 1x77
 356 -5 l 1
 356 35 l 1
 324 11 291 -5 241 -5 c 0
 122 -5 33 80 33 222 c 0
161 215 m 2
 161 172 161 134 171 98 c 0
 183 54 217 31 254 31 c 0
 282 31 311 44 335 69 c 0
 356 90 356 99 356 118 c 2
 356 344 l 2xb3
 356 385 301 413 262 413 c 0
 246 413 185 408 168 327 c 0
 163 301 162 277 161 248 c 1
 161 215 l 2
EndSplineSet
AlternateSubs2: "Stilistic set 01 subtable" dcroat.vn
AlternateSubs2: "Latin alternatives subtable" dcroat.vn
Substitution2: "Latin Vietnamese substitutions subtable" dcroat.vn
EndChar

StartChar: section
Encoding: 167 167 167
Width: 475
Flags: HW
TeX: 690 194
HStem: -200 37<172.236 287.869> 663 36<186.656 298.447>
VStem: 69 70<218.825 330.856 507.634 616.561> 83 113<-118.041 -29.2021> 277 114<528.795 617.919> 334 70<-117.335 -6.66467 169.461 280.911>
LayerCount: 2
Fore
SplineSet
69 254 m 0
 69 331 121 370 137 382 c 1
 69 452 69 523 69 541 c 0
 69 636 151 699 238 699 c 0
 323 699 391 643 391 576 c 0xe8
 391 538 363 517 334 517 c 0xc4
 304 517 277 539 277 573 c 0
 277 594 286 618 320 629 c 1
 299 648 275 663 238 663 c 0
 170 663 139 590 139 548 c 0xe8
 139 499 208 481 251 463 c 0
 323 433 404 357 404 245 c 0
 404 169 352 130 336 118 c 1
 404 48 404 -24 404 -42 c 0
 404 -137 323 -200 236 -200 c 0
 151 -200 83 -143 83 -76 c 0
 83 -38 111 -17 140 -17 c 0
 170 -17 196 -40 196 -74 c 0xd4
 196 -94 187 -118 153 -130 c 1
 174 -149 198 -163 235 -163 c 0
 303 -163 334 -91 334 -49 c 0
 334 -1 277 14 222 37 c 0
 150 67 69 142 69 254 c 0
139 260 m 0
 139 201 228 195 297 150 c 1
 298 150 l 1
 331 187 334 223 334 240 c 0xe4
 334 300 244 305 176 350 c 1
 175 350 l 1
 157 330 139 300 139 260 c 0
EndSplineSet
EndChar

StartChar: abreve
Encoding: 259 259 168
Width: 486
Flags: HW
TeX: 648 0
HStem: -5 36<167.716 261.84> 0 59<417.477 480.838> 233 32<232.003 303> 416 37<160.274 267.907> 494 62<172.593 325.084> 633 20G<92 130.5 367.5 406>
VStem: 27 117<51.2835 172.863> 55 125<313.19 409.438> 92 36<605.162 653> 303 114<67.0832 233 265 376.096> 370 36<603.394 653>
AnchorPoint: "below" 220 0 basechar 0
AnchorPoint: "above" 220 633 basechar 0
LayerCount: 2
Fore
SplineSet
92 653 m 1
 128 653 l 1
 133 581 201 556 249 556 c 0x3ca0
 304 556 365 586 370 653 c 1
 406 653 l 1
 403 548 323 494 249 494 c 0
 173 494 94 553 92 653 c 1
EndSplineSet
Refer: 105 97 S 1 0 0 1 0 0 3
AlternateSubs2: "Stilistic set 01 subtable" abreve.vn
AlternateSubs2: "Latin alternatives subtable" abreve.vn
Substitution2: "Latin Vietnamese substitutions subtable" abreve.vn
EndChar

StartChar: aogonek
Encoding: 261 261 169
Width: 486
Flags: HW
TeX: 444 194
HStem: -205 66<377.63 446.526> -5 36<167.722 261.877> 233 32<232.003 303> 416 37<160.274 267.923>
VStem: 27 117<49.9943 172.863> 55 125<313.79 409.253> 286 74<-123.436 -24.1148> 303 114<68.7697 233 265 375.919>
AnchorPoint: "above" 219 453 basechar 0
LayerCount: 2
Fore
SplineSet
27 109 m 0xfa
 27 150 52 188 87 212 c 0
 155 259 270 264 303 265 c 1
 303 296 l 2
 303 362 284 416 212 416 c 0
 197 416 180 414 158 410 c 1
 172 394 180 382 180 361 c 0
 180 322 150 299 117 299 c 0
 83 299 55 323 55 361 c 0xf5
 55 398 79 453 219 453 c 0
 379 453 410 359 415 328 c 0
 417 316 417 303 417 290 c 2
 417 85 l 2
 417 25 484 70 484 24 c 0
 484 2 469 0 453 -0 c 2
 409 -0 l 2
 375 0 360 -40 360 -65 c 0
 360 -109 390 -139 410 -139 c 0
 428 -139 435 -120 450 -120 c 0
 462 -120 475 -132 476 -143 c 1
 475 -162 436 -205 387 -205 c 0
 327 -205 286 -148 286 -93 c 0
 286 -45 313 -11 344 17 c 1
 321 36 320 46 319 75 c 1
 304 43 269 -5 194 -5 c 0
 139 -5 27 17 27 109 c 0xfa
144 109 m 0xf9
 144 67 170 31 209 31 c 0
 238 31 303 51 303 141 c 2
 303 233 l 1
 226 224 144 197 144 109 c 0xf9
EndSplineSet
EndChar

StartChar: dcaron
Encoding: 271 271 172
Width: 725
Flags: HW
TeX: 690 0
HStem: -5 36<203.135 310.184> -0 48<471.107 540> 413 37<207.509 321.999> 599 155<530.669 635.887> 638 48<292 360.748> 674 20<292 470>
VStem: 33 128<111.606 326.992> 356 114<69.0063 385.202 412 636.389> 508 169<624.567 717.564>
LayerCount: 2
Fore
SplineSet
508 676 m 0
 508 718 539 754 586 754 c 0
 634 754 677 713 677 650 c 0
 677 538 583 470 562 470 c 0
 553 470 543 480 543 489 c 0
 543 511 611 516 637 616 c 1
 620 604 607 599 586 599 c 0x3380
 539 599 508 633 508 676 c 0
EndSplineSet
Refer: 108 100 S 1 0 0 1 0 -0 2
EndChar

StartChar: eogonek
Encoding: 281 281 174
Width: 467
Flags: HW
TeX: 444 194
HStem: -205 65<309.333 381.052> -5 40<205.845 254> 218 33<155 342> 416 37<198.814 294.095>
VStem: 27 128<121.937 218 251 329.048> 218 74<-123.455 -24.0927> 342 95<251 355.057> 387 49<78.4981 134.586>
AnchorPoint: "above" 246 453 basechar 0
LayerCount: 2
Fore
SplineSet
27 226 m 0
 28 362 115 453 247 453 c 0
 399 453 437 337 437 245 c 0xfe
 437 220 424 218 407 218 c 2
 155 218 l 1
 155 198 l 2
 155 58 223 35 268 35 c 0
 326 35 371 73 387 112 c 0
 392 123 396 135 414 135 c 0
 430 135 436 127 436 116 c 0xfd
 436 94 410 57 385 37 c 0
 344 4 292 -9 292 -67 c 0
 292 -108 322 -140 343 -140 c 0
 360 -140 368 -123 382 -123 c 0
 389 -123 408 -132 408 -146 c 0
 408 -165 368 -205 322 -205 c 0
 266 -205 218 -154 218 -93 c 0
 218 -58 231 -33 254 -5 c 1
 98 1 27 104 27 226 c 0
155 251 m 1
 342 251 l 1
 341 285 341 391 269 413 c 0
 262 415 255 416 247 416 c 0xfe
 216 416 189 396 175 370 c 0
 158 339 156 294 155 251 c 1
EndSplineSet
EndChar

StartChar: gbreve
Encoding: 287 287 175
Width: 500
Flags: HW
TeX: 648 194
ItalicCorrection: 13
HStem: -200 36<162.087 337.182> -13 97<121.512 364.669> 155 36<173.578 268.551> 354 101<403.817 472.716> 413 37<174.261 269.588> 494 62<172.843 325.084> 633 20G<92 131.5 367.5 406>
VStem: 26 86<-125.304 -22.4983> 41 111<227.317 376.111> 56 48<97.524 178.469> 92 37<602.914 653> 291 111<227.822 377.401> 370 36<603.394 653> 386 87<-126.031 -33.5971> 399 86<359.719 414.042>
LayerCount: 2
Fore
SplineSet
92 653 m 1
 129 653 l 1
 134 581 201 556 249 556 c 0xe628
 304 556 365 586 370 653 c 1
 406 653 l 1
 403 548 323 494 249 494 c 0
 173 494 94 553 92 653 c 1
EndSplineSet
Refer: 111 103 S 1 0 0 1 0 0 3
EndChar

StartChar: lcaron
Encoding: 318 318 177
Width: 458
Flags: HW
TeX: 690 0
HStem: 3 45<26 95 204 273> 599 155<263.669 369.203> 638 48<26 93.8926> 674 20<26 204>
VStem: 95 109<48 635.759> 241 170<624.766 717.564>
LayerCount: 2
Fore
SplineSet
241 676 m 0
 241 718 272 754 319 754 c 0
 367 754 411 713 411 650 c 0
 411 539 316 470 295 470 c 0
 286 470 277 480 277 489 c 0
 277 510 345 517 371 616 c 1
 354 604 340 599 319 599 c 0xcc
 272 599 241 633 241 676 c 0
EndSplineSet
Refer: 116 108 S 1 0 0 1 1 -0 2
EndChar

StartChar: lslash
Encoding: 322 322 178
Width: 336
Flags: HW
TeX: 690 0
ItalicCorrection: 8
HStem: 3 45<54 123 231 301> 638 48<54 121.593> 674 20G<54 231>
VStem: 123 108<48 280 342 389.784 434 635.293>
DStem2: 51 282 81 245 0.764742 0.644336<0 53.7728 235.769 306.395>
AnchorPoint: "above" 177 694 basechar 0
LayerCount: 2
Fore
SplineSet
51 282 m 1
 123 342 l 1
 123 600 l 2
 123 633 114 638 61 638 c 2
 54 638 l 1
 54 686 l 1xd0
 231 694 l 1
 231 434 l 1
 286 480 l 1
 316 443 l 1
 229 370 232 375 231 356 c 1
 231 48 l 1xb0
 301 48 l 1
 301 -0 l 1
 260 2 218 3 177 3 c 0
 136 3 95 2 54 -0 c 1
 54 48 l 1
 123 48 l 1
 123 280 l 1
 81 245 l 1
 51 282 l 1
EndSplineSet
EndChar

StartChar: eng
Encoding: 331 331 181
Width: 555
Flags: HW
TeX: 444 194
HStem: -200 37<329.268 355.237> 3 45<23 93 207 276> 394 48<23 91.6628> 413 37<275.953 357.066>
VStem: 93 114<48 346.304> 93 103<346 391.047> 231 125<-156.607 -61.2933> 370 114<-105.345 401.18>
AnchorPoint: "affricate-below" 555 -194 basechar 0
AnchorPoint: "affricate-above" 555 694 basechar 0
AnchorPoint: "below" 288 -194 basechar 0
AnchorPoint: "above" 288 453 basechar 0
LayerCount: 2
Fore
SplineSet
23 -0 m 1
 23 48 l 1
 93 48 l 1xdb
 93 358 l 2
 93 390 79 394 32 394 c 2
 23 394 l 1
 23 442 l 1xe7
 196 450 l 1
 196 346 l 1
 212 384 258 450 349 450 c 0
 482 450 484 355 484 299 c 2
 484 30 l 2
 484 -156 397 -200 338 -200 c 0
 275 -200 231 -156 231 -109 c 0
 231 -70 261 -46 294 -46 c 0
 331 -46 356 -74 356 -109 c 0
 356 -142 336 -156 327 -163 c 1
 329 -163 l 2
 357 -163 370 -145 370 26 c 2
 370 304 l 2
 370 393 357 413 331 413 c 0xd7
 306 413 207 391 207 249 c 2
 207 48 l 1
 276 48 l 1
 276 -0 l 1
 239 1 203 3 154 3 c 0
 110 3 67 2 23 -0 c 1
EndSplineSet
EndChar

StartChar: sacute
Encoding: 347 347 185
Width: 394
Flags: HW
TeX: 648 0
HStem: -6 37<135.427 264.934> 420 33<126.127 253.348> 495 170
VStem: 33 71<318.075 398.902> 33 50<82.2695 159.814> 127 194 289 72<53.4717 154.391>
AnchorPoint: "below" 199 0 basechar 0
AnchorPoint: "above" 193 645 basechar 0
LayerCount: 2
Fore
SplineSet
33 25 m 0
 33 58 33 91 33 124 c 0
 33 150 34 160 57 160 c 0
 78 160 80 150 83 136 c 0xea
 109 34 173 31 200 31 c 0
 247 31 289 46 289 104 c 0
 289 178 203 183 156 193 c 0
 102 205 33 244 33 322 c 0
 33 400 78 453 193 453 c 0
 233 453 254 445 277 435 c 1
 296 446 309 452 318 452 c 0
 334 452 336 440 336 426 c 2xf2
 336 355 l 2
 336 327 334 317 311 317 c 0
 271 317 303 351 267 392 c 0
 248 413 222 420 192 420 c 0
 146 420 104 408 104 360 c 0xf2
 104 296 197 295 245 282 c 0
 302 266 361 218 361 139 c 0
 361 67 329 -6 201 -6 c 0
 167 -6 135 1 103 23 c 1
 68 0 61 -5 51 -5 c 0
 35 -5 33 10 33 25 c 0
EndSplineSet
Refer: 10 180 S 1 0 0 1 -80 0 2
EndChar

StartChar: scaron
Encoding: 353 353 186
Width: 394
Flags: HW
TeX: 648 0
HStem: -6 37<135.904 264.934> 420 33<125.408 254.419> 470 193
VStem: 33 71<317.721 400.361> 33 57<73.6094 158.578> 36 296 289 72<52.5998 153.794>
AnchorPoint: "below" 199 0 basechar 0
AnchorPoint: "above" 193 643 basechar 0
LayerCount: 2
Fore
SplineSet
33 25 m 0xea
 33 58 33 92 33 125 c 0
 33 151 34 160 57 160 c 0
 83 160 78 147 90 114 c 0xea
 114 49 156 31 200 31 c 0
 247 31 289 46 289 104 c 0
 289 143 260 165 236 175 c 1
 206 186 160 188 125 202 c 0
 95 214 33 250 33 322 c 0
 33 400 77 453 192 453 c 0
 253 453 260 438 274 438 c 0
 288 438 304 452 318 452 c 0
 334 452 336 439 336 427 c 2
 336 342 l 2
 336 324 330 317 312 317 c 0
 268 317 308 360 257 402 c 0
 238 417 215 420 192 420 c 0
 129 420 104 396 104 360 c 0xf2
 104 303 176 296 226 286 c 0
 303 272 361 215 361 139 c 0
 361 66 329 -6 201 -6 c 0
 167 -6 135 1 103 23 c 1
 68 0 61 -5 51 -5 c 0
 35 -5 33 9 33 25 c 0xea
EndSplineSet
Refer: 16 711 S 1 0 0 1 -65 0 2
EndChar

StartChar: scedilla
Encoding: 351 351 187
Width: 394
Flags: HW
TeX: 444 170
HStem: -199 36<57 199.913> -5 21G<42 57> 420 33<126.288 253.976>
VStem: 33 71<317.729 398.902> 33 50<82.2695 159.814> 222 115<-145.038 -75.7506> 289 72<54.3029 155.085>
LayerCount: 2
Fore
SplineSet
33 28 m 0
 33 60 33 92 33 124 c 0
 33 150 34 160 57 160 c 0
 78 160 80 150 83 136 c 0xec
 109 34 173 31 200 31 c 0
 247 31 289 46 289 104 c 0
 289 178 203 183 156 193 c 0
 102 205 33 244 33 322 c 0
 33 400 78 453 193 453 c 0
 233 453 254 445 277 435 c 1
 296 446 309 452 318 452 c 0
 334 452 336 440 336 426 c 2xf2
 336 355 l 2
 336 325 334 317 311 317 c 0
 271 317 303 352 266 393 c 0
 247 414 222 420 192 420 c 0
 147 420 104 408 104 360 c 0
 104 308 170 297 185 294 c 0
 238 283 274 280 312 246 c 0
 338 223 361 189 361 139 c 0xf2
 361 56 318 13 254 -0 c 1
 254 -32 l 1
 265 -34 337 -48 337 -111 c 0
 337 -182 249 -199 57 -199 c 1
 57 -163 l 1
 67 -163 l 2
 162 -163 222 -154 222 -112 c 0
 222 -91 207 -62 140 -60 c 1
 140 -0 l 1
 151 -0 l 1
 128 6 117 13 103 23 c 1
 77 6 63 -5 51 -5 c 0
 33 -5 33 12 33 28 c 0
EndSplineSet
EndChar

StartChar: tcaron
Encoding: 357 357 188
Width: 390
Flags: HW
TeX: 690 0
HStem: -5 41<206.584 272.15> 397 48<195 317> 397 36<18 71.6686> 635 156<262.204 366.887>
VStem: 81 114<42.9564 397> 147 48<516.281 635> 239 169<661.766 755.258> 286 47<46.0242 177>
LayerCount: 2
Fore
SplineSet
18 397 m 1
 18 433 l 1xb9
 105 438 146 525 147 635 c 1
 195 635 l 1
 195 445 l 1xd4
 317 445 l 1
 317 397 l 1
 195 397 l 1
 195 122 l 2xd8
 195 90 195 36 239 36 c 0
 258 36 286 48 286 129 c 2
 286 177 l 1
 333 177 l 1
 333 134 l 2
 333 93 330 64 306 33 c 0
 277 -5 242 -5 226 -5 c 0
 94 -5 81 72 81 126 c 2
 81 397 l 1
 18 397 l 1
239 713 m 0
 239 753 268 791 317 791 c 0
 365 791 408 750 408 687 c 0
 408 576 314 507 293 507 c 0
 284 507 274 516 274 525 c 0
 274 546 342 553 368 653 c 1
 351 641 338 635 317 635 c 0x92
 270 635 239 670 239 713 c 0
EndSplineSet
EndChar

StartChar: tcommaaccent
Encoding: 355 355 189
Width: 390
Flags: HW
TeX: 634 170
HStem: -199 36<100 243.911> 397 48<195 317> 397 36<18 71.6686>
VStem: 81 114<42.9564 397> 147 48<516.281 635> 266 114<-144.598 -75.3853> 286 47<45.7884 177>
LayerCount: 2
Fore
SplineSet
18 397 m 1
 18 433 l 1xb4
 105 438 146 525 147 635 c 1
 195 635 l 1
 195 445 l 1xc8
 317 445 l 1
 317 397 l 1
 195 397 l 1
 195 122 l 2
 195 90 195 36 239 36 c 0
 258 36 286 48 286 129 c 2
 286 177 l 1
 333 177 l 1
 333 134 l 2xd2
 333 76 323 29 264 0 c 1
 298 0 l 1
 298 -32 l 1
 342 -42 380 -64 380 -111 c 0xc4
 380 -188 269 -199 113 -199 c 2
 100 -199 l 1
 100 -163 l 1
 111 -163 l 2
 169 -163 266 -163 266 -112 c 0
 266 -93 253 -63 183 -60 c 1
 183 -2 l 1
 99 14 81 63 81 127 c 2
 81 397 l 1
 18 397 l 1
EndSplineSet
EndChar

StartChar: ydieresis
Encoding: 255 255 192
Width: 527
Flags: HW
TeX: 690 194
ItalicCorrection: 13
HStem: -200 37<98.8325 160.29> 397 48<22 92.0319 200 257 334 383.992 434.457 504> 530 156<112.988 219.012 307.79 413.012>
VStem: 19 116<-152.404 -62.3696> 88 156<554.792 661.208> 283 155<555.36 661.208>
DStem2: 200 397 84 397 0.359963 -0.932966<0 264.999> 229 -21 266 -58 0.362028 0.932167<-142.143 21.5287 183.656 397.326>
AnchorPoint: "below" 262 -194 basechar 0
AnchorPoint: "above" 262 675 basechar 0
LayerCount: 2
Fore
SplineSet
88 608 m 0
 88 647 120 686 166 686 c 0
 207 686 244 653 244 608 c 0xec
 244 569 212 530 166 530 c 0
 125 530 88 563 88 608 c 0
283 608 m 0
 283 647 314 686 360 686 c 0
 401 686 438 653 438 608 c 0
 438 561 398 530 360 530 c 0xe4
 313 530 283 569 283 608 c 0
EndSplineSet
Refer: 129 121 S 1 0 0 1 -0 -0 3
EndChar

StartChar: zdotaccent
Encoding: 380 380 195
Width: 444
Flags: HW
TeX: 690 0
HStem: 0 40<159 298.835> 408 37<133.586 268> 539 155<181.998 289.002>
VStem: 41 48<270 367.948> 158 155<563.375 669.625> 354 48<127.579 202>
DStem2: 51 70 159 40 0.540254 0.841502<33.1024 401.663>
AnchorPoint: "below" 214 0 basechar 0
AnchorPoint: "above" 214 683 basechar 0
LayerCount: 2
Fore
SplineSet
158 617 m 0
 158 656 189 694 235 694 c 0
 282 694 313 655 313 616 c 0
 313 577 282 539 236 539 c 0
 189 539 158 578 158 617 c 0
EndSplineSet
Refer: 130 122 S 1 0 0 1 -0 -0 3
EndChar

StartChar: ij
Encoding: 307 307 196
Width: 583
Flags: HW
TeX: 690 194
HStem: -200 37<329.371 393.503> -0 48<44 114 222 284> 394 48<48 112.972 343 417.362> 430 20G<48 222 343 528> 539 155<100.395 206.536 396.395 503.012>
VStem: 76 155<563.215 669.755> 114 108<48 391.415> 230 125<-156.168 -60.7903> 372 156<563.375 669.208> 419 109<-120.469 390.625>
LayerCount: 2
Fore
SplineSet
44 -0 m 1
 44 48 l 1
 114 48 l 1
 114 359 l 2
 114 389 104 394 56 394 c 2
 48 394 l 1
 48 442 l 1xea
 222 450 l 1
 222 48 l 1xda
 284 48 l 1
 284 -0 l 1
 244 2 204 3 164 3 c 0
 123 3 84 2 44 -0 c 1
76 616 m 0
 76 659 111 694 154 694 c 0
 195 694 231 662 231 617 c 0xcc
 231 574 197 539 154 539 c 0
 108 539 76 576 76 616 c 0
230 -109 m 0
 230 -71 258 -46 292 -46 c 0
 325 -46 355 -70 355 -108 c 0
 355 -139 337 -153 329 -160 c 1
 338 -162 348 -163 357 -163 c 0
 415 -163 419 -78 419 -33 c 2
 419 360 l 1
 418 388 406 394 354 394 c 2
 343 394 l 1
 343 442 l 1xe940
 528 450 l 1
 528 -35 l 2xd940
 528 -167 417 -200 359 -200 c 0
 286 -200 230 -164 230 -109 c 0
EndSplineSet
Refer: 19 729 S 1 0 0 1 298 -0 2
Ligature2: "Latin Dutch ligatures subtable" i j
EndChar

StartChar: exclamdown
Encoding: 161 161 197
Width: 305
Flags: HW
TeX: 499 194
HStem: 344 156<98.9981 206.002>
VStem: 74 157<-182.817 21.2656 369.76 474.24>
LayerCount: 2
Fore
SplineSet
74 -134 m 0
 74 -123 77 -113 78 -102 c 2
 126 241 l 2
 129 263 129 274 152 274 c 0
 180 274 176 256 180 235 c 1
 229 -116 l 2
 230 -122 231 -128 231 -134 c 0
 231 -176 192 -205 153 -205 c 0
 116 -205 74 -179 74 -134 c 0
75 422 m 0
 75 461 106 500 152 500 c 0
 199 500 230 461 230 422 c 0
 230 383 199 344 153 344 c 0
 106 344 75 383 75 422 c 0
EndSplineSet
EndChar

StartChar: questiondown
Encoding: 191 191 198
Width: 472
Flags: HW
TeX: 499 194
HStem: -200 37<188.901 311.198> -29 20G<335.5 370> 344 155<168.395 275.012>
VStem: 55 128<-144.134 0.706806> 144 156<368.375 474.208> 198 48<124.311 274.305> 291 125<-116.893 -24.4495>
LayerCount: 2
Fore
SplineSet
55 -71 m 0
 55 4 103 27 126 50 c 0
 175 99 198 157 198 225 c 2
 198 238 l 1
 198 238 196 273 218 274 c 0
 220 274 221 275 223 275 c 0
 244 275 246 263 246 245 c 0
 246 242 245 239 245 235 c 0
 245 78 198 20 189 -16 c 0
 184 -34 183 -54 183 -73 c 0xf6
 183 -84 183 -95 183 -106 c 0
 183 -142 185 -163 227 -163 c 0
 254 -163 301 -157 335 -131 c 1
 299 -118 291 -92 291 -71 c 0
 291 -34 318 -9 353 -9 c 0
 387 -9 416 -34 416 -74 c 0
 416 -150 332 -200 221 -200 c 0
 80 -200 55 -123 55 -71 c 0
EndSplineSet
Refer: 19 729 S 1 0 0 1 70 -195 2
EndChar

StartChar: sterling
Encoding: 163 163 199
Width: 639
Flags: HW
TeX: 690 0
HStem: -5 71<374.28 537.792> -5 36<119.203 186.182> 67 72<119.721 201> 323 48<152.065 220 334 428.935> 458 125<471.261 522.213> 667 37<367.196 471.227>
VStem: 55 64<31.232 64.1905> 220 114<135.825 323 371 609.922> 457 125<473.055 566.06> 561 49<88.2473 152.862>
LayerCount: 2
Fore
SplineSet
55 51 m 0
 55 104 111 139 180 139 c 0
 194 139 207 137 220 135 c 1
 220 323 l 1
 178 323 l 2
 165 323 152 324 152 347 c 0
 152 369 162 371 177 371 c 2
 220 371 l 1
 220 510 l 2
 220 675 349 704 413 704 c 0
 524 704 582 603 582 524 c 0
 582 471 541 458 519 458 c 0
 485 458 457 484 457 520 c 0x7f80
 457 542 468 581 523 583 c 1
 501 638 460 667 417 667 c 0
 375 667 354 639 347 623 c 0
 335 596 334 559 334 523 c 2
 334 371 l 1
 403 371 l 2
 420 371 429 369 429 347 c 0
 429 327 419 323 406 323 c 2
 334 323 l 1
 334 185 l 2
 334 147 330 130 322 106 c 1
 388 82 434 66 480 66 c 0
 525 66 554 93 561 128 c 0
 564 142 563 153 587 153 c 0
 601 153 610 148 610 131 c 0
 610 86 566 -5 456 -5 c 0xbf40
 382 -5 295 38 281 38 c 0
 265 38 230 -5 141 -5 c 0
 69 -5 55 28 55 51 c 0
119 48 m 0
 119 40 129 31 143 31 c 0
 166 31 185 44 201 63 c 1
 191 65 174 67 159 67 c 0x7f
 131 67 119 57 119 48 c 0
EndSplineSet
EndChar

StartChar: Agrave
Encoding: 192 192 200
Width: 755
Flags: HW
TeX: 879 0
HStem: 0 48<35 127.811 184.012 259 407 490 635 720> 181 48<240 426> 678 20<365.5 389.5>
DStem2: 130 75 224 181 0.33141 0.943487<5.95221 131.162 181.752 460.71> 417 667 333 492 0.332182 -0.943215<137.159 416.118 467.039 608.1>
AnchorPoint: "below" 378 0 basechar 0
AnchorPoint: "above" 378 858 basechar 0
LayerCount: 2
Fore
SplineSet
237 814 m 0
 237 844 261 879 295 879 c 0
 321 879 331 866 443 777 c 1
 423 734 l 1
 295 759 237 757 237 814 c 0
EndSplineSet
Refer: 73 65 S 1 0 0 1 -0 0 3
AlternateSubs2: "Stilistic set 01 subtable" Agrave.vn
AlternateSubs2: "Latin alternatives subtable" Agrave.vn
Substitution2: "Latin Vietnamese substitutions subtable" Agrave.vn
EndChar

StartChar: Atilde
Encoding: 195 195 203
Width: 755
Flags: HW
TeX: 894 0
HStem: -0 48<35 127.811 184.012 259 407 490 635 720> 181 48<240 426> 678 20<365.5 389.5> 787 75<363.477 517.148> 819 75<237.664 391.523>
DStem2: 130 75 224 181 0.33141 0.943487<5.95221 131.162 181.752 460.71> 417 667 333 492 0.332182 -0.943215<137.159 416.118 467.039 608.1>
AnchorPoint: "below" 378 0 basechar 0
AnchorPoint: "above" 378 873 basechar 0
LayerCount: 2
Fore
SplineSet
183 810 m 1
 228 864 245 894 300 894 c 0xe8
 350 894 420 862 470 862 c 0xf0
 508 862 528 877 544 894 c 1xe8
 572 871 l 1
 526 816 510 787 455 787 c 0xf0
 405 787 335 819 285 819 c 0
 247 819 227 803 211 786 c 1
 183 810 l 1
EndSplineSet
Refer: 73 65 S 1 0 0 1 -0 -0 3
AlternateSubs2: "Stilistic set 01 subtable" Atilde.vn
AlternateSubs2: "Latin alternatives subtable" Atilde.vn
Substitution2: "Latin Vietnamese substitutions subtable" Atilde.vn
EndChar

StartChar: Adieresis
Encoding: 196 196 204
Width: 755
Flags: HW
TeX: 894 0
HStem: -0 48<35 127.811 184.012 259 407 490 635 720> 181 48<240 426> 678 20<365.5 389.5> 738 156<228.039 334 422.374 527.15>
VStem: 203 155<762.792 869.605> 397 155<762.988 869.208>
DStem2: 130 75 224 181 0.33141 0.943487<5.95221 131.162 181.752 460.71> 417 667 333 492 0.332182 -0.943215<137.159 416.118 467.039 608.1>
AnchorPoint: "below" 378 0 basechar 0
AnchorPoint: "above" 378 873 basechar 0
LayerCount: 2
Fore
SplineSet
203 816 m 0
 203 859 237 894 280 894 c 0
 320 894 358 862 358 816 c 0
 358 777 327 738 281 738 c 0
 240 738 203 771 203 816 c 0
397 816 m 0
 397 855 429 894 475 894 c 0
 515 894 552 861 552 816 c 0
 552 775 520 738 475 738 c 0
 435 738 397 770 397 816 c 0
EndSplineSet
Refer: 73 65 S 1 0 0 1 0 -0 3
EndChar

StartChar: Aring
Encoding: 197 197 205
Width: 755
Flags: HW
TeX: 852 0
HStem: 0 48<35 127.108 184.012 259 407 490 635 720> 181 48<240 426> 866 36<331.386 422.142>
VStem: 271 47<709.325 856.279> 437 47<708.747 854.804>
DStem2: 131 80 224 181 0.332988 0.942931<0.99682 126.204 176.792 455.751> 416 669 333 492 0.332582 -0.943074<139.32 418.279 469.2 610.26>
LayerCount: 2
Fore
SplineSet
35 0 m 1
 35 48 l 1
 121 48 121 53 131 80 c 2
 339 669 l 1
 300 684 271 720 271 782 c 0
 271 854 314 902 378 902 c 0
 442 902 484 855 484 783 c 0
 484 721 455 684 416 669 c 1
 635 48 l 1
 720 48 l 1
 720 0 l 1
 640 3 597 3 578 3 c 2
 572 3 l 2
 517 3 462 2 407 0 c 1
 407 48 l 1
 490 48 l 1
 443 181 l 1
 224 181 l 1
 192 90 184 69 184 62 c 0
 184 53 200 48 259 48 c 1
 259 0 l 1
 219 2 179 3 139 3 c 0
 118 3 97 3 35 0 c 1
240 229 m 1
 426 229 l 1
 333 492 l 1
 240 229 l 1
318 775 m 0
 318 741 322 698 377 698 c 0
 437 698 437 745 437 789 c 0
 437 823 433 866 377 866 c 0
 317 866 318 821 318 775 c 0
EndSplineSet
EndChar

StartChar: AE
Encoding: 198 198 206
Width: 905
Flags: HW
TeX: 690 0
HStem: -0 48<35 127.791 184.012 259 348 419 551 733.074> 306 48<288 419 551 654.71> 444 21G<791.5 849> 638 48<269 335 392 419 551 728.799>
VStem: 419 132<48 306 354 638> 678 48<189 283.709 374.748 470> 801 48<444 500.467> 829 48<233.152 275>
DStem2: 131 78 271 306 0.342282 0.939597<42.763 262.148 313.067 596>
AnchorPoint: "below" 456 0 basechar 0
AnchorPoint: "above" 485 697 basechar 0
LayerCount: 2
Fore
SplineSet
35 -0 m 1
 35 48 l 1
 121 48 122 53 131 78 c 2
 335 638 l 1
 269 638 l 1
 269 686 l 1
 819 686 l 1
 849 444 l 1
 801 444 l 1xfe
 782 592 759 638 615 638 c 2
 551 638 l 1
 551 354 l 1
 577 354 l 2
 673 354 678 393 678 470 c 1
 726 470 l 1
 726 189 l 1
 678 189 l 1
 678 245 674 274 646 292 c 0
 623 306 596 306 570 306 c 2
 551 306 l 1
 551 48 l 1
 627 48 l 2
 790 48 806 139 829 275 c 1
 877 275 l 1xfd
 831 -0 l 1
 348 -0 l 1
 348 48 l 1
 419 48 l 1
 419 306 l 1
 271 306 l 1
 185 69 184 66 184 63 c 0
 184 54 200 48 259 48 c 1
 259 -0 l 1
 219 2 179 3 139 3 c 0
 118 3 87 3 35 -0 c 1
288 354 m 1
 419 354 l 1xfc
 419 638 l 1
 392 638 l 1
 288 354 l 1
EndSplineSet
EndChar

StartChar: Ccedilla
Encoding: 199 199 207
Width: 722
Flags: HW
TeX: 690 170
HStem: -199 36<270 411.453> -60 97<355.045 423.002> 649 48<331.5 507.026>
VStem: 55 153<209.338 473.249> 436 115<-143.8 -74.6646> 617 49<142.402 246.918 426.193 512.252>
AnchorPoint: "above" 405 697 basechar 0
LayerCount: 2
Fore
SplineSet
55 342 m 0
 55 561 205 697 406 697 c 0
 472 697 521 676 570 635 c 1
 620 680 635 696 648 696 c 0
 666 696 666 678 666 666 c 2
 666 451 l 2
 666 431 660 426 638 426 c 0
 624 426 615 428 612 448 c 0
 597 547 537 649 425 649 c 0
 362 649 297 623 258 570 c 0
 212 509 208 420 208 356 c 2
 208 346 l 2
 208 256 210 133 307 71 c 0
 337 52 380 37 428 37 c 0
 537 37 609 122 617 218 c 0
 618 236 619 247 641 247 c 0
 660 247 666 240 666 226 c 0
 666 136 597 22 468 -5 c 1
 468 -32 l 1
 470 -34 551 -44 551 -111 c 0
 551 -182 460 -199 282 -199 c 2
 270 -199 l 1
 270 -163 l 1
 282 -163 l 2
 375 -163 436 -154 436 -112 c 0
 436 -92 423 -62 354 -60 c 1
 354 -7 l 1
 155 20 55 165 55 342 c 0
EndSplineSet
EndChar

StartChar: Edieresis
Encoding: 203 203 211
Width: 655
Flags: HW
TeX: 894 0
HStem: 0 48<33 128 270 477.437> 329 48<270 364.779> 633 47<33 128 270 474.754> 738 156<185.988 291.012 379.988 485.536>
VStem: 128 142<48 329 377 633> 161 155<762.792 869.208> 355 155<762.792 869.208> 387 47<212 307.868 399.676 494> 552 47<438 494.467>
AnchorPoint: "below" 330 0 basechar 0
AnchorPoint: "above" 330 891 basechar 0
LayerCount: 2
Fore
SplineSet
161 816 m 0
 161 855 192 894 238 894 c 0
 279 894 316 861 316 816 c 0xf480
 316 772 280 738 239 738 c 0
 198 738 161 771 161 816 c 0
355 816 m 0
 355 859 391 894 433 894 c 0
 474 894 510 861 510 816 c 0
 510 769 471 738 433 738 c 0xf280
 392 738 355 771 355 816 c 0
EndSplineSet
Refer: 77 69 S 1 0 0 1 0 0 3
EndChar

StartChar: Icircumflex
Encoding: 206 206 214
Width: 397
Flags: HW
TeX: 894 0
HStem: 0 48<28 127 269 368> 638 48<28 127 269 368>
VStem: 127 142<48 638>
AnchorPoint: "below" 198 0 basechar 0
AnchorPoint: "above" 198 891 basechar 0
LayerCount: 2
Fore
SplineSet
58 774 m 1
 198 900 l 1
 199 900 l 1
 338 774 l 1
 308 737 l 1
 307 737 l 1
 199 817 l 1
 198 817 l 1
 90 737 l 1
 88 737 l 1
 58 774 l 1
EndSplineSet
Refer: 81 73 S 1 0 0 1 0 0 3
EndChar

StartChar: Idieresis
Encoding: 207 207 215
Width: 397
Flags: HW
TeX: 894 0
HStem: 0 48<28 127 269 368> 638 48<28 127 269 368> 738 156<48.3604 153.536 242.586 347.536>
VStem: 23 155<762.75 869.208> 127 142<48 638> 217 155<763.586 869.208>
AnchorPoint: "below" 198 0 basechar 0
AnchorPoint: "above" 198 885 basechar 0
LayerCount: 2
Fore
SplineSet
23 816 m 0
 23 861 60 894 101 894 c 0
 142 894 178 861 178 816 c 0xf0
 178 773 143 738 101 738 c 0
 54 738 23 778 23 816 c 0
217 816 m 0
 217 859 252 894 295 894 c 0
 336 894 372 861 372 816 c 0
 372 773 338 738 295 738 c 0xe4
 255 738 217 772 217 816 c 0
EndSplineSet
Refer: 81 73 S 1 0 0 1 -0 -0 3
EndChar

StartChar: Eth
Encoding: 208 208 216
Width: 766
Flags: HW
TeX: 690 0
HStem: -0 48<33 128 264 463.697> 313 47<33.0784 128 264 422.909> 638 48<33 128 264 459.803>
VStem: 128 136<48 313 360 638> 563 147<202.807 479.096>
LayerCount: 2
Fore
SplineSet
33 -0 m 1
 33 48 l 1
 128 48 l 1
 128 313 l 1
 62 313 l 2
 45 313 33 318 33 337 c 0
 33 349 39 359 59 360 c 1
 128 360 l 1
 128 638 l 1
 33 638 l 1
 33 686 l 1
 384 686 l 2
 465 686 547 672 616 603 c 0
 678 541 710 446 710 337 c 0
 710 154 612 20 440 2 c 0
 421 0 403 0 384 -0 c 2
 33 -0 l 1
264 48 m 1
 360 48 l 2
 559 48 563 212 563 324 c 2
 563 353 l 2
 563 471 551 544 495 593 c 0
 454 629 406 638 353 638 c 2
 264 638 l 1
 264 360 l 1
 386 360 l 2
 407 360 423 359 423 336 c 0
 423 317 409 313 392 313 c 2
 264 313 l 1
 264 48 l 1
EndSplineSet
EndChar

StartChar: Ntilde
Encoding: 209 209 217
Width: 783
Flags: HW
TeX: 894 0
HStem: 0 48<33 127.904 181.221 275> 638 48<33 128 507 601.459 655.111 749> 787 75<376.977 529.848> 819 75<252.152 405.023>
VStem: 128 53<51.1869 589> 602 53<225 634.997>
DStem2: 279 668 181 589 0.588684 -0.808363<6.16969 548.25>
LayerCount: 2
Fore
SplineSet
197 810 m 1
 243 865 259 894 314 894 c 0xdc
 364 894 434 862 484 862 c 0xec
 522 862 541 877 557 894 c 1xdc
 585 871 l 1
 539 816 523 787 468 787 c 0xec
 418 787 348 819 298 819 c 0
 260 819 241 803 225 786 c 1
 197 810 l 1
EndSplineSet
Refer: 86 78 S 1 0 0 1 0 -0 3
EndChar

StartChar: Ograve
Encoding: 210 210 218
Width: 750
Flags: HW
TeX: 879 0
HStem: -11 43<304.184 442.931> 656 41<305.562 444.261>
VStem: 55 153<201.756 478.666> 541 153<202.581 479.078>
AnchorPoint: "below" 374 0 basechar 0
AnchorPoint: "above" 375 859 basechar 0
LayerCount: 2
Fore
SplineSet
262 814 m 0
 262 844 285 879 319 879 c 0
 345 879 356 866 468 777 c 1
 448 734 l 1
 320 759 262 757 262 814 c 0
EndSplineSet
Refer: 87 79 S 1 0 0 1 0 0 3
AlternateSubs2: "Stilistic set 01 subtable" Ograve.vn
AlternateSubs2: "Latin alternatives subtable" Ograve.vn
Substitution2: "Latin Vietnamese substitutions subtable" Ograve.vn
EndChar

StartChar: Oacute
Encoding: 211 211 219
Width: 750
Flags: HW
TeX: 879 0
HStem: -11 43<304.184 442.931> 656 41<305.562 444.261>
VStem: 55 153<201.756 478.666> 541 153<202.581 479.078>
AnchorPoint: "below" 374 0 basechar 0
AnchorPoint: "above" 375 859 basechar 0
LayerCount: 2
Fore
SplineSet
281 777 m 1
 394 866 404 879 430 879 c 0
 464 879 487 844 487 814 c 0
 487 758 436 760 301 734 c 1
 281 777 l 1
EndSplineSet
Refer: 87 79 S 1 0 0 1 -0 -0 3
AlternateSubs2: "Stilistic set 01 subtable" Oacute.vn
AlternateSubs2: "Latin alternatives subtable" Oacute.vn
Substitution2: "Latin Vietnamese substitutions subtable" Oacute.vn
EndChar

StartChar: Ocircumflex
Encoding: 212 212 220
Width: 750
Flags: HW
TeX: 894 0
HStem: -11 43<304.184 442.931> 656 41<305.562 444.261>
VStem: 55 153<201.756 478.666> 541 153<202.581 479.078>
AnchorPoint: "below" 374 0 basechar 0
AnchorPoint: "above" 375 880 basechar 0
LayerCount: 2
Fore
SplineSet
235 773 m 1
 235 774 l 1
 374 900 l 1
 375 900 l 1
 515 774 l 1
 515 773 l 1
 485 737 l 1
 375 817 l 1
 374 817 l 1
 265 737 l 1
 235 773 l 1
EndSplineSet
Refer: 87 79 S 1 0 0 1 0 0 3
AlternateSubs2: "Stilistic set 01 subtable" Ocircumflex.vn
AlternateSubs2: "Latin alternatives subtable" Ocircumflex.vn
Substitution2: "Latin Vietnamese substitutions subtable" Ocircumflex.vn
EndChar

StartChar: Otilde
Encoding: 213 213 221
Width: 750
Flags: HW
TeX: 894 0
HStem: -11 43<304.184 442.931> 656 41<305.562 444.261> 787 75<360.982 514.177> 819 75<234.846 387.586>
VStem: 55 153<201.756 478.666> 541 153<202.581 479.078>
AnchorPoint: "below" 374 0 basechar 0
AnchorPoint: "above" 375 874 basechar 0
LayerCount: 2
Fore
SplineSet
180 810 m 1
 225 864 242 894 297 894 c 0xdc
 354 894 410 862 467 862 c 0xec
 500 862 518 872 541 894 c 1xdc
 569 871 l 1
 524 817 507 787 452 787 c 0xec
 395 787 338 819 281 819 c 0
 248 819 230 808 207 786 c 1
 180 810 l 1
EndSplineSet
Refer: 87 79 S 1 0 0 1 -0 0 3
AlternateSubs2: "Stilistic set 01 subtable" Otilde.vn
AlternateSubs2: "Latin alternatives subtable" Otilde.vn
Substitution2: "Latin Vietnamese substitutions subtable" Otilde.vn
EndChar

StartChar: Odieresis
Encoding: 214 214 222
Width: 750
Flags: HW
TeX: 894 0
HStem: -11 43<304.184 442.931> 656 41<305.562 444.261> 738 156<224.85 330.012 418.988 523.626>
VStem: 55 153<201.756 478.666> 200 155<762.792 869.012> 394 155<762.988 869.208> 541 153<202.581 479.078>
AnchorPoint: "below" 374 0 basechar 0
AnchorPoint: "above" 375 874 basechar 0
LayerCount: 2
Fore
SplineSet
200 816 m 0
 200 857 232 894 277 894 c 0
 318 894 355 861 355 816 c 0xe8
 355 777 323 738 277 738 c 0
 237 738 200 771 200 816 c 0
394 816 m 0
 394 855 425 894 471 894 c 0
 511 894 549 861 549 816 c 0
 549 775 517 738 472 738 c 0xe4
 431 738 394 771 394 816 c 0
EndSplineSet
Refer: 87 79 S 1 0 0 1 -0 0 3
EndChar

StartChar: OE
Encoding: 338 338 223
Width: 1016
Flags: HW
TeX: 690 0
HStem: -11 37<339.487 477.406> 0 48<639 843.698> 332 48<639 776.792> 444 21G<907 960> 638 48<639 837.729> 660 37<341.262 478.353>
VStem: 72 148<205.967 476.892> 516 123<62.2961 332 380 624.155> 803 48<215 306.93 404.891 497> 912 48<444 500.467>
AnchorPoint: "above" 577 697 basechar 0
LayerCount: 2
Fore
SplineSet
72 339 m 0
 72 559 207 697 406 697 c 0xb7c0
 468 697 508 686 591 686 c 2
 930 686 l 1
 960 444 l 1
 912 444 l 1
 902 522 893 581 843 613 c 0
 806 637 760 638 717 638 c 2
 639 638 l 1
 639 380 l 1
 692 380 l 2
 732 380 784 381 798 438 c 0
 803 457 803 477 803 497 c 1
 851 497 l 1
 851 215 l 1
 803 215 l 1
 803 263 799 295 772 315 c 0
 749 332 719 332 691 332 c 2
 639 332 l 1
 639 48 l 1
 729 48 l 2
 898 48 916 132 940 275 c 1
 988 275 l 1
 942 0 l 1
 590 0 l 2x7bc0
 517 0 461 -11 406 -11 c 0
 199 -11 72 133 72 339 c 0
220 354 m 0
 220 177 279 26 408 26 c 0
 503 26 516 72 516 222 c 2
 516 463 l 2
 516 608 506 660 409 660 c 0xb7c0
 333 660 220 602 220 354 c 0
EndSplineSet
EndChar

StartChar: Oslash
Encoding: 216 216 224
Width: 778
Flags: HW
TeX: 734 48
HStem: -11 37<307.035 468.076> 660 37<309.396 467.591>
VStem: 55 142<202.886 477.624> 579 142<202.472 478.369>
DStem2: 145 -39 180 -59 0.498637 0.866811<0.11609 98.0538 176.502 727.212 805.356 904.465>
LayerCount: 2
Fore
SplineSet
55 338 m 0
 55 560 192 697 388 697 c 0
 455 697 500 682 548 661 c 1
 596 745 l 1
 631 725 l 1
 583 640 l 1
 677 576 721 463 721 340 c 0
 721 124 586 -11 388 -11 c 0
 324 -11 275 3 228 25 c 1
 180 -59 l 1
 145 -39 l 1
 193 45 l 1
 101 105 55 217 55 338 c 0
197 338 m 2
 197 252 197 187 232 114 c 1
 233 114 l 1
 517 607 l 1
 484 638 445 660 388 660 c 0
 325 660 260 628 227 558 c 0
 201 503 197 432 197 357 c 2
 197 338 l 2
259 78 m 1
 290 49 330 26 388 26 c 0
 449 26 517 56 550 127 c 0
 577 185 579 262 579 343 c 0
 579 462 572 512 543 571 c 1
 259 78 l 1
EndSplineSet
EndChar

StartChar: Ucircumflex
Encoding: 219 219 227
Width: 769
Flags: HW
TeX: 894 0
HStem: -11 48<329.054 498.874> 638 48<33 127 269 363 493 586.757 640.232 734>
VStem: 127 142<128.236 638> 587 53<130.068 634.579>
AnchorPoint: "below" 404 0 basechar 0
AnchorPoint: "above" 384 891 basechar 0
LayerCount: 2
Fore
SplineSet
266 774 m 1
 406 900 l 1
 407 900 l 1
 546 774 l 1
 516 737 l 1
 515 737 l 1
 407 817 l 1
 406 817 l 1
 298 737 l 1
 296 737 l 1
 266 774 l 1
EndSplineSet
Refer: 93 85 S 1 0 0 1 0 0 3
EndChar

StartChar: Udieresis
Encoding: 220 220 228
Width: 769
Flags: HW
TeX: 894 0
HStem: -11 48<329.054 498.874> 638 48<33 127 269 363 493 586.757 640.232 734> 738 156<233.988 339.012 427.988 533.536>
VStem: 127 142<128.236 638> 209 155<762.792 869.208> 403 155<762.792 869.208> 587 53<130.068 634.579>
AnchorPoint: "below" 404 0 basechar 0
AnchorPoint: "above" 384 885 basechar 0
LayerCount: 2
Fore
SplineSet
209 816 m 0
 209 859 244 894 286 894 c 0
 327 894 364 861 364 816 c 0xee
 364 777 333 738 287 738 c 0
 246 738 209 771 209 816 c 0
403 816 m 0
 403 855 435 894 481 894 c 0
 522 894 558 861 558 816 c 0
 558 773 524 738 481 738 c 0xe6
 440 738 403 771 403 816 c 0
EndSplineSet
Refer: 93 85 S 1 0 0 1 -0 0 3
EndChar

StartChar: Thorn
Encoding: 222 222 230
Width: 628
Flags: HW
TeX: 690 0
HStem: 3 45<33 128 259 353> 178 48<259 385.123> 517 48<259 391.714> 638 45<33 128 259 353>
VStem: 128 131<48 178 226 517 565 638> 424 148<276.478 463.662>
LayerCount: 2
Fore
SplineSet
33 0 m 1
 33 48 l 1
 128 48 l 1
 128 638 l 1
 33 638 l 1
 33 686 l 1
 88 684 144 683 199 683 c 0
 251 683 302 684 353 686 c 1
 353 638 l 1
 259 638 l 1
 259 565 l 1
 362 565 l 2
 528 565 572 451 572 371 c 0
 572 286 528 178 354 178 c 2
 259 178 l 1
 259 48 l 1
 353 48 l 1
 353 -0 l 1
 297 2 242 3 186 3 c 0
 125 3 79 1 33 0 c 1
259 226 m 1
 332 226 l 2
 369 226 424 246 424 373 c 0
 424 444 408 517 345 517 c 2
 259 517 l 1
 259 226 l 1
EndSplineSet
EndChar

StartChar: Germandbls
Encoding: 61699 61699 231
Width: 1111
Flags: HW
TeX: 690 0
HStem: -11 48<198.139 363.436 753.331 918.605> 653 44<187.558 336.173 742.91 891.947>
VStem: 55 98<481.674 594.381> 55 49<126.471 227.804> 401 98<97.1508 226.903> 416 55<458.812 570.751> 610 98<482.795 594.765> 610 49<126.471 227.804> 957 97<97.1508 226.903> 972 55<458.812 570.751>
LayerCount: 2
Fore
SplineSet
55 16 m 2
 55 202 l 2
 55 216 57 228 78 228 c 0
 107 228 102 211 104 192 c 0
 119 54 254 37 301 37 c 0
 368 37 401 88 401 153 c 0xd8
 401 198 382 238 348 259 c 0
 325 273 225 292 190 303 c 0
 120 326 55 396 55 496 c 0
 55 610 128 697 251 697 c 0
 313 697 358 676 393 646 c 1
 394 646 l 1
 435 688 442 696 454 696 c 0
 470 696 471 682 471 670 c 2
 471 482 l 2
 471 463 465 458 449 458 c 2
 447 458 l 2
 418 458 426 475 416 515 c 0xe4
 392 612 326 653 252 653 c 0
 173 653 153 590 153 549 c 0
 153 492 188 464 204 455 c 0
 231 440 312 427 357 413 c 0
 444 386 499 301 499 203 c 0xe8
 499 86 432 -11 301 -11 c 0
 200 -11 147 31 133 40 c 1
 103 10 87 -10 72 -10 c 0
 58 -10 55 2 55 16 c 2
610 16 m 2
 610 202 l 2
 610 216 612 228 633 228 c 0
 662 228 657 211 659 192 c 0
 674 54 809 37 856 37 c 0
 923 37 957 88 957 153 c 0xc180
 957 198 937 238 903 259 c 0
 876 275 792 288 746 303 c 0
 676 326 610 396 610 497 c 0
 610 611 683 697 806 697 c 0
 868 697 914 676 949 646 c 1
 950 646 l 1
 991 688 997 696 1009 696 c 0
 1025 696 1027 682 1027 670 c 2
 1027 482 l 2
 1027 463 1020 458 1004 458 c 2
 1003 458 l 2
 974 458 982 475 972 515 c 0xc240
 948 612 882 653 808 653 c 0
 729 653 708 590 708 549 c 0
 708 492 744 464 760 455 c 0
 787 440 868 427 913 413 c 0
 999 386 1054 301 1054 203 c 0
 1054 86 987 -11 856 -11 c 0
 755 -11 703 31 689 40 c 1
 659 10 643 -10 628 -10 c 0xc280
 612 -10 610 3 610 16 c 2
EndSplineSet
EndChar

StartChar: adieresis
Encoding: 228 228 236
Width: 486
Flags: HW
TeX: 690 0
HStem: -5 36<167.716 261.84> 0 59<417.477 480.838> 233 32<232.003 303> 416 37<160.274 267.907> 530 156<98.9875 205.012 293.464 399.012>
VStem: 27 117<51.2835 172.863> 55 125<313.19 409.438> 74 156<555.36 661.605> 269 155<554.395 661.208> 303 114<67.0832 233 265 376.096>
AnchorPoint: "below" 220 0 basechar 0
AnchorPoint: "above" 220 666 basechar 0
LayerCount: 2
Fore
SplineSet
74 608 m 0
 74 651 110 686 152 686 c 0
 193 686 230 654 230 608 c 0x39
 230 561 190 530 152 530 c 0
 111 530 74 563 74 608 c 0
269 608 m 0
 269 647 300 686 346 686 c 0
 387 686 424 653 424 608 c 0
 424 565 389 530 346 530 c 0x3880
 305 530 269 562 269 608 c 0
EndSplineSet
Refer: 105 97 S 1 0 0 1 0 0 3
EndChar

StartChar: aring
Encoding: 229 229 237
Width: 486
Flags: HW
TeX: 648 0
HStem: -5 36<167.716 261.84> -0 59<417.477 480.838> 233 32<232.003 303> 416 37<160.274 267.907> 487 35<170.156 273.107> 626 35<169.658 273.057>
VStem: 27 117<51.2835 172.863> 55 125<313.19 409.438> 115 47<528.595 620.458> 281 47<528.254 619.749> 303 114<67.0832 233 265 376.096>
LayerCount: 2
Fore
SplineSet
115 574 m 0
 115 624 155 661 222 661 c 0
 286 661 328 626 328 574 c 0
 328 524 288 487 221 487 c 0
 157 487 115 522 115 574 c 0
162 575 m 0
 162 545 168 522 219 522 c 0
 268 522 281 536 281 575 c 0x3cc0
 281 622 256 626 221 626 c 0
 187 626 162 622 162 575 c 0
EndSplineSet
Refer: 105 97 S 1 0 0 1 0 -0 3
EndChar

StartChar: ae
Encoding: 230 230 238
Width: 722
Flags: HW
TeX: 444 0
HStem: -5 36<168.463 272.518 486.549 588.811> 218 33<417 598> 416 37<160.484 268.664 466.536 558.996>
VStem: 27 118<48.9448 160.555> 55 125<313.667 409.254> 303 114<251 365.087> 321 96<98.9044 211.172> 598 95<251 356.133> 643 49<74.9839 134.586>
AnchorPoint: "below" 360 0 basechar 0
AnchorPoint: "above" 356 453 basechar 0
LayerCount: 2
Fore
SplineSet
27 103 m 0
 27 219 200 247 303 248 c 1xf480
 303 262 303 276 303 290 c 0xf480
 303 318 303 346 290 371 c 0
 277 397 255 416 216 416 c 0
 198 416 176 413 158 410 c 1
 172 394 180 383 180 361 c 0
 180 325 153 299 118 299 c 0
 87 299 55 320 55 361 c 0
 55 398 79 453 220 453 c 0
 314 453 351 421 376 403 c 1
 410 433 458 453 517 453 c 0
 658 453 693 337 693 248 c 0
 693 219 680 218 662 218 c 2
 417 218 l 1xeb
 417 175 420 112 456 72 c 0
 488 36 529 35 537 35 c 0
 593 35 630 76 643 112 c 0
 647 123 652 135 670 135 c 0
 682 135 692 129 692 116 c 0
 692 92 647 -5 529 -5 c 0
 433 -5 382 43 369 55 c 1
 368 55 l 1
 355 42 308 -5 198 -5 c 0
 96 -5 27 38 27 103 c 0
145 104 m 0xf4
 145 67 169 31 211 31 c 0
 271 31 321 79 321 118 c 0xf2
 321 135 307 153 303 214 c 1
 175 204 145 148 145 104 c 0xf4
417 251 m 1
 598 251 l 1
 596 299 593 416 515 416 c 0xe5
 479 416 441 388 426 333 c 0
 419 306 418 278 417 251 c 1
EndSplineSet
EndChar

StartChar: ccedilla
Encoding: 231 231 239
Width: 444
Flags: HW
TeX: 444 170
HStem: -199 36<109 253.133> 412 41<202.572 299.424>
VStem: 33 128<115.087 329.11> 275 115<-144.089 -75.4657> 280 125<313.44 407.484> 363 52<69.6012 130.613>
AnchorPoint: "above" 253 453 basechar 0
LayerCount: 2
Fore
SplineSet
33 222 m 0
 33 354 112 453 253 453 c 0
 315 453 405 434 405 361 c 0
 405 324 378 299 343 299 c 0
 310 299 280 322 280 361 c 0xe8
 280 385 290 397 300 408 c 1
 282 410 267 412 255 412 c 0
 237 412 223 408 208 397 c 0
 164 364 161 297 161 231 c 2
 161 209 l 2
 161 61 225 35 267 35 c 0
 316 35 349 69 363 104 c 0
 370 120 369 131 391 131 c 0
 411 131 415 123 415 117 c 0xe4
 415 103 396 30 298 0 c 1
 307 0 l 1
 307 -32 l 1
 318 -34 390 -48 390 -111 c 0
 390 -182 301 -199 109 -199 c 1
 109 -163 l 1
 120 -163 l 2xf0
 216 -163 275 -153 275 -112 c 0xf0
 275 -92 261 -62 193 -60 c 1
 193 0 l 1
 196 0 l 1
 97 21 33 104 33 222 c 0
EndSplineSet
EndChar

StartChar: egrave
Encoding: 232 232 240
Width: 466
Flags: HW
TeX: 648 0
HStem: -5 40<206.93 335.876> 218 33<155 342> 416 37<198.793 293.939>
VStem: 27 128<121.937 218 251 328.741> 342 95<251 355.057> 387 49<79.8818 134.586>
AnchorPoint: "below" 259 0 basechar 0
AnchorPoint: "above" 246 645 basechar 0
LayerCount: 2
Fore
SplineSet
163 601 m 0xf0
 163 633 191 665 224 665 c 0
 255 665 263 648 357 534 c 1
 329 495 l 1
 190 555 163 559 163 601 c 0xf0
EndSplineSet
Refer: 109 101 S 1 0 0 1 0 0 3
AlternateSubs2: "Stilistic set 01 subtable" egrave.vn
AlternateSubs2: "Latin alternatives subtable" egrave.vn
Substitution2: "Latin Vietnamese substitutions subtable" egrave.vn
EndChar

StartChar: eacute
Encoding: 233 233 241
Width: 466
Flags: HW
TeX: 648 0
HStem: -5 40<206.93 335.876> 218 33<155 342> 416 37<198.793 293.939>
VStem: 27 128<121.937 218 251 328.741> 342 95<251 355.057> 387 49<79.8818 134.586>
AnchorPoint: "below" 259 0 basechar 0
AnchorPoint: "above" 246 645 basechar 0
LayerCount: 2
Fore
SplineSet
135 534 m 1
 217 634 234 665 268 665 c 0xf0
 301 665 329 633 329 601 c 0
 329 559 299 553 163 495 c 1
 135 534 l 1
EndSplineSet
Refer: 109 101 S 1 0 0 1 0 0 3
AlternateSubs2: "Stilistic set 01 subtable" eacute.vn
AlternateSubs2: "Latin alternatives subtable" eacute.vn
Substitution2: "Latin Vietnamese substitutions subtable" eacute.vn
EndChar

StartChar: ecircumflex
Encoding: 234 234 242
Width: 466
Flags: HW
TeX: 648 0
HStem: -5 40<206.93 335.876> 218 33<155 342> 416 37<198.793 293.939>
VStem: 27 128<121.937 218 251 328.741> 342 95<251 355.057> 387 49<79.8818 134.586>
AnchorPoint: "below" 259 0 basechar 0
AnchorPoint: "above" 246 638 basechar 0
LayerCount: 2
Fore
SplineSet
91 509 m 1
 91 510 l 1
 232 658 l 1
 233 658 l 1
 374 510 l 1
 374 509 l 1
 340 475 l 1
 233 576 l 1
 232 576 l 1xf0
 124 475 l 1
 91 509 l 1
EndSplineSet
Refer: 109 101 S 1 0 0 1 0 0 3
AlternateSubs2: "Stilistic set 01 subtable" ecircumflex.vn
AlternateSubs2: "Latin alternatives subtable" ecircumflex.vn
Substitution2: "Latin Vietnamese substitutions subtable" ecircumflex.vn
EndChar

StartChar: edieresis
Encoding: 235 235 243
Width: 466
Flags: HW
TeX: 690 0
HStem: -5 40<206.93 335.876> 218 33<155 342> 416 37<198.793 293.939> 530 156<82.4641 188.012 276.988 381.961>
VStem: 27 128<121.937 218 251 328.741> 58 155<554.792 661.208> 252 155<554.792 661.208> 342 95<251 355.057> 387 49<79.8818 134.586>
AnchorPoint: "below" 259 0 basechar 0
AnchorPoint: "above" 246 666 basechar 0
LayerCount: 2
Fore
SplineSet
58 608 m 0
 58 651 93 686 135 686 c 0
 176 686 213 653 213 608 c 0xf4
 213 569 181 530 135 530 c 0
 94 530 58 563 58 608 c 0
252 608 m 0
 252 647 283 686 329 686 c 0
 370 686 407 653 407 608 c 0
 407 565 373 530 330 530 c 0xf2
 289 530 252 563 252 608 c 0
EndSplineSet
Refer: 109 101 S 1 0 0 1 -0 -0 3
EndChar

StartChar: igrave
Encoding: 236 236 244
Width: 277
Flags: HW
TeX: 648 0
HStem: 3 45<26 95 204 266> 394 48<29 94.0501> 430 20<29 204>
VStem: 95 109<48 391.678>
AnchorPoint: "below" 149 0 basechar 0
AnchorPoint: "above" 149 648 basechar 0
LayerCount: 2
Fore
SplineSet
-3 601 m 0x90
 -3 633 25 665 58 665 c 0
 89 665 98 648 192 534 c 1
 163 495 l 1
 24 555 -3 559 -3 601 c 0x90
EndSplineSet
Refer: 33 305 S 1 0 0 1 1 0 2
AlternateSubs2: "Stilistic set 01 subtable" igrave.vn
AlternateSubs2: "Latin alternatives subtable" igrave.vn
Substitution2: "Latin Vietnamese substitutions subtable" igrave.vn
Ligature2: "Latin ligatures excepting Turkic subtable" i gravecomb
EndChar

StartChar: iacute
Encoding: 237 237 245
Width: 277
Flags: HW
TeX: 648 0
ItalicCorrection: 24
HStem: 3 45<25 94 203 265> 394 48<28 93.0501> 430 20<28 203>
VStem: 94 109<48 391.678>
AnchorPoint: "below" 149 0 basechar 0
AnchorPoint: "above" 149 648 basechar 0
LayerCount: 2
Fore
SplineSet
79 534 m 1
 161 634 178 665 212 665 c 0x90
 245 665 273 633 273 601 c 0
 273 559 243 553 107 495 c 1
 79 534 l 1
EndSplineSet
Refer: 33 305 S 1 0 0 1 0 0 3
AlternateSubs2: "Stilistic set 01 subtable" iacute.vn
AlternateSubs2: "Latin alternatives subtable" iacute.vn
Substitution2: "Latin Vietnamese substitutions subtable" iacute.vn
Ligature2: "Cyrillic ligatures subtable" afii10103 acutecomb
Ligature2: "Latin ligatures excepting Turkic subtable" i acutecomb
EndChar

StartChar: icircumflex
Encoding: 238 238 246
Width: 277
Flags: HW
TeX: 648 0
HStem: 3 45<25 94 203 265> 394 48<28 93.0501> 430 20<28 203>
VStem: 7 283 94 109<48 391.678>
AnchorPoint: "below" 149 0 basechar 0
AnchorPoint: "above" 149 641 basechar 0
LayerCount: 2
Fore
SplineSet
7 509 m 1
 7 510 l 1
 148 658 l 1
 149 658 l 1
 290 510 l 1
 290 509 l 1
 257 475 l 1
 149 576 l 1
 148 576 l 1x90
 41 475 l 1
 7 509 l 1
EndSplineSet
Refer: 33 305 S 1 0 0 1 0 0 3
Ligature2: "Latin ligatures excepting Turkic subtable" i uni0302
EndChar

StartChar: idieresis
Encoding: 239 239 247
Width: 333
Flags: HW
TeX: 690 0
HStem: 0 48<53 122 231 293> 394 48<57 120.683> 430 20G<57 231> 530 156<26.9875 132.536 220.988 326.012>
VStem: 2 155<554.792 661.208> 122 109<48 391.383> 196 155<554.792 661.208>
AnchorPoint: "above" 176 666 basechar 0
LayerCount: 2
Fore
SplineSet
2 608 m 0
 2 647 34 686 80 686 c 0
 121 686 157 653 157 608 c 0x98
 157 564 121 530 80 530 c 0
 39 530 2 563 2 608 c 0
53 0 m 1
 53 48 l 1
 122 48 l 1
 122 359 l 2
 122 390 108 394 65 394 c 2
 57 394 l 1
 57 442 l 1xd4
 231 450 l 1
 231 48 l 1xb4
 293 48 l 1
 293 0 l 1
 231 3 197 3 183 3 c 2
 179 3 l 2
 137 3 95 2 53 0 c 1
196 608 m 0
 196 651 231 686 273 686 c 0
 314 686 351 653 351 608 c 0
 351 561 312 530 274 530 c 0x92
 233 530 196 563 196 608 c 0
EndSplineSet
Ligature2: "Latin ligatures excepting Turkic subtable" i uni0308
EndChar

StartChar: eth
Encoding: 240 240 248
Width: 500
Flags: HW
TeX: 690 0
HStem: -5 40<197.187 300.221> 416 37<198.629 293.104> 673 20G<99 119 331 342>
VStem: 27 128<116.095 327.662> 343 128<114.031 354.174>
LayerCount: 2
Fore
SplineSet
27 219 m 0
 27 377 137 453 245 453 c 0
 267 453 280 450 300 440 c 1
 276 490 254 521 207 572 c 1
 150 539 128 524 115 524 c 0
 105 524 97 537 96 548 c 0
 96 559 100 560 174 602 c 1
 110 654 79 654 79 671 c 0
 79 682 93 693 105 693 c 0
 133 693 186 671 243 642 c 1
 272 660 326 692 336 692 c 0
 348 692 355 681 356 668 c 0
 356 657 351 655 282 615 c 1
 319 589 471 469 471 250 c 2
 471 228 l 2
 471 41 340 -5 250 -5 c 0
 118 -5 27 82 27 219 c 0
155 227 m 2
 155 149 160 121 168 97 c 0
 182 58 216 35 250 35 c 0
 276 35 301 47 319 75 c 0
 333 97 343 131 343 216 c 0
 343 384 286 416 247 416 c 0
 221 416 195 402 179 378 c 1
 156 346 155 282 155 238 c 2
 155 227 l 2
EndSplineSet
EndChar

StartChar: odieresis
Encoding: 246 246 254
Width: 500
Flags: HW
TeX: 690 0
HStem: -5 40<194.61 303.338> 416 37<194.723 303.082> 530 156<98.9875 205.012 293.464 399.012>
VStem: 27 128<115.659 326.013> 74 156<555.36 661.605> 269 155<554.395 661.208> 343 128<116.095 326.885>
AnchorPoint: "below" 249 0 basechar 0
AnchorPoint: "above" 248 666 basechar 0
LayerCount: 2
Fore
SplineSet
74 608 m 0
 74 651 110 686 152 686 c 0
 193 686 230 654 230 608 c 0xe8
 230 561 190 530 152 530 c 0
 111 530 74 563 74 608 c 0
269 608 m 0
 269 647 300 686 346 686 c 0
 387 686 424 653 424 608 c 0
 424 565 389 530 346 530 c 0xe4
 305 530 269 562 269 608 c 0
EndSplineSet
Refer: 119 111 S 1 0 0 1 0 0 3
EndChar

StartChar: oe
Encoding: 339 339 255
Width: 778
Flags: HW
TeX: 444 0
HStem: -5 36<199.441 304.669 540.362 644.674> 218 33<473 654> 416 37<196.576 308.2 522.667 614.512>
VStem: 27 117<119.695 330.402> 359 114<97.0108 218 251 364.702> 654 95<251 355.263> 698 50<76.249 134.553>
AnchorPoint: "below" 388 0 basechar 0
AnchorPoint: "above" 406 453 basechar 0
LayerCount: 2
Fore
SplineSet
27 224 m 0
 27 369 124 453 250 453 c 0
 349 453 397 404 415 387 c 1
 450 426 504 453 572 453 c 0
 713 453 749 335 749 248 c 0xfc
 749 218 736 218 718 218 c 2
 473 218 l 1
 473 173 476 112 511 72 c 0
 527 54 554 35 592 35 c 0
 647 35 685 75 698 111 c 0
 703 122 706 135 725 135 c 0
 738 135 748 129 748 116 c 0xfa
 748 84 695 -5 585 -5 c 0
 484 -5 432 46 417 62 c 1
 416 62 l 1
 400 44 349 -5 250 -5 c 0
 116 -5 27 86 27 224 c 0
144 218 m 2
 144 180 143 105 180 64 c 0
 198 44 224 31 251 31 c 0
 277 31 321 44 343 97 c 0
 357 133 358 170 359 215 c 1
 359 245 l 2
 359 294 358 389 280 412 c 0
 270 415 261 416 251 416 c 0
 219 416 195 402 179 384 c 0
 145 347 144 287 144 247 c 2
 144 218 l 2
473 251 m 1
 654 251 l 1
 652 299 649 416 571 416 c 0xfc
 535 416 497 388 482 333 c 0
 475 306 474 278 473 251 c 1
EndSplineSet
EndChar

StartChar: oslash
Encoding: 248 248 256
Width: 500
Flags: HW
TeX: 541 97
HStem: -6 37<187.892 307.931> 416 37<190.298 308.749>
VStem: 27 114<112.483 326.886> 357 114<112.437 329.355>
DStem2: 68 -89 100 -105 0.458855 0.888511<0.467198 129.66 194.551 524.209 589.657 718.759>
LayerCount: 2
Fore
SplineSet
27 218 m 0
 27 360 117 453 249 453 c 0
 285 453 313 445 339 436 c 1
 398 550 l 1
 430 533 l 1
 372 420 l 1
 411 395 471 340 471 219 c 0
 471 75 375 -6 250 -6 c 0
 214 -6 186 2 160 10 c 1
 100 -105 l 1
 68 -89 l 1
 127 25 l 1
 32 80 27 186 27 218 c 0
141 217 m 0
 141 133 147 107 157 84 c 1
 317 392 l 1
 300 404 282 416 250 416 c 0
 211 416 173 396 156 357 c 0
 145 332 141 300 141 217 c 0
182 53 m 1
 200 41 221 31 249 31 c 0
 294 31 330 56 344 91 c 0
 357 122 357 173 357 203 c 0
 357 275 357 317 341 360 c 1
 182 53 l 1
EndSplineSet
EndChar

StartChar: ucircumflex
Encoding: 251 251 259
Width: 555
Flags: HW
TeX: 648 0
HStem: -6 37<216.666 323.159> 0 48<485.185 553> 394 48<23 91.1675 300 368.689> 430 20<23 207 300 484>
VStem: 92 114<43.5688 391.546> 370 114<50.8262 64 76.752 391.32>
AnchorPoint: "below" 288 0 basechar 0
AnchorPoint: "above" 288 641 basechar 0
LayerCount: 2
Fore
SplineSet
147 509 m 1
 147 510 l 1
 288 658 l 1
 289 658 l 1
 430 510 l 1
 430 509 l 1
 396 475 l 1
 289 576 l 1
 288 576 l 1x0c
 180 475 l 1
 147 509 l 1
EndSplineSet
Refer: 125 117 S 1 0 0 1 0 0 3
EndChar

StartChar: udieresis
Encoding: 252 252 260
Width: 555
Flags: HW
TeX: 690 0
HStem: -6 37<216.666 323.159> 0 48<485.185 553> 394 48<23 91.1675 300 368.689> 430 20<23 207 300 484> 530 156<138.85 244.012 332.464 437.626>
VStem: 92 114<43.5688 391.546> 114 155<554.792 661.605> 308 155<554.395 661.208> 370 114<50.8262 64 76.752 391.32>
AnchorPoint: "below" 288 0 basechar 0
AnchorPoint: "above" 288 669 basechar 0
LayerCount: 2
Fore
SplineSet
114 608 m 0
 114 651 148 686 191 686 c 0
 232 686 269 654 269 608 c 0x0a
 269 569 237 530 191 530 c 0
 151 530 114 563 114 608 c 0
308 608 m 0
 308 647 339 686 385 686 c 0
 425 686 463 653 463 608 c 0
 463 565 428 530 385 530 c 0x09
 344 530 308 562 308 608 c 0
EndSplineSet
Refer: 125 117 S 1 0 0 1 -0 0 3
EndChar

StartChar: thorn
Encoding: 254 254 262
Width: 555
Flags: HW
TeX: 690 194
HStem: -195 48<15 85 199 268> -5 36<237.376 336.645> 409 41<235.331 346.558> 644 47<15 83.6975>
VStem: 85 114<-147 31 62.376 377.604 407 641.196> 394 128<118.821 333.206>
LayerCount: 2
Fore
SplineSet
15 -147 m 1
 85 -147 l 1
 85 611 l 1
 84 641 69 644 22 644 c 2
 15 644 l 1
 15 691 l 1
 193 700 l 1
 193 407 l 1
 228 433 268 450 318 450 c 0
 436 450 522 362 522 224 c 0
 522 72 419 -5 303 -5 c 0
 259 -5 229 8 199 31 c 1
 199 -147 l 1
 268 -147 l 1
 268 -195 l 1
 224 -193 181 -192 137 -192 c 0
 88 -192 52 -194 15 -195 c 1
 15 -147 l 1
199 107 m 2
 199 67 250 31 292 31 c 0
 333 31 394 69 394 223 c 0
 394 316 367 409 302 409 c 0
 258 409 199 377 199 338 c 2
 199 107 l 2
EndSplineSet
EndChar

StartChar: germandbls
Encoding: 223 223 263
Width: 560
Flags: HW
TeX: 690 0
HStem: -5 36<332.103 433.576> 0 48<15 85> 397 48<15 85> 663 37<220.483 362.455>
VStem: 15 178<3 48 397 445> 85 108<48 397 445 635.691> 248 50<66.125 156.882> 249 71<307.302 405.068> 400 48<457.745 630.946> 455 71<55.6614 155.367>
LayerCount: 2
Fore
SplineSet
15 0 m 1
 15 48 l 1x78c0
 85 48 l 1
 85 397 l 1x74c0
 15 397 l 1
 15 445 l 1x78c0
 85 445 l 1
 85 532 l 2
 85 539 84 546 84 553 c 0
 84 670 173 700 279 700 c 0
 403 700 448 643 448 557 c 0
 448 411 379 422 361 419 c 0
 335 414 320 394 320 360 c 0x75c0
 320 296 378 291 380 291 c 1
 380 291 526 277 526 140 c 0
 526 48 472 -5 378 -5 c 0
 344 -5 326 4 309 16 c 1
 277 -3 275 -5 267 -5 c 0
 251 -5 248 7 248 23 c 0xb2c0
 248 29 249 34 249 40 c 2xb1c0
 249 116 l 2xb1c0
 249 119 248 121 248 123 c 0
 248 147 250 157 273 157 c 0
 293 157 296 147 298 135 c 0
 307 90 319 31 378 31 c 0xb2c0
 439 31 455 70 455 104 c 0
 455 174 381 183 381 183 c 1
 354 189 333 191 307 208 c 0
 267 235 249 281 249 326 c 0
 249 370 266 413 300 434 c 0
 365 474 400 412 400 550 c 0
 400 598 397 663 283 663 c 0
 195 663 193 606 193 558 c 2
 193 0 l 1x75c0
 154 3 l 1
 15 0 l 1
EndSplineSet
EndChar

StartChar: grave.uc
Encoding: 65542 -1 264
Width: 500
Flags: HW
TeX: 641 0
HStem: 492 145<164.58 200.6>
VStem: 95 206<531.811 551.801>
LayerCount: 2
Fore
SplineSet
95 573 m 0
 95 601 117 637 153 637 c 0
 179 637 189 625 301 536 c 1
 281 492 l 1
 150 517 95 517 95 573 c 0
EndSplineSet
EndChar

StartChar: acute.uc
Encoding: 65543 -1 265
Width: 500
Flags: HW
TeX: 641 0
HStem: 492 145<299.236 332.533>
VStem: 198 206<531.253 551.801>
LayerCount: 2
Fore
SplineSet
198 536 m 1
 311 625 321 637 347 637 c 0
 383 637 404 601 404 573 c 0
 404 518 353 518 218 492 c 1
 198 536 l 1
EndSplineSet
EndChar

StartChar: tilde.uc
Encoding: 65544 -1 266
Width: 500
Flags: HW
TeX: 652 0
HStem: 545 75<238.198 388.098> 577 76<110.99 262.542>
LayerCount: 2
Fore
SplineSet
55 568 m 1
 100 622 117 653 172 653 c 0x40
 223 653 291 620 342 620 c 0x80
 380 620 399 636 415 653 c 1x40
 444 630 l 1
 398 575 381 545 326 545 c 0x80
 269 545 214 577 157 577 c 0x40
 119 577 99 562 83 545 c 1x80
 55 568 l 1
EndSplineSet
EndChar

StartChar: hungarumlaut.uc
Encoding: 65545 -1 268
Width: 500
Flags: HW
TeX: 641 0
ItalicCorrection: 14
HStem: 492 145<216.573 257 297.839 305.736 382.684 415.533>
LayerCount: 2
Fore
SplineSet
115 536 m 1
 228 625 239 637 264 637 c 0
 285 637 319 620 321 567 c 1
 383 616 404 637 430 637 c 0
 462 637 487 605 487 573 c 0
 487 518 436 518 301 492 c 1
 287 523 l 1
 272 518 257 516 135 492 c 1
 115 536 l 1
EndSplineSet
EndChar

StartChar: ring.uc
Encoding: 65546 -1 269
Width: 769
Flags: HW
TeX: 652 0
HStem: 478 36<333.21 435.306> 625 36<332.648 433.614>
VStem: 277 48<520.756 618.823> 443 48<520 618.645>
LayerCount: 2
Fore
SplineSet
277 569 m 0
 277 624 319 661 384 661 c 0
 448 661 491 624 491 569 c 0
 491 515 449 478 384 478 c 0
 320 478 277 514 277 569 c 0
325 568 m 0
 325 530 338 514 382 514 c 0
 426 514 443 523 443 570 c 0
 443 610 428 625 385 625 c 0
 333 625 325 607 325 568 c 0
EndSplineSet
EndChar

StartChar: twelveudash
Encoding: 61700 61700 270
Width: 667
Flags: HW
TeX: 444 0
ItalicCorrection: 27
HStem: 256 37<0 666>
LayerCount: 2
Fore
SplineSet
0 256 m 1
 0 293 l 1
 666 293 l 1
 666 256 l 1
 0 256 l 1
EndSplineSet
EndChar

StartChar: threequartersemdash
Encoding: 63198 63198 271
Width: 750
Flags: HW
TeX: 444 0
ItalicCorrection: 27
HStem: 256 37<0 750>
LayerCount: 2
Fore
SplineSet
0 256 m 1
 0 293 l 1
 750 293 l 1
 750 256 l 1
 0 256 l 1
EndSplineSet
EndChar

StartChar: arrowleft
Encoding: 8592 8592 272
Width: 1000
Flags: HW
TeX: 391 -108
HStem: 0 21G<230 307> 220 60<195 941.047>
VStem: 247 60<0 69.2729 429.313 500>
LayerCount: 2
Fore
SplineSet
55 250 m 1
 93 268 215 334 247 500 c 1
 307 500 l 1
 292 421 260 348 195 280 c 1
 893 280 l 2
 915 280 942 280 942 250 c 0
 942 241 939 221 908 220 c 1
 195 220 l 1
 250 162 289 93 307 0 c 1
 247 0 l 1
 213 167 100 226 55 250 c 1
EndSplineSet
EndChar

StartChar: arrowright
Encoding: 8594 8594 273
Width: 1000
Flags: HW
TeX: 391 -108
HStem: -0 21G<691 767> 220 60<57.2441 804>
VStem: 691 60<0 70.6866 429.35 500>
LayerCount: 2
Fore
SplineSet
56 250 m 0
 56 280 84 280 105 280 c 2
 804 280 l 1
 748 339 708 409 691 500 c 1
 751 500 l 1
 785 333 898 274 943 250 c 1
 905 232 783 166 751 -0 c 1
 691 -0 l 1
 706 79 739 152 804 220 c 1
 90 220 l 1
 59 221 56 242 56 250 c 0
EndSplineSet
EndChar

StartChar: uni0361.alt
Encoding: 61701 61701 274
Width: 278
Flags: HW
TeX: 690 0
ItalicCorrection: 273
HStem: 615 51<195.497 442.538>
VStem: 116 49<542.196 587.258>
LayerCount: 2
Fore
SplineSet
116 561 m 0
 116 602 162 666 322 666 c 0
 479 666 522 597 522 561 c 0
 522 547 516 541 500 541 c 0
 459 541 496 573 432 598 c 0
 397 612 358 615 320 615 c 0
 280 615 184 610 165 564 c 0
 161 553 160 542 139 542 c 0
 124 542 116 545 116 561 c 0
EndSplineSet
EndChar

StartChar: uni0361
Encoding: 865 865 275
Width: 0
Flags: HW
TeX: 935 0
ItalicCorrection: 301
HStem: 601 52<-137.082 128.581>
VStem: -242 48<500.084 556.812> 174 61<503.522 566.77>
AnchorPoint: "affricate-above" -4 453 mark 0
LayerCount: 2
Fore
SplineSet
-242 521 m 0
 -242 557 -207 653 -0 653 c 0
 175 653 235 574 235 521 c 0
 235 508 231 500 211 500 c 0
 180 500 196 523 174 549 c 0
 154 573 106 601 -5 601 c 0
 -136 601 -185 559 -194 525 c 0
 -197 513 -196 500 -218 500 c 2
 -221 500 l 2
 -236 500 -242 508 -242 521 c 0
EndSplineSet
EndChar

StartChar: uni2040.alt
Encoding: 61702 61702 276
Width: 500
Flags: HW
TeX: 690 0
ItalicCorrection: 273
HStem: 615 51<163.496 336.6>
VStem: 93 48<542.126 593.66> 357 48<541.185 593.016>
LayerCount: 2
Fore
SplineSet
93 562 m 0
 93 604 134 666 246 666 c 0
 375 666 405 597 405 562 c 0
 405 548 398 541 383 541 c 0
 360 541 361 553 357 565 c 0
 348 595 311 615 251 615 c 0
 183 615 149 593 141 563 c 0
 138 553 138 542 116 542 c 0
 102 542 93 546 93 562 c 0
EndSplineSet
EndChar

StartChar: uni2040
Encoding: 8256 8256 277
Width: 500
Flags: HW
TeX: 690 0
ItalicCorrection: 301
HStem: 601 52<136.504 364.444>
VStem: 38 49<500.105 561.271> 401 60<503.103 568.367>
LayerCount: 2
Fore
SplineSet
38 521 m 0
 38 555 70 653 252 653 c 0
 417 653 461 565 461 521 c 0
 461 506 454 500 437 500 c 0
 406 500 421 523 401 550 c 0
 372 589 307 601 252 601 c 0
 153 601 98 570 87 526 c 0
 83 509 83 500 62 500 c 0
 47 500 38 504 38 521 c 0
EndSplineSet
EndChar

StartChar: uni2422
Encoding: 9250 9250 278
Width: 555
Flags: HW
TeX: 690 0
HStem: -5 36<236.469 343.819> 413 37<240.205 353.506> 638 48<15 83.2483> 674 20G<15 193>
VStem: 85 108<67.795 374.845 409 440 485.092 548.984 594 635.527> 394 128<115.392 330.013>
DStem2: 20 448 50 411 0.763573 0.645722<0 43.2285 226.373 407.075>
LayerCount: 2
Fore
SplineSet
15 638 m 1
 15 686 l 1xec
 193 694 l 1
 193 594 l 1
 331 711 l 1
 362 674 l 1xdc
 212 547 l 2
 194 532 193 531 193 514 c 2
 193 409 l 1
 231 436 266 450 315 450 c 0
 417 450 522 380 522 223 c 0
 522 76 422 -5 303 -5 c 0
 248 -5 212 17 181 48 c 1
 180 48 l 1
 135 2 135 0 116 -0 c 2
 85 -0 l 1
 85 440 l 1
 50 411 l 1
 20 448 l 1
 83 501 85 499 85 518 c 2
 85 579 l 2
 85 633 86 638 21 638 c 2
 15 638 l 1
199 107 m 2xcc
 199 69 244 31 293 31 c 0
 322 31 345 45 360 61 c 0
 377 79 394 109 394 197 c 2
 394 230 l 2
 394 301 390 325 384 347 c 0
 371 393 337 413 301 413 c 0
 273 413 243 401 220 380 c 0
 202 363 199 359 199 335 c 2
 199 107 l 2xcc
EndSplineSet
EndChar

StartChar: quotesingle
Encoding: 39 39 279
Width: 278
Flags: HW
TeX: 690 0
VStem: 75 127<508.062 696.116>
LayerCount: 2
Fore
SplineSet
75 650 m 0
 75 689 105 710 139 710 c 0
 172 710 202 688 202 650 c 0
 202 641 200 633 199 624 c 2
 157 359 l 1
 120 359 l 1
 80 614 l 2
 78 626 75 638 75 650 c 0
EndSplineSet
EndChar

StartChar: fraction
Encoding: 8260 8260 282
Width: 500
Flags: HW
TeX: 749 249
DStem2: 65 -185 121 -210 0.329978 0.943989<-35.563 977.739>
LayerCount: 2
Fore
SplineSet
56 -220 m 0
 56 -210 61 -196 65 -185 c 2
 381 719 l 2
 388 738 397 749 413 749 c 0
 428 749 443 737 443 719 c 0
 443 711 438 699 435 690 c 2
 121 -210 l 2
 115 -227 109 -249 85 -249 c 0
 70 -249 56 -236 56 -220 c 0
EndSplineSet
EndChar

StartChar: zerooldstyle
Encoding: 63280 63280 283
Width: 500
Flags: HW
TeX: 444 0
HStem: -11 37<196.015 301.891> 419 36<196.683 302.931>
VStem: 38 128<91.6958 349.274> 332 128<92.8313 348.264>
LayerCount: 2
Fore
SplineSet
38 218 m 0
 38 354 80 455 250 455 c 0
 418 455 460 354 460 219 c 0
 460 87 418 -11 248 -11 c 0
 80 -11 38 88 38 218 c 0
166 223 m 0
 166 133 168 86 176 68 c 0
 189 40 219 26 249 26 c 0
 279 26 313 41 324 71 c 0
 332 92 332 161 332 200 c 2
 332 219 l 2
 332 321 330 364 322 380 c 0
 309 407 278 419 249 419 c 0
 219 419 187 405 175 376 c 0
 167 356 166 286 166 223 c 0
EndSplineSet
EndChar

StartChar: oneoldstyle
Encoding: 63281 63281 284
Width: 500
Flags: HW
TeX: 444 0
HStem: 3 45<83 195 315 429> 360 48<69 190.934> 433 20G<271 299>
VStem: 195 120<48 372>
LayerCount: 2
Fore
SplineSet
69 360 m 1
 69 408 l 1
 245 408 254 453 288 453 c 0
 310 453 315 442 315 422 c 2
 315 48 l 1
 429 48 l 1
 429 -0 l 1
 369 2 311 3 251 3 c 2
 246 3 l 2
 226 3 176 3 83 -0 c 1
 83 48 l 1
 195 48 l 1
 195 372 l 1
 154 363 111 360 69 360 c 1
EndSplineSet
EndChar

StartChar: twooldstyle
Encoding: 63282 63282 285
Width: 500
Flags: HW
TeX: 444 0
HStem: -0 116<201 390.177> 408 47<144.54 273.3>
VStem: 55 110<308.305 395.851> 311 138<255.174 373.101> 401 48<138.767 181>
LayerCount: 2
Fore
SplineSet
44 -0 m 1
 44 21 l 2
 44 39 46 42 66 58 c 0
 239 196 311 237 311 315 c 0
 311 371 265 408 203 408 c 0
 179 408 160 402 143 396 c 1
 146 393 165 378 165 351 c 0
 165 318 138 297 110 297 c 0
 80 297 55 319 55 353 c 0xf0
 55 394 88 455 236 455 c 0
 398 455 449 379 449 317 c 0xf0
 449 232 361 207 295 171 c 0
 285 166 257 149 201 116 c 1
 284 116 l 2
 381 116 382 117 391 140 c 0
 396 153 399 167 401 181 c 1
 449 181 l 1xe8
 419 -0 l 1
 44 -0 l 1
EndSplineSet
EndChar

StartChar: threeoldstyle
Encoding: 63283 63283 286
Width: 500
Flags: HW
TeX: 444 194
HStem: -205 43<152.31 276.134> 132 35<166.017 248.83> 416 39<167.84 273.354>
VStem: 41 154<-108.417 0.46759> 69 139<260.125 359.947> 291 138<241.302 385.328> 304 153<-101.26 63.1207>
LayerCount: 2
Fore
SplineSet
41 -55 m 0
 41 -3 80 23 118 23 c 0
 160 23 195 -8 195 -54 c 0
 195 -94 169 -122 133 -129 c 1
 155 -146 191 -162 224 -162 c 0
 300 -162 304 -77 304 -35 c 2
 304 -8 l 2
 304 66 296 132 221 132 c 2xf2
 190 132 l 1
 171 133 166 141 166 149 c 0
 166 157 172 165 177 167 c 0
 212 178 291 145 291 319 c 2
 291 329 l 2
 291 354 292 416 227 416 c 0
 202 416 173 404 146 380 c 1
 203 371 208 325 208 311 c 0
 208 270 176 241 138 241 c 0
 101 241 69 268 69 313 c 0
 69 379 127 455 236 455 c 0
 350 455 429 401 429 318 c 0xec
 429 252 389 189 302 153 c 1
 415 130 457 51 457 -16 c 0
 457 -128 367 -205 234 -205 c 0
 116 -205 41 -134 41 -55 c 0
EndSplineSet
EndChar

StartChar: fouroldstyle
Encoding: 63284 63284 287
Width: 500
Flags: HW
TeX: 444 194
HStem: -195 48<172 270 395 471> 0 48<79 270 395 471>
VStem: 270 125<-147 0> 281 114<48 309>
DStem2: 38 63 79 48 0.613065 0.790032<13.2852 343.323>
LayerCount: 2
Fore
SplineSet
27 0 m 1
 27 33 l 2
 27 43 27 49 38 63 c 2
 329 438 l 2
 339 450 344 457 364 457 c 0
 395 457 395 443 395 423 c 2
 395 48 l 1xd0
 471 48 l 1
 471 0 l 1
 395 0 l 1
 395 -147 l 1
 471 -147 l 1
 471 -195 l 1
 402 -192 360 -192 332 -192 c 0
 279 -192 225 -193 172 -195 c 1
 172 -147 l 1
 270 -147 l 1
 270 0 l 1xe0
 27 0 l 1
79 48 m 1
 281 48 l 1xd0
 281 309 l 1
 79 48 l 1
EndSplineSet
EndChar

StartChar: fiveoldstyle
Encoding: 63285 63285 288
Width: 500
Flags: HW
TeX: 444 194
HStem: -205 43<153.676 272.537> -102 135<116 167.014> 175 36<176.416 281.713> 300 154<143 175.229 196 395> 300 124<143.962 294.675>
VStem: 50 135<-84.8939 14.7474> 90 53<180 305> 307 142<-90.49 104.954>
LayerCount: 2
Fore
SplineSet
50 -38 m 0
 50 8 84 33 118 33 c 0
 155 33 185 4 185 -35 c 0xf5
 185 -57 174 -99 116 -102 c 1
 140 -139 176 -162 216 -162 c 0
 263 -162 286 -132 294 -115 c 0
 304 -94 307 -65 307 8 c 2
 307 32 l 2
 307 103 304 175 243 175 c 0
 155 175 139 107 112 107 c 0
 108 107 104 109 99 112 c 0
 91 117 90 126 90 134 c 2
 90 431 l 2
 90 439 91 454 105 454 c 0xf3
 120 454 163 424 250 424 c 0xeb
 336 424 381 454 395 454 c 0
 404 454 410 447 410 437 c 0xf3
 410 407 329 300 196 300 c 0
 178 300 160 302 143 305 c 1
 143 180 l 1xf3
 175 200 206 211 248 211 c 0
 365 211 449 132 449 6 c 0
 449 -133 342 -205 221 -205 c 0
 109 -205 50 -113 50 -38 c 0
EndSplineSet
EndChar

StartChar: sevenoldstyle
Encoding: 63287 63287 290
Width: 500
Flags: HW
TeX: 444 194
HStem: 319 126<142.787 355>
VStem: 55 48<222 273> 90 48<454.417 477> 159 125<-190.386 8.54883>
LayerCount: 2
Fore
SplineSet
55 222 m 1xd0
 90 477 l 1
 138 477 l 1
 145 450 171 445 299 445 c 2
 485 445 l 1
 485 426 l 2
 485 403 475 395 467 385 c 0
 360 243 346 225 335 206 c 0
 285 124 285 -13 284 -120 c 1
 284 -134 l 2
 284 -195 241 -205 221 -205 c 0
 198 -205 159 -192 159 -137 c 0xb0
 159 86 306 253 355 319 c 1
 301 319 l 2
 143 319 133 317 126 310 c 0
 113 298 107 253 103 222 c 1
 55 222 l 1xd0
EndSplineSet
EndChar

StartChar: nineoldstyle
Encoding: 63289 63289 292
Width: 500
Flags: HW
TeX: 444 194
HStem: -205 43<140.728 262.992> 30 37<199.025 286.382> 416 39<202.904 292.853>
VStem: 41 136<135.09 345.702> 66 125<-126.268 -30.9051> 320 137<-16.1916 305.783>
LayerCount: 2
Fore
SplineSet
41 239 m 0xf4
 41 311 58 355 102 399 c 0
 144 440 191 455 251 455 c 0
 307 455 381 434 424 336 c 0
 440 299 457 245 457 133 c 0
 457 -136 308 -205 208 -205 c 0
 116 -205 66 -149 66 -81 c 0
 66 -29 108 -16 129 -16 c 0
 163 -16 191 -42 191 -79 c 0xec
 191 -116 167 -133 140 -141 c 1
 160 -154 177 -162 205 -162 c 0
 264 -162 294 -109 303 -85 c 0
 314 -55 320 1 320 75 c 2
 320 80 l 1
 295 35 260 30 234 30 c 0
 178 30 140 47 110 74 c 0
 62 117 41 165 41 239 c 0xf4
177 178 m 2
 177 123 183 67 243 67 c 0
 284 67 320 97 320 233 c 0
 320 344 319 369 293 397 c 0
 281 410 265 416 249 416 c 0
 222 416 195 398 185 370 c 0
 178 350 177 293 177 260 c 2xf4
 177 178 l 2
EndSplineSet
EndChar

StartChar: angleleft
Encoding: 9001 9001 293
Width: 389
Flags: HW
TeX: 749 249
VStem: 111 63<182.898 314.305>
DStem2: 177 235 114 232 0.325991 -0.945373<-13.9928 479.948> 115 268 178 266 0.323381 0.946269<1.27872 496.262>
LayerCount: 2
Fore
SplineSet
111 250 m 0
 111 256 113 262 115 268 c 2
 264 704 l 2
 272 727 279 749 302 749 c 0
 317 749 331 737 331 719 c 0
 331 711 329 702 326 695 c 2
 178 266 l 2
 175 258 174 253 174 249 c 0
 174 244 175 241 177 235 c 2
 325 -194 l 2
 328 -202 331 -211 331 -220 c 0
 331 -238 317 -250 302 -250 c 0
 276 -250 270 -220 264 -203 c 2
 114 232 l 2
 112 238 111 244 111 250 c 0
EndSplineSet
EndChar

StartChar: minus
Encoding: 8722 8722 294
Width: 778
Flags: HW
TeX: 577 83
HStem: 232 36<56.0116 719.984>
LayerCount: 2
Fore
SplineSet
56 250 m 0
 56 265 70 268 85 268 c 2
 690 268 l 2
 698 268 720 269 720 250 c 0
 720 235 706 232 695 232 c 2
 84 232 l 2
 72 232 56 234 56 250 c 0
EndSplineSet
EndChar

StartChar: angleright
Encoding: 9002 9002 295
Width: 389
Flags: HW
TeX: 749 249
VStem: 213 64<185.195 317.023>
DStem2: 62 -194 122 -206 0.326591 0.945166<-26.0915 469.736> 123 702 78 646 0.326662 -0.945141<-37.4016 455.438>
LayerCount: 2
Fore
SplineSet
56 -220 m 0
 56 -210 59 -202 62 -194 c 2
 209 234 l 2
 212 242 213 247 213 251 c 0
 213 256 212 259 210 265 c 2
 78 646 l 2
 70 670 56 707 56 719 c 0
 56 732 65 749 85 749 c 0
 111 749 117 719 123 702 c 2
 273 268 l 2
 275 262 277 256 277 250 c 0
 277 244 275 237 273 231 c 2
 122 -206 l 2
 117 -221 110 -250 85 -250 c 0
 70 -250 56 -238 56 -220 c 0
EndSplineSet
EndChar

StartChar: uni2127
Encoding: 8487 8487 296
Width: 722
Flags: HW
TeX: 690 0
HStem: -11 37<287.135 432.515> 583 103<110.385 220 501 610.924>
VStem: 44 48<486 523.838> 55 153<134.595 331.181> 513 153<131.297 330.459> 629 48<486 523.838>
LayerCount: 2
Fore
SplineSet
44 486 m 1xe0
 81 686 l 1
 247 686 l 1
 269 685 273 676 273 658 c 0
 273 526 208 370 208 227 c 0
 208 150 222 90 272 53 c 0
 297 34 329 26 360 26 c 0
 409 26 456 48 483 91 c 0
 497 113 513 145 513 227 c 0xd8
 513 367 448 528 448 657 c 0
 448 673 450 685 475 686 c 1
 640 686 l 1
 677 486 l 1
 629 486 l 1xc4
 611 579 617 583 539 583 c 2
 501 583 l 1
 560 448 666 364 666 228 c 0
 666 101 565 -11 362 -11 c 0
 120 -11 55 133 55 229 c 0
 55 363 162 451 220 583 c 1
 182 583 l 2xd8
 105 583 110 579 92 486 c 1
 44 486 l 1xe0
EndSplineSet
EndChar

StartChar: circle
Encoding: 9675 9675 297
Width: 1111
Flags: HW
TeX: 749 249
HStem: -261 61<408.907 699.52> 700 61<410.62 700.652>
VStem: 55 60<95.7681 398.641> 994 61<95.7871 404.425>
LayerCount: 2
Fore
SplineSet
55 250 m 0
 55 560 256 761 556 761 c 0
 846 761 1055 566 1055 250 c 0
 1055 -60 854 -261 554 -261 c 0
 264 -261 55 -66 55 250 c 0
115 249 m 0
 115 -29 293 -200 553 -200 c 0
 810 -200 994 -37 994 251 c 0
 994 530 815 700 557 700 c 0
 301 700 115 537 115 249 c 0
EndSplineSet
EndChar

StartChar: uni2126
Encoding: 8486 8486 298
Width: 722
Flags: HW
TeX: 690 0
HStem: -0 103<109.586 220 501 611.414> 660 37<287.755 433.316>
VStem: 44 48<162.162 200> 55 153<354.554 552.707> 513 153<355.129 555.263> 629 48<162.162 200>
LayerCount: 2
Fore
SplineSet
44 200 m 1
 92 200 l 1
 109 108 105 103 177 103 c 2xe0
 220 103 l 1
 160 239 55 321 55 457 c 0
 55 554 119 697 361 697 c 0
 563 697 666 587 666 458 c 0xd8
 666 322 560 238 501 103 c 1
 544 103 l 2
 616 103 612 108 629 200 c 1
 677 200 l 1xc4
 640 -0 l 1
 475 -0 l 1
 452 1 448 10 448 29 c 0
 448 158 513 317 513 459 c 0
 513 536 498 596 448 633 c 0
 423 652 391 660 360 660 c 0
 309 660 264 636 238 595 c 0
 224 572 208 541 208 459 c 0xd8
 208 313 273 167 273 29 c 0
 273 10 270 1 247 -0 c 1
 81 -0 l 1
 44 200 l 1
EndSplineSet
EndChar

StartChar: uni301A
Encoding: 12314 12314 299
Width: 403
Flags: HW
TeX: 749 249
HStem: -250 60<168 233 293 380> 690 60<168 233 293 380>
VStem: 108 60<-190 690> 233 60<-190 690>
LayerCount: 2
Fore
SplineSet
108 -250 m 1
 108 750 l 1
 380 750 l 1
 380 690 l 1
 293 690 l 1
 293 -190 l 1
 380 -190 l 1
 380 -250 l 1
 108 -250 l 1
168 -190 m 1
 233 -190 l 1
 233 690 l 1
 168 690 l 1
 168 -190 l 1
EndSplineSet
EndChar

StartChar: uni301B
Encoding: 12315 12315 300
Width: 403
Flags: HW
TeX: 749 249
HStem: -250 60<22 109 169 233> 690 60<22 109 169 233>
VStem: 109 60<-190 690> 233 61<-190 690>
LayerCount: 2
Fore
SplineSet
22 -190 m 1
 109 -190 l 1
 109 690 l 1
 22 690 l 1
 22 750 l 1
 294 750 l 1
 294 -250 l 1
 22 -250 l 1
 22 -190 l 1
169 -190 m 1
 233 -190 l 1
 233 690 l 1
 169 690 l 1
 169 -190 l 1
EndSplineSet
EndChar

StartChar: arrowup
Encoding: 8593 8593 301
Width: 500
Flags: HW
TeX: 690 194
HStem: -194 21G<243 263> 414 61<27 85.1924 411.378 471> 674 20G<235 258>
VStem: 219 60<-193.031 527>
LayerCount: 2
Fore
SplineSet
27 414 m 1
 27 475 l 1
 135 501 221 580 249 694 c 1
 267 631 315 513 471 475 c 1
 471 414 l 1
 388 433 329 474 279 527 c 1
 279 -154 l 2
 279 -168 277 -194 249 -194 c 0
 237 -194 219 -189 219 -155 c 2
 219 527 l 1
 169 474 110 433 27 414 c 1
EndSplineSet
EndChar

StartChar: arrowdown
Encoding: 8595 8595 302
Width: 500
Flags: HW
TeX: 690 194
HStem: -195 21G<245 255.111> 25 60<27 85.3999 410.149 471> 673 20G<237 255>
VStem: 219 60<-28 691.974>
LayerCount: 2
Fore
SplineSet
27 25 m 1
 27 85 l 1
 110 66 169 25 219 -28 c 1
 219 654 l 2
 219 675 225 693 249 693 c 0
 261 693 279 688 279 654 c 2
 279 -28 l 1
 329 25 388 66 471 85 c 1
 471 25 l 1
 353 -3 287 -91 279 -124 c 1
 276 -124 l 1
 260 -159 l 1
 249 -195 l 1
 241 -162 232 -146 222 -124 c 1
 219 -124 l 1
 212 -97 151 -5 27 25 c 1
EndSplineSet
EndChar

StartChar: grave.ts1
Encoding: 61703 61703 303
Width: 500
Flags: HW
TeX: 690 0
HStem: 511 195
VStem: 99 194
LayerCount: 2
Fore
SplineSet
99 644 m 0
 99 676 129 706 161 706 c 0
 197 706 204 684 293 545 c 1
 293 544 l 1
 260 511 l 1
 259 511 l 1
 122 600 99 608 99 644 c 0
EndSplineSet
EndChar

StartChar: uni22C6
Encoding: 8902 8902 304
Width: 500
Flags: HW
TeX: 472 -27
HStem: 1 21G<95 104 396 405>
LayerCount: 2
Fore
SplineSet
-11 307 m 0
 -11 312 -8 323 9 323 c 0
 18 323 180 300 199 297 c 1
 232 501 234 501 250 501 c 0
 267 501 269 497 302 297 c 0
 303 297 484 323 493 323 c 0
 505 323 512 315 512 307 c 0
 511 295 508 293 484 279 c 1
 364 215 349 207 334 200 c 1
 369 123 418 33 418 17 c 0
 418 6 408 1 402 1 c 0
 390 1 387 7 250 138 c 1
 111 4 110 1 98 1 c 0
 92 1 82 7 82 17 c 0
 82 34 130 119 167 200 c 1
 151 208 136 216 11 283 c 0
 -9 294 -11 299 -11 307 c 0
EndSplineSet
EndChar

StartChar: uni26AE
Encoding: 9902 9902 305
Width: 500
Flags: HW
TeX: 472 -27
HStem: 28 75<-82.0501 73.5884 426.062 582.328> 397 75<-82.3847 73.1058 426.627 581.793>
VStem: -204 75<151.779 346.131> 126 56<156.364 343.467> 193 113<-113.677 181.768 328.668 613.766> 213 74<86.5499 554.083> 318 56<156.81 343.433> 628 76<152.489 349.293>
LayerCount: 2
Fore
SplineSet
-204 250 m 0
 -204 406 -103 472 -7 472 c 0
 101 472 182 390 182 249 c 0
 182 111 102 28 -7 28 c 0
 -120 28 -204 112 -204 250 c 0
-129 252 m 0
 -129 169 -104 103 -6 103 c 0
 100 103 126 175 126 251 c 0
 126 331 92 397 -5 397 c 0
 -75 397 -129 364 -129 252 c 0
193 -91 m 0xfb
 193 -82 213 97 213 321 c 0xf7
 213 486 194 560 194 591 c 0
 194 605 200 614 220 614 c 0
 239 614 258 614 277 614 c 0
 290 614 306 613 306 593 c 0xfb
 306 588 287 469 287 316 c 0xf7
 287 95 306 -82 306 -91 c 0xfb
 306 -109 296 -114 280 -114 c 2
 224 -114 l 2
 207 -114 193 -112 193 -91 c 0xfb
318 250 m 0
 318 390 399 472 507 472 c 0
 618 472 704 390 704 250 c 0
 704 105 613 28 506 28 c 0
 398 28 318 110 318 250 c 0
374 249 m 0xf3
 374 178 400 103 505 103 c 0
 604 103 628 168 628 250 c 0
 628 320 611 397 506 397 c 0
 400 397 374 324 374 249 c 0xf3
EndSplineSet
EndChar

StartChar: uni271D
Encoding: 10013 10013 306
Width: 500
Flags: HW
TeX: 606 24
HStem: 337 74<37.3799 206.405 292.502 460.664>
VStem: 193 112<-24.6503 273.944 407.435 606.585>
LayerCount: 2
Fore
SplineSet
37 366 m 2
 37 385 l 1
 38 406 47 411 62 411 c 0
 67 411 93 406 212 402 c 1
 210 519 193 568 193 588 c 0
 193 605 207 607 224 607 c 0
 241 607 258 607 275 607 c 0
 298 607 305 600 305 586 c 0
 305 582 304 578 303 573 c 0
 290 503 288 463 286 402 c 1
 396 406 428 411 441 411 c 0
 456 411 460 400 461 386 c 1
 461 366 l 2
 461 343 454 337 436 337 c 0
 421 337 406 342 287 346 c 1
 287 282 291 162 305 8 c 1
 305 -2 l 2
 305 -17 300 -25 276 -25 c 2
 221 -25 l 2
 197 -25 193 -15 193 -2 c 0
 193 15 212 172 212 346 c 1
 91 342 75 337 60 337 c 0
 47 337 37 341 37 366 c 2
EndSplineSet
EndChar

StartChar: leaf
Encoding: 61704 61704 307
Width: 1000
Flags: HW
TeX: 690 0
HStem: -57 37<74.4102 395.901> 155 37<308 719> 364 36<608 889> 715 36<601.94 919.48>
VStem: 232 36<209 494> 532 36<417 679>
DStem2: 21 36 42 7 0.821244 0.570576<0.699416 200.248 324.707 622.211 689.76 1140.95>
LayerCount: 2
Fore
SplineSet
-18 7 m 0
 -18 16 -14 60 -9 95 c 0
 51 473 378 751 762 751 c 0
 854 751 937 733 991 716 c 0
 1011 710 1017 705 1017 687 c 0
 1017 678 1014 632 1008 596 c 0
 943 203 603 -57 239 -57 c 0
 147 -57 63 -40 8 -22 c 0
 -11 -16 -18 -10 -18 7 c 0
21 36 m 1
 239 188 231 177 232 197 c 1
 232 494 l 1
 131 395 39 234 21 36 c 1
42 7 m 1
 79 -5 160 -20 239 -20 c 0
 441 -20 612 61 719 155 c 1
 276 155 l 2
 273 155 270 156 268 156 c 0
 250 156 245 148 42 7 c 1
268 209 m 1
 532 391 l 1
 532 679 l 1
 439 649 359 603 290 547 c 0
 272 533 269 530 268 513 c 1
 268 209 l 1
308 192 m 1
 745 192 l 2
 756 192 761 193 777 210 c 0
 814 249 859 306 889 364 c 1
 572 364 l 1
 556 362 l 1
 542 354 l 1
 308 192 l 1
568 417 m 1
 958 687 l 1
 921 699 839 715 760 715 c 0
 683 715 624 703 568 690 c 1
 568 417 l 1
608 400 m 1
 908 400 l 1
 946 479 971 564 979 658 c 1
 608 400 l 1
EndSplineSet
EndChar

StartChar: uni26AD
Encoding: 9901 9901 308
Width: 500
Flags: HW
TeX: 472 -27
HStem: 28 75<42.7894 185.974 313.846 456.578> 397 75<42.5938 186.239 314.026 457.293>
VStem: -93 76<159.994 337.96> 143 56<164.986 335.438> 301 56<165.238 334.764> 517 76<161.937 340.31>
LayerCount: 2
Fore
SplineSet
-93 250 m 0
 -93 384 -1 472 136 472 c 0
 206 472 237 449 250 449 c 0
 261 449 296 472 364 472 c 0
 500 472 593 383 593 250 c 0
 593 113 497 28 364 28 c 0
 294 28 264 51 250 51 c 0
 239 51 204 28 136 28 c 0
 0 28 -93 117 -93 250 c 0
-17 251 m 0
 -17 172 13 103 136 103 c 0
 153 103 170 104 187 107 c 1
 159 148 143 193 143 250 c 0
 143 311 159 351 187 393 c 1
 170 396 153 397 136 397 c 0
 34 397 -17 348 -17 251 c 0
199 250 m 0
 199 180 230 148 250 132 c 1
 278 157 301 188 301 249 c 0
 301 320 270 351 250 368 c 1
 230 351 199 321 199 250 c 0
313 107 m 1
 330 104 347 103 364 103 c 0
 487 103 517 173 517 251 c 0
 517 348 467 397 363 397 c 0
 346 397 330 396 313 393 c 1
 341 352 357 307 357 250 c 0
 357 189 341 149 313 107 c 1
EndSplineSet
EndChar

StartChar: musicalnote
Encoding: 9834 9834 309
Width: 611
Flags: HW
TeX: 690 0
HStem: -36 297<139.747 312.655> 673 20G<362 372.5>
VStem: 336 60<228 439 549.026 691.771> 497 58<120.566 257.263>
LayerCount: 2
Fore
SplineSet
55 118 m 0
 55 204 136 261 226 261 c 0
 270 261 303 249 336 228 c 1
 336 655 l 2
 336 690 358 693 366 693 c 0
 379 693 390 684 394 672 c 0
 400 654 389 635 417 549 c 0
 458 424 555 293 555 156 c 0
 555 127 535 119 525 119 c 0
 510 119 500 131 497 140 c 0
 492 154 501 199 460 301 c 0
 441 348 418 393 396 439 c 1
 396 133 l 2
 396 106 397 84 380 52 c 0
 354 3 298 -36 226 -36 c 0
 137 -36 55 28 55 118 c 0
EndSplineSet
EndChar

StartChar: tildelow
Encoding: 61705 61705 310
Width: 611
Flags: HW
TeX: 126 0
HStem: 0 75<323.131 451.01> 51 76<158.99 288.581>
LayerCount: 2
Fore
SplineSet
83 23 m 1
 128 77 161 127 222 127 c 0x40
 286 127 340 75 404 75 c 0x80
 442 75 471 95 499 127 c 1x40
 527 104 l 1
 482 50 449 0 388 0 c 0x80
 324 0 271 51 206 51 c 0x40
 168 51 139 32 111 -0 c 1x80
 83 23 l 1
EndSplineSet
EndChar

StartChar: breve.ts1
Encoding: 61707 61707 312
Width: 611
Flags: HW
TeX: 690 0
HStem: 507 63<205.168 402.476> 674 20G<92 130.5 478.5 517>
VStem: 92 36<639.252 694> 481 36<641.685 694>
LayerCount: 2
Fore
SplineSet
92 694 m 1
 128 694 l 1
 133 603 227 570 305 570 c 0
 387 570 476 607 481 694 c 1
 517 694 l 1
 513 574 407 507 304 507 c 0
 199 507 96 576 92 694 c 1
EndSplineSet
EndChar

StartChar: caron.ts1
Encoding: 61708 61708 313
Width: 611
Flags: HW
TeX: 690 0
HStem: 549 166
LayerCount: 2
Fore
SplineSet
113 673 m 1
 137 715 l 1
 305 631 l 1
 473 715 l 1
 497 673 l 1
 305 549 l 1
 113 673 l 1
EndSplineSet
EndChar

StartChar: hungarumlaut.ts1
Encoding: 61709 61709 314
Width: 500
Flags: HW
TeX: 690 0
HStem: 517 194<153.393 178.684 320.098 345.666>
VStem: 117 310
LayerCount: 2
Fore
SplineSet
117 538 m 1
 140 656 140 711 195 711 c 0
 224 711 261 687 261 652 c 0
 261 625 245 613 160 517 c 1
 117 538 l 1
283 538 m 1
 306 656 307 711 362 711 c 0
 391 711 427 687 427 652 c 0
 427 625 412 613 327 517 c 1
 283 538 l 1
EndSplineSet
EndChar

StartChar: dblgrave.ts1
Encoding: 61710 61710 315
Width: 500
Flags: HW
TeX: 690 0
HStem: 517 194<153.134 179.202 321.113 345.202>
VStem: 72 123<607.676 694.75>
LayerCount: 2
Fore
SplineSet
72 653 m 0
 72 687 106 711 137 711 c 0
 185 711 191 662 195 641 c 2
 215 538 l 1
 172 517 l 1
 86 614 72 626 72 653 c 0
238 652 m 0
 238 687 272 711 303 711 c 0
 351 711 357 662 361 641 c 2
 381 538 l 1
 339 517 l 1
 258 608 238 625 238 652 c 0
EndSplineSet
EndChar

StartChar: dagger
Encoding: 8224 8224 316
Width: 444
Flags: HW
TeX: 690 194
HStem: 388 113<67.4701 170.744 272.084 375.798> 679 20G<211.5 232>
VStem: 164 115<-35.0814 349.993 544.669 686.875>
LayerCount: 2
Fore
SplineSet
55 445 m 0
 55 476 78 501 112 501 c 0
 150 501 167 477 207 461 c 1
 194 542 165 578 165 638 c 0
 165 687 201 699 222 699 c 0
 242 699 279 687 279 639 c 0
 279 585 247 530 236 461 c 1
 276 477 296 501 331 501 c 0
 365 501 388 475 388 444 c 0
 388 413 364 388 330 388 c 0
 295 388 274 412 237 428 c 1
 246 357 279 326 279 242 c 0
 279 73 259 -97 247 -181 c 0
 244 -200 238 -205 223 -205 c 2
 220 -205 l 2
 196 -205 198 -190 194 -168 c 0
 171 -5 164 141 164 244 c 0
 164 322 198 364 206 428 c 1
 165 410 148 388 113 388 c 0
 76 388 55 417 55 445 c 0
EndSplineSet
EndChar

StartChar: daggerdbl
Encoding: 8225 8225 317
Width: 444
Flags: HW
TeX: 690 194
HStem: -32 113<67.6089 170.521 272.084 375.714> 418 113<67.6089 170.521 271.798 375.798> 679 20G<207.5 233.5>
VStem: 165 113<-187.625 -55.2948 104.633 237.125 262.375 394.705 554.633 687.567>
LayerCount: 2
Fore
SplineSet
55 25 m 0
 55 56 78 81 112 81 c 0
 148 81 164 59 206 41 c 1
 193 104 165 139 165 190 c 0
 165 237 202 249 222 249 c 0
 245 249 278 234 278 189 c 0
 278 137 251 108 237 41 c 1
 278 59 296 82 331 82 c 0
 365 82 388 56 388 25 c 0
 388 -6 365 -32 330 -32 c 0
 295 -32 274 -8 237 8 c 1
 250 -55 278 -89 278 -140 c 0
 278 -187 241 -200 221 -200 c 0
 197 -200 165 -185 165 -140 c 0
 165 -95 195 -44 206 8 c 1
 165 -10 148 -32 113 -32 c 0
 79 -32 55 -6 55 25 c 0
55 475 m 0
 55 506 78 531 112 531 c 0
 148 531 164 509 206 491 c 1
 193 554 165 589 165 640 c 0
 165 680 193 699 222 699 c 0
 245 699 278 684 278 639 c 0
 278 587 251 558 237 491 c 1
 278 509 295 531 330 531 c 0
 364 531 388 506 388 475 c 0
 388 444 365 418 331 418 c 0
 294 418 280 439 237 458 c 1
 250 395 278 361 278 310 c 0
 278 263 241 250 221 250 c 0
 197 250 165 265 165 310 c 0
 165 355 195 406 206 458 c 1
 165 440 148 418 113 418 c 0
 79 418 55 444 55 475 c 0
EndSplineSet
EndChar

StartChar: uni2016
Encoding: 8214 8214 318
Width: 500
Flags: HW
TeX: 749 249
VStem: 154 60<-248.75 747.925> 284 60<-248.75 747.426>
LayerCount: 2
Fore
SplineSet
154 -208 m 2
 154 705 l 2
 154 713 152 749 184 749 c 0
 215 749 214 717 214 709 c 2
 214 -206 l 2
 214 -213 215 -220 213 -227 c 0
 209 -241 196 -250 185 -250 c 0
 153 -250 154 -216 154 -208 c 2
284 -208 m 2
 284 705 l 2
 284 712 284 720 286 727 c 0
 290 741 303 749 314 749 c 0
 341 749 344 726 344 709 c 2
 344 -206 l 2
 344 -213 345 -220 343 -227 c 0
 339 -241 326 -250 315 -250 c 0
 283 -250 284 -216 284 -208 c 2
EndSplineSet
EndChar

StartChar: perthousand
Encoding: 8240 8240 319
Width: 1166
Flags: HW
TeX: 749 55
HStem: -55 37<622.684 689.025 955.684 1022.02> 310 37<622.928 689.169 956.251 1021.9> 347 37<178.684 245.025> 611 35<371.471 549.028> 713 37<178.028 244.526>
VStem: 55 103<437.565 658.647> 285 48<430.245 645.658> 499 103<35.5651 256.421> 729 48<28.1414 265.16> 832 103<35.5651 256.875> 1062 48<28.1414 264.052>
DStem2: 148 0 201 -31 0.553361 0.832942<-26.361 759.384>
LayerCount: 2
Fore
SplineSet
832 146 m 0
 832 301 923 347 984 347 c 0
 1034 347 1110 305 1110 146 c 0
 1110 -14 1034 -55 983 -55 c 0
 923 -55 832 -8 832 146 c 0
935 134 m 2
 935 66 937 -18 987 -18 c 0
 1017 -18 1062 22 1062 146 c 0
 1062 272 1016 310 986 310 c 0
 939 310 935 226 935 175 c 2
 935 134 l 2
EndSplineSet
Refer: 45 37 S 1 0 0 1 0 0 2
EndChar

StartChar: bullet
Encoding: 8226 8226 320
Width: 500
Flags: HW
TeX: 444 -55
HStem: 55 390<157.129 341.871>
VStem: 55 389<157.129 345.742>
LayerCount: 2
Fore
SplineSet
55 250 m 0
 55 364 133 445 250 445 c 0
 366 445 444 365 444 250 c 0
 444 136 366 55 249 55 c 0
 135 55 55 133 55 250 c 0
EndSplineSet
EndChar

StartChar: uni2103
Encoding: 8451 8451 321
Width: 944
Flags: HW
TeX: 690 0
HStem: -11 48<554.721 735.833> 464 61<69.2278 153.198> 625 61<68.8024 152.934> 649 48<553.724 727.456>
VStem: 0 61<533.067 617.876> 161 61<532.124 616.966> 277 153<209.581 477.006> 820 68<429.85 552.222> 839 49<143.924 246.918>
LayerCount: 2
Fore
SplineSet
0 575 m 0
 0 641 47 686 111 686 c 0
 173 686 222 643 222 575 c 0
 222 509 175 464 111 464 c 0
 49 464 0 506 0 575 c 0
61 575 m 0
 61 548 77 525 111 525 c 0
 151 525 161 555 161 575 c 0
 161 604 144 625 111 625 c 0xee
 71 625 61 595 61 575 c 0
277 344 m 0xde80
 277 568 434 697 628 697 c 0
 699 697 749 672 792 635 c 1
 842 680 857 696 870 696 c 0
 888 696 888 678 888 666 c 2xde80
 888 451 l 2
 888 431 882 426 862 426 c 0
 823 426 843 441 820 507 c 0xdf
 798 569 746 649 648 649 c 0
 597 649 529 631 484 575 c 0
 432 510 430 418 430 353 c 2
 430 343 l 2
 430 273 432 176 486 110 c 0
 526 61 587 37 650 37 c 0
 764 37 832 128 839 219 c 0
 840 236 840 247 864 247 c 0
 883 247 888 240 888 225 c 0
 888 132 803 -11 629 -11 c 0
 434 -11 277 116 277 344 c 0xde80
EndSplineSet
EndChar

StartChar: dollaroldstyle
Encoding: 63268 63268 322
Width: 611
Flags: HW
TeX: 749 55
HStem: -4 49<264 346> 4 49<166.059 216> 127 125<116.91 165.874> 643 48<394 448.861> 652 48<264 346>
VStem: 55 125<143.702 237.717> 55 81<442.776 586.246> 216 48<-55 -4 53 298 458 639 698 750> 346 48<-55 -3 57 262 424 643 698 750> 429 125<471.055 564.819> 473 81<114.75 219.737>
LayerCount: 2
Fore
SplineSet
55 185 m 0
 55 239 95 252 118 252 c 0
 153 252 180 227 180 189 c 0
 180 169 171 131 116 127 c 1
 137 91 164 68 216 53 c 1x65a0
 216 310 l 1
 148 331 55 391 55 499 c 0
 55 575 101 661 216 689 c 1
 216 750 l 1
 264 750 l 1
 264 698 l 1
 300 700 l 1x6b80
 346 698 l 1
 346 750 l 1
 394 750 l 1
 394 691 l 1
 544 659 554 558 554 522 c 0
 554 469 514 456 492 456 c 0
 456 456 429 483 429 518 c 0x33c0
 429 536 438 576 491 581 c 1
 476 603 458 626 394 643 c 1
 394 411 l 1
 505 371 554 290 554 209 c 0
 554 133 514 37 394 6 c 1
 394 -55 l 1
 346 -55 l 1
 346 -3 l 1
 332 -4 318 -5 304 -5 c 0
 291 -5 277 -5 264 -4 c 1xb1a0
 264 -55 l 1
 216 -55 l 1
 216 4 l 1
 98 29 55 113 55 185 c 0
136 547 m 0x2380
 136 495 187 470 216 458 c 1
 216 639 l 1
 161 620 136 584 136 547 c 0x2380
264 45 m 1
 307 42 l 1
 346 45 l 1xa180
 346 277 l 1
 264 298 l 1
 264 45 l 1
264 445 m 1
 346 424 l 1
 346 650 l 1
 333 651 319 652 306 652 c 0x2980
 292 652 278 651 264 650 c 1
 264 445 l 1
394 57 m 1
 449 79 473 119 473 161 c 0x21a0
 473 202 447 237 394 262 c 1
 394 57 l 1
EndSplineSet
EndChar

StartChar: centoldstyle
Encoding: 63394 63394 323
Width: 500
Flags: HW
TeX: 541 97
HStem: -5 40<226.373 369.786> 412 41<216.27 319.549>
VStem: 33 128<120.384 325.732>
DStem2: 81 -90 113 -105 0.430756 0.902469<0.247155 133.547 225.887 514.62 609.894 708.058>
LayerCount: 2
Fore
SplineSet
33 223 m 0
 33 346 114 453 282 453 c 0
 301 453 319 451 338 450 c 1
 386 549 l 1
 418 534 l 1
 376 445 l 1
 418 435 461 413 461 362 c 0
 461 321 429 299 397 299 c 0
 381 299 344 304 335 359 c 1
 200 76 l 1
 230 47 258 35 297 35 c 0
 399 35 422 120 429 126 c 0
 433 130 441 132 448 132 c 0
 459 132 470 127 470 116 c 0
 470 100 432 -5 278 -5 c 0
 235 -5 206 1 170 13 c 1
 113 -105 l 1
 81 -90 l 1
 137 30 l 1
 40 87 33 187 33 223 c 0
161 225 m 0
 161 183 165 147 178 114 c 1
 320 411 l 1
 309 411 297 412 286 412 c 0
 164 412 161 293 161 225 c 0
EndSplineSet
EndChar

StartChar: colonmonetary
Encoding: 8353 8353 325
Width: 722
Flags: HW
TeX: 749 55
HStem: -10 50<324.531 387 435 514.781> 645 51<325.5 387 435 509.084>
VStem: 55 153<212.595 477.144> 387 48<-55 -8.83112 40 645 694.782 750> 591 75<443.996 566.511> 618 48<144.533 246.971>
LayerCount: 2
Fore
SplineSet
55 343 m 0
 55 457 101 673 387 696 c 1
 387 750 l 1
 435 750 l 1
 435 695 l 1
 491 689 532 667 570 635 c 1
 619 680 635 696 648 696 c 0
 663 696 666 685 666 669 c 2xf4
 666 450 l 2
 666 430 657 426 639 426 c 2
 637 426 l 2
 600 426 623 451 591 526 c 0xf8
 566 585 519 642 435 649 c 1
 435 37 l 1
 549 45 611 131 618 223 c 0
 619 238 620 247 642 247 c 2
 644 247 l 2
 662 247 666 237 666 224 c 0xf4
 666 161 619 13 435 -10 c 1
 435 -55 l 1
 387 -55 l 1
 387 -10 l 1
 101 12 55 231 55 343 c 0
208 335 m 2xf0
 208 186 235 71 387 40 c 1
 387 645 l 1
 220 615 211 458 209 387 c 0
 209 375 208 364 208 352 c 2
 208 335 l 2xf0
EndSplineSet
EndChar

StartChar: uni20A9
Encoding: 8361 8361 326
Width: 1033
Flags: HW
TeX: 690 0
ItalicCorrection: 13
HStem: -8 21G<324 345 676 703> 200 36<64.2799 231 447 584 800 967.761> 422 36<62.0153 156 313 459 666 812 875 968.985> 638 48<20 95 240 323 373 454.532 593 676 793 877.997 928.901 1011>
DStem2: 240 638 95 638 0.320944 -0.947098<0 143.518 181.786 189.734 228.002 377.845 416.113 424.061> 396 236 447 236 0.323888 0.946095<16.5183 196.379> 593 638 448 638 0.320118 -0.947378<0 83.3083 181.585 189.735 228.002 377.965 415.912 424.382> 750 236 800 236 0.321039 0.947066<16.052 196.059 250.379 406.965>
LayerCount: 2
Fore
SplineSet
20 638 m 1
 20 686 l 1
 62 684 103 683 159 683 c 0
 213 683 269 684 323 686 c 1
 323 638 l 1
 240 638 l 1
 300 458 l 1
 472 458 l 1
 482 491 488 503 488 514 c 0
 488 526 472 563 448 638 c 1
 373 638 l 1
 373 686 l 1
 428 684 469 683 510 683 c 0
 565 683 621 684 676 686 c 1
 676 638 l 1
 593 638 l 1
 653 458 l 1
 825 458 l 1
 861 571 878 609 878 623 c 0
 878 630 874 638 793 638 c 1
 793 686 l 1
 834 684 875 683 916 683 c 0
 945 683 973 684 1011 686 c 1
 1011 638 l 1
 936 638 934 631 927 611 c 2
 875 458 l 1
 941 458 l 2
 961 458 969 449 969 440 c 0
 969 422 948 422 939 422 c 2
 862 422 l 1
 800 236 l 1
 939 236 l 2
 952 236 963 235 968 223 c 0
 971 214 964 204 957 202 c 0
 949 200 942 200 934 200 c 2
 787 200 l 1
 727 21 l 2
 720 1 714 -8 692 -8 c 0
 660 -8 663 3 596 200 c 1
 435 200 l 1
 369 4 372 10 364 1 c 0
 359 -5 350 -8 340 -8 c 0
 308 -8 306 16 299 36 c 0
 255 167 249 184 244 200 c 1
 97 200 l 2
 74 200 70 202 64 211 c 1
 59 221 67 231 73 233 c 0
 82 236 91 236 100 236 c 2
 231 236 l 1
 169 422 l 1
 92 422 l 2
 83 422 62 423 62 440 c 0
 62 447 66 458 90 458 c 2
 156 458 l 1
 95 638 l 1
 20 638 l 1
313 422 m 1
 375 236 l 1
 396 236 l 1
 459 422 l 1
 313 422 l 1
447 236 m 1
 584 236 l 1
 521 422 l 1
 510 422 l 1
 447 236 l 1
666 422 m 1
 729 236 l 1
 750 236 l 1
 812 422 l 1
 666 422 l 1
EndSplineSet
EndChar

StartChar: uni20A6
Encoding: 8358 8358 327
Width: 811
Flags: HW
TeX: 690 0
HStem: 0 48<47 140.484 199.495 289> 200 36<13.0124 141 194 452 669 795.991> 422 36<13.0124 141 194 290 472 616 669 795.991> 638 48<47 141 521 615.825 669.232 763>
VStem: 141 53<57.1847 200 236 422 458 589> 616 53<236 422 458 634.698>
DStem2: 297 662 290 458 0.588938 -0.808178<-1.07471 160.746 189.987 252.031 297.027 435.569 464.277 526.855>
LayerCount: 2
Fore
SplineSet
13 218 m 0
 13 234 30 236 42 236 c 2
 141 236 l 1
 141 422 l 1
 41 422 l 2
 27 422 13 425 13 440 c 0
 13 456 30 458 42 458 c 2
 141 458 l 1
 141 638 l 1
 47 638 l 1
 47 686 l 1
 260 686 l 2
 279 686 282 682 297 662 c 0
 416 499 431 479 445 458 c 1
 616 458 l 1
 616 614 l 1
 615 634 610 638 521 638 c 1
 521 686 l 1
 579 683 615 683 638 683 c 0
 680 683 721 684 763 686 c 1
 763 638 l 1
 673 638 670 633 669 613 c 1
 669 458 l 1
 768 458 l 2
 792 458 796 447 796 440 c 0
 796 426 784 422 769 422 c 2
 669 422 l 1
 669 236 l 1
 768 236 l 2
 792 236 796 225 796 218 c 0
 796 204 784 200 769 200 c 2
 669 200 l 1
 669 31 l 2
 669 10 663 0 643 0 c 0
 624 0 619 8 606 25 c 0
 473 207 484 199 464 200 c 1
 194 200 l 1
 194 95 l 2
 194 61 195 61 199 57 c 0
 209 48 255 48 282 48 c 2
 289 48 l 1
 289 0 l 1
 247 2 206 3 164 3 c 0
 140 3 106 2 47 0 c 1
 47 48 l 1
 136 48 141 51 141 80 c 2
 141 200 l 1
 41 200 l 2
 27 200 13 203 13 218 c 0
194 236 m 1
 452 236 l 1
 324 412 322 422 306 422 c 2
 194 422 l 1
 194 236 l 1
194 458 m 1
 290 458 l 1
 195 589 l 1
 194 539 l 1
 194 458 l 1
472 422 m 1
 607 236 l 1
 616 236 l 1
 616 422 l 1
 472 422 l 1
EndSplineSet
EndChar

StartChar: uni20B2
Encoding: 8370 8370 328
Width: 786
Flags: HW
TeX: 749 55
HStem: -10 51<324.511 387 435 498.52> 228 45<435 524 666 735> 645 51<325.5 387 435 509.084>
VStem: 55 153<210.293 477.144> 387 48<-55 -8.82562 41 228 275 645 694.782 750> 524 142<65.591 228> 591 75<443.996 566.511>
LayerCount: 2
Fore
SplineSet
55 343 m 0
 55 457 101 673 387 696 c 1
 387 750 l 1
 435 750 l 1
 435 695 l 1
 491 689 532 667 570 635 c 1
 619 680 635 696 648 696 c 0
 663 696 666 685 666 669 c 2
 666 450 l 2
 666 430 657 426 639 426 c 2
 637 426 l 2
 600 426 623 451 591 526 c 0xfa
 566 585 519 642 435 649 c 1
 435 275 l 1
 487 274 538 273 590 273 c 0
 634 273 677 273 735 275 c 1
 735 228 l 1
 666 228 l 1xfc
 666 22 l 1xfa
 665 12 663 2 651 2 c 0
 643 2 589 24 555 52 c 1
 542 35 511 -1 435 -10 c 1
 435 -55 l 1
 387 -55 l 1
 387 -10 l 1
 101 12 55 231 55 343 c 0
208 337 m 2
 208 217 226 170 245 137 c 0
 273 87 319 55 387 41 c 1
 387 645 l 1
 220 615 211 458 209 387 c 0
 209 375 208 364 208 352 c 2
 208 337 l 2
435 37 m 1
 486 41 524 67 524 129 c 2xfc
 524 228 l 1
 435 228 l 1
 435 37 l 1
EndSplineSet
EndChar

StartChar: peso
Encoding: 61711 61711 329
Width: 697
Flags: HW
TeX: 690 0
HStem: 3 45<47 141 283 378> 200 36<13.0131 141 283 465.766> 301 42<283 452.027> 638 48<47 141 278 451.565>
VStem: 141 142<48 200 236 301 343 638> 488 153<405.394 579.066>
LayerCount: 2
Fore
SplineSet
13 218 m 0
 13 235 31 236 42 236 c 2
 141 236 l 1
 141 638 l 1
 47 638 l 1
 47 686 l 1
 402 686 l 2
 591 686 641 570 641 492 c 0
 641 416 593 301 402 301 c 2
 283 301 l 1
 283 236 l 1
 433 236 l 2
 457 236 461 233 466 224 c 0
 467 222 467 220 467 218 c 0
 467 210 461 200 442 200 c 2
 283 200 l 1
 283 48 l 1
 378 48 l 1
 378 0 l 1
 321 2 263 3 206 3 c 0
 142 3 95 1 47 0 c 1
 47 48 l 1
 141 48 l 1
 141 200 l 1
 41 200 l 2
 27 200 13 203 13 218 c 0
278 343 m 1
 356 343 l 2
 482 343 488 391 488 486 c 0
 488 587 487 638 357 638 c 2
 278 638 l 1
 278 343 l 1
EndSplineSet
EndChar

